SplineFontDB: 3.2
FontName: FontAwesome5Brands-Regular
FullName: Font Awesome 5 Brands Regular
FamilyName: Font Awesome 5 Brands Regular
Weight: Book
Copyright: Copyright (c) Font Awesome
Version: 330.240 (Font Awesome version: 5.10.0)
ItalicAngle: 0
UnderlinePosition: -75
UnderlineWidth: 25
Ascent: 448
Descent: 64
InvalidEm: 0
sfntRevision: 0x014a3d70
LayerCount: 2
Layer: 0 1 "+BBcEMAQ0BD0EOAQ5 +BD8EOwQwBD0A" 1
Layer: 1 1 "+BB8ENQRABDUENAQ9BDgEOQAA +BD8EOwQwBD0A" 0
XUID: [1021 452 1697165613 29106]
StyleMap: 0x0000
FSType: 0
OS2Version: 4
OS2_WeightWidthSlopeOnly: 0
OS2_UseTypoMetrics: 1
CreationTime: 1564412488
ModificationTime: 1738134790
PfmFamily: 17
TTFWeight: 400
TTFWidth: 5
LineGap: 0
VLineGap: 0
Panose: 2 0 5 3 0 0 0 0 0 0
OS2TypoAscent: 448
OS2TypoAOffset: 0
OS2TypoDescent: -64
OS2TypoDOffset: 0
OS2TypoLinegap: 46
OS2WinAscent: 460
OS2WinAOffset: 0
OS2WinDescent: 84
OS2WinDOffset: 0
HheadAscent: 448
HheadAOffset: 0
HheadDescent: -64
HheadDOffset: 0
OS2SubXSize: 332
OS2SubYSize: 358
OS2SubXOff: 0
OS2SubYOff: 71
OS2SupXSize: 332
OS2SupYSize: 358
OS2SupXOff: 0
OS2SupYOff: 245
OS2StrikeYSize: 25
OS2StrikeYPos: 132
OS2CapHeight: 421
OS2XHeight: 314
OS2Vendor: 'PfEd'
OS2CodePages: 80000001.00000000
OS2UnicodeRanges: 00000001.10000000.00000000.00000000
DEI: 91125
ShortTable: maxp 16
  1
  0
  263
  486
  23
  0
  0
  2
  0
  1
  1
  0
  64
  0
  0
  0
EndShort
LangName: 1033 "" "" "" "Font Awesome 5 Brands Regular-5.10.0" "" "330.240 (Font Awesome version: 5.10.0)" "" "" "" "" "The web's most popular icon set and toolkit." "https://fontawesome.com" "" "" "" "" "Font Awesome 5 Brands" "Regular" "Font Awesome 5 Brands Regular" "" "" "Font Awesome 5 Brands" "Regular"
GaspTable: 1 65535 2 0
Encoding: UnicodeBmp
UnicodeInterp: none
NameList: AGL For New Fonts
DisplaySize: -48
AntiAlias: 1
FitToEm: 0
WinInfo: 61792 16 4
BeginChars: 65539 264

StartChar: twitter-square
Encoding: 61569 61569 3
Width: 448
GlyphClass: 3
Flags: W
LayerCount: 2
Fore
SplineSet
400 416 m 2,0,1
 420 416 420 416 434 402 c 128,-1,2
 448 388 448 388 448 368 c 2,3,-1
 448 16 l 2,4,5
 448 -4 448 -4 434 -18 c 128,-1,6
 420 -32 420 -32 400 -32 c 2,7,-1
 48 -32 l 2,8,9
 28 -32 28 -32 14 -18 c 128,-1,10
 0 -4 0 -4 0 16 c 2,11,-1
 0 368 l 2,12,13
 0 388 0 388 14 402 c 128,-1,14
 28 416 28 416 48 416 c 2,15,-1
 400 416 l 2,0,1
351 257 m 0,16,17
 370 271 370 271 384 291 c 1,18,19
 365 283 365 283 346 281 c 1,20,21
 367 294 367 294 375 317 c 1,22,23
 355 305 355 305 333 301 c 1,24,25
 314 322 314 322 286 322 c 0,26,27
 255 322 255 322 235 298 c 128,-1,28
 215 274 215 274 222 241 c 1,29,30
 139 246 139 246 86 310 c 1,31,32
 77 295 77 295 77 277 c 0,33,34
 77 267 77 267 81 256.5 c 128,-1,35
 85 246 85 246 92 237 c 128,-1,36
 99 228 99 228 107 222 c 1,37,38
 91 223 91 223 77 231 c 1,39,-1
 77 230 l 2,40,41
 77 206 77 206 92 188 c 128,-1,42
 107 170 107 170 130 165 c 1,43,44
 116 162 116 162 100 164 c 1,45,46
 106 144 106 144 123 131.5 c 128,-1,47
 140 119 140 119 161 119 c 1,48,49
 125 91 125 91 80 91 c 0,50,51
 71 91 71 91 64 92 c 1,52,53
 110 62 110 62 165 62 c 0,54,55
 222 62 222 62 266 91 c 128,-1,56
 310 120 310 120 330.5 162 c 128,-1,57
 351 204 351 204 351 249 c 0,58,59
 351 254 351 254 351 257 c 0,16,17
EndSplineSet
Validated: 545
EndChar

StartChar: linkedin
Encoding: 61580 61580 4
Width: 448
GlyphClass: 3
Flags: W
LayerCount: 2
Fore
SplineSet
416 416 m 2,0,1
 429 416 429 416 438.5 406.5 c 128,-1,2
 448 397 448 397 448 384 c 2,3,-1
 448 0 l 2,4,5
 448 -13 448 -13 438.5 -22.5 c 128,-1,6
 429 -32 429 -32 416 -32 c 2,7,-1
 32 -32 l 2,8,9
 19 -32 19 -32 9.5 -22.5 c 128,-1,10
 0 -13 0 -13 0 0 c 2,11,-1
 0 384 l 2,12,13
 0 397 0 397 9.5 406.5 c 128,-1,14
 19 416 19 416 32 416 c 2,15,-1
 416 416 l 2,0,1
135 32 m 1,16,-1
 136 32 l 1,17,-1
 136 246 l 1,18,-1
 69 246 l 1,19,-1
 69 32 l 1,20,-1
 135 32 l 1,16,-1
102 275 m 128,-1,22
 118 275 118 275 129.5 286.5 c 128,-1,23
 141 298 141 298 141 313.5 c 128,-1,24
 141 329 141 329 129.5 340.5 c 128,-1,25
 118 352 118 352 102 352 c 128,-1,26
 86 352 86 352 75 340.5 c 128,-1,27
 64 329 64 329 64 313.5 c 128,-1,28
 64 298 64 298 75 286.5 c 128,-1,21
 86 275 86 275 102 275 c 128,-1,22
384 32 m 1,29,-1
 384 149 l 2,30,31
 384 173 384 173 381 190 c 128,-1,32
 378 207 378 207 370 221.5 c 128,-1,33
 362 236 362 236 345.5 243.5 c 128,-1,34
 329 251 329 251 305 251 c 0,35,36
 282 251 282 251 265.5 241 c 128,-1,37
 249 231 249 231 242 217 c 1,38,-1
 241 217 l 1,39,-1
 241 246 l 1,40,-1
 177 246 l 1,41,-1
 177 32 l 1,42,-1
 244 32 l 1,43,-1
 244 138 l 2,44,45
 244 163 244 163 252 178 c 128,-1,46
 260 193 260 193 283 193 c 0,47,48
 295 193 295 193 303 188 c 128,-1,49
 311 183 311 183 313.5 173 c 128,-1,50
 316 163 316 163 317 155.5 c 128,-1,51
 318 148 318 148 318 136 c 2,52,-1
 318 32 l 1,53,-1
 384 32 l 1,29,-1
EndSplineSet
Validated: 1
EndChar

StartChar: github-square
Encoding: 61586 61586 5
Width: 448
GlyphClass: 3
Flags: W
LayerCount: 2
Fore
SplineSet
400 416 m 2,0,1
 420 416 420 416 434 402 c 128,-1,2
 448 388 448 388 448 368 c 2,3,-1
 448 16 l 2,4,5
 448 -4 448 -4 434 -18 c 128,-1,6
 420 -32 420 -32 400 -32 c 2,7,-1
 48 -32 l 2,8,9
 28 -32 28 -32 14 -18 c 128,-1,10
 0 -4 0 -4 0 16 c 2,11,-1
 0 368 l 2,12,13
 0 388 0 388 14 402 c 128,-1,14
 28 416 28 416 48 416 c 2,15,-1
 400 416 l 2,0,1
277 32 m 0,16,17
 327 49 327 49 357.5 92.5 c 128,-1,18
 388 136 388 136 388 191 c 0,19,20
 388 259 388 259 339.5 305.5 c 128,-1,21
 291 352 291 352 222 352 c 256,22,23
 153 352 153 352 106.5 305.5 c 128,-1,24
 60 259 60 259 60 191 c 0,25,26
 60 136 60 136 91 92.5 c 128,-1,27
 122 49 122 49 172 32 c 0,28,29
 184 30 184 30 184 40 c 0,30,31
 184 41 184 41 183.5 57 c 128,-1,32
 183 73 183 73 183 81 c 1,33,34
 181 80 181 80 178 79.5 c 128,-1,35
 175 79 175 79 166.5 79 c 128,-1,36
 158 79 158 79 151 80.5 c 128,-1,37
 144 82 144 82 137 87 c 128,-1,38
 130 92 130 92 127 101 c 0,39,40
 120 120 120 120 109 125 c 1,41,42
 109 125 109 125 102 132 c 0,43,44
 102 135 102 135 110 135 c 0,45,46
 126 134 126 134 135 118 c 0,47,48
 152 89 152 89 184 104 c 1,49,50
 186 119 186 119 194 126 c 1,51,52
 176 128 176 128 166 130.5 c 128,-1,53
 156 133 156 133 143.5 140 c 128,-1,54
 131 147 131 147 125.5 162 c 128,-1,55
 120 177 120 177 120 199 c 256,56,57
 120 221 120 221 136 238 c 1,58,59
 127 258 127 258 137 283 c 1,60,61
 143 285 143 285 154.5 280.5 c 128,-1,62
 166 276 166 276 175 271 c 2,63,-1
 183 266 l 1,64,65
 203 271 203 271 224.5 271 c 128,-1,66
 246 271 246 271 266 266 c 0,67,68
 270 268 270 268 275.5 271.5 c 128,-1,69
 281 275 281 275 293.5 280 c 128,-1,70
 306 285 306 285 312 283 c 1,71,72
 322 259 322 259 314 238 c 1,73,74
 331 220 331 220 331 199 c 0,75,76
 331 177 331 177 325 162 c 128,-1,77
 319 147 319 147 306 140 c 128,-1,78
 293 133 293 133 283 130.5 c 128,-1,79
 273 128 273 128 255 126 c 1,80,81
 266 117 266 117 266 96 c 0,82,83
 266 82 266 82 266 61.5 c 128,-1,84
 266 41 266 41 266 40 c 0,85,86
 266 30 266 30 277 32 c 0,16,17
179.5 93.5 m 128,-1,88
 176 93 176 93 175.5 95.5 c 128,-1,89
 175 98 175 98 178 98 c 0,90,91
 182 99 182 99 182.5 96.5 c 128,-1,87
 183 94 183 94 179.5 93.5 c 128,-1,88
170 94 m 0,92,93
 170 97 170 97 166 97 c 256,94,95
 162 97 162 97 162 94 c 0,96,97
 162 92 162 92 166 92 c 256,98,99
 170 92 170 92 170 94 c 0,92,93
156 95.5 m 128,-1,101
 155 93 155 93 152 94 c 0,102,103
 148 95 148 95 149 97.5 c 128,-1,104
 150 100 150 100 153 99 c 0,105,100
 157 98 157 98 156 95.5 c 128,-1,101
144 101 m 0,106,107
 145 102 145 102 142.5 105 c 128,-1,108
 140 108 140 108 138 106 c 0,109,110
 137 104 137 104 139 101 c 0,111,112
 142 99 142 99 144 101 c 0,106,107
135 110 m 256,113,114
 137 111 137 111 135 114 c 256,115,116
 133 117 133 117 131 115 c 0,117,118
 129 114 129 114 131 111.5 c 128,-1,119
 133 109 133 109 135 110 c 256,113,114
128.5 119.5 m 128,-1,121
 130 121 130 121 128 123 c 256,122,123
 126 125 126 125 124.5 123.5 c 128,-1,124
 123 122 123 122 125 120 c 256,125,120
 127 118 127 118 128.5 119.5 c 128,-1,121
121 127 m 0,126,127
 122 128 122 128 120 130 c 0,128,129
 118 130 118 130 117 129 c 256,130,131
 116 128 116 128 119 127 c 0,132,133
 121 125 121 125 121 127 c 0,126,127
EndSplineSet
Validated: 545
EndChar

StartChar: twitter
Encoding: 61593 61593 6
Width: 512
GlyphClass: 3
Flags: W
LayerCount: 2
Fore
SplineSet
459 296 m 0,0,1
 460 292 460 292 460 283 c 0,2,3
 460 230 460 230 440 177.5 c 128,-1,4
 420 125 420 125 383.5 81.5 c 128,-1,5
 347 38 347 38 289 11 c 128,-1,6
 231 -16 231 -16 161 -16 c 0,7,8
 73 -16 73 -16 0 31 c 1,9,10
 11 30 11 30 25 30 c 0,11,12
 98 30 98 30 156 75 c 1,13,14
 121 75 121 75 94.5 95.5 c 128,-1,15
 68 116 68 116 58 147 c 1,16,17
 68 146 68 146 77 146 c 0,18,19
 91 146 91 146 105 149 c 1,20,21
 81 154 81 154 62 169 c 128,-1,22
 43 184 43 184 32 205.5 c 128,-1,23
 21 227 21 227 21 252 c 2,24,-1
 21 254 l 1,25,26
 43 241 43 241 68 240 c 1,27,28
 21 272 21 272 21 328 c 0,29,30
 21 356 21 356 36 381 c 1,31,32
 75 332 75 332 131.5 303 c 128,-1,33
 188 274 188 274 252 271 c 1,34,35
 250 283 250 283 250 295 c 0,36,37
 250 338 250 338 280.5 369 c 128,-1,38
 311 400 311 400 354 400 c 0,39,40
 400 400 400 400 431 367 c 1,41,42
 467 374 467 374 498 392 c 1,43,44
 486 355 486 355 452 334 c 1,45,46
 482 338 482 338 512 351 c 1,47,48
 490 319 490 319 459 296 c 0,0,1
EndSplineSet
Validated: 1
EndChar

StartChar: github
Encoding: 61595 61595 7
Width: 496
GlyphClass: 3
Flags: W
LayerCount: 2
Fore
SplineSet
166 51 m 256,0,1
 166 47 166 47 161 47 c 0,2,3
 155 46 155 46 155 51 c 0,4,5
 155 54 155 54 160 54 c 0,6,7
 166 55 166 55 166 51 c 256,0,1
134.5 55 m 128,-1,9
 136 59 136 59 141 57 c 0,10,11
 146 56 146 56 145 52 c 256,12,13
 144 48 144 48 139 50 c 0,14,8
 133 51 133 51 134.5 55 c 128,-1,9
179 57 m 0,15,16
 184 57 184 57 184.5 54 c 128,-1,17
 185 51 185 51 180 49 c 0,18,19
 175 48 175 48 174.5 52 c 128,-1,20
 174 56 174 56 179 57 c 0,15,16
245 440 m 0,21,22
 313 440 313 440 371 408 c 128,-1,23
 429 376 429 376 462.5 320 c 128,-1,24
 496 264 496 264 496 196 c 0,25,26
 496 113 496 113 449.5 47.5 c 128,-1,27
 403 -18 403 -18 328 -43 c 0,28,29
 320 -45 320 -45 315.5 -41 c 128,-1,30
 311 -37 311 -37 311 -31 c 0,31,32
 311 -30 311 -30 311 1.5 c 128,-1,33
 311 33 311 33 311 53 c 0,34,35
 311 85 311 85 294 99 c 1,36,37
 316 102 316 102 328 104 c 128,-1,38
 340 106 340 106 358 113 c 128,-1,39
 376 120 376 120 385.5 131 c 128,-1,40
 395 142 395 142 402 162 c 128,-1,41
 409 182 409 182 409 210 c 0,42,43
 409 229 409 229 403 241 c 128,-1,44
 397 253 397 253 383 268 c 1,45,46
 395 299 395 299 381 336 c 1,47,48
 371 339 371 339 354 332.5 c 128,-1,49
 337 326 337 326 324 318 c 2,50,-1
 312 309 l 1,51,52
 281 318 281 318 248.5 318 c 128,-1,53
 216 318 216 318 186 309 c 1,54,55
 181 313 181 313 172 318.5 c 128,-1,56
 163 324 163 324 144.5 331.5 c 128,-1,57
 126 339 126 339 117 336 c 1,58,59
 102 299 102 299 114 268 c 1,60,61
 91 243 91 243 91 210 c 0,62,63
 91 182 91 182 98 162 c 128,-1,64
 105 142 105 142 114 131 c 128,-1,65
 123 120 123 120 140 113 c 128,-1,66
 157 106 157 106 169.5 103.5 c 128,-1,67
 182 101 182 101 203 99 c 1,68,69
 190 87 190 87 187 65 c 1,70,71
 177 61 177 61 166.5 59 c 128,-1,72
 156 57 156 57 140 63 c 128,-1,73
 124 69 124 69 114 86 c 0,74,75
 108 97 108 97 98.5 103.5 c 128,-1,76
 89 110 89 110 82 111 c 2,77,-1
 76 112 l 2,78,79
 54 112 54 112 74 97 c 0,80,81
 81 93 81 93 88 84 c 128,-1,82
 95 75 95 75 98 68 c 2,83,-1
 102 60 l 2,84,85
 106 48 106 48 116 40 c 128,-1,86
 126 32 126 32 138 30 c 128,-1,87
 150 28 150 28 161 28 c 128,-1,88
 172 28 172 28 179 29 c 2,89,-1
 186 30 l 1,90,91
 186 18 186 18 186.5 -6 c 128,-1,92
 187 -30 187 -30 187 -31 c 0,93,94
 187 -37 187 -37 182.5 -41 c 128,-1,95
 178 -45 178 -45 170 -43 c 0,96,97
 94 -18 94 -18 47 47.5 c 128,-1,98
 0 113 0 113 0 196 c 0,99,100
 0 300 0 300 70.5 370 c 128,-1,101
 141 440 141 440 245 440 c 0,21,22
97 95 m 256,102,103
 99 97 99 97 102 94 c 256,104,105
 105 91 105 91 103 89 c 256,106,107
 101 87 101 87 98 90 c 256,108,109
 95 93 95 93 97 95 c 256,102,103
86 103 m 0,110,111
 88 105 88 105 91 104 c 0,112,113
 94 102 94 102 93 100 c 0,114,115
 92 97 92 97 89 99 c 0,116,117
 85 101 85 101 86 103 c 0,110,111
119 68 m 0,118,119
 121 71 121 71 125 67 c 256,120,121
 129 63 129 63 127 60 c 0,122,123
 124 57 124 57 120 61 c 256,124,125
 116 65 116 65 119 68 c 0,118,119
107 82 m 0,126,127
 110 85 110 85 113 80 c 0,128,129
 116 76 116 76 113 74 c 256,130,131
 110 72 110 72 107.5 76.5 c 128,-1,132
 105 81 105 81 107 82 c 0,126,127
EndSplineSet
Validated: 33
EndChar

StartChar: pinterest
Encoding: 61650 61650 8
Width: 496
GlyphClass: 3
Flags: W
LayerCount: 2
Fore
SplineSet
496 192 m 128,-1,1
 496 89 496 89 423.5 16.5 c 128,-1,2
 351 -56 351 -56 248 -56 c 0,3,4
 210 -56 210 -56 175 -45 c 1,5,6
 199 -5 199 -5 205 20 c 2,7,-1
 221 79 l 1,8,9
 227 67 227 67 243 59 c 128,-1,10
 259 51 259 51 278 51 c 0,11,12
 333 51 333 51 369.5 95.5 c 128,-1,13
 406 140 406 140 406 205 c 0,14,15
 406 266 406 266 362 307 c 128,-1,16
 318 348 318 348 253 348 c 0,17,18
 177 348 177 348 133.5 304 c 128,-1,19
 90 260 90 260 90 198 c 0,20,21
 90 169 90 169 104 140.5 c 128,-1,22
 118 112 118 112 140 102 c 0,23,24
 147 99 147 99 148 105 c 0,25,26
 149 107 149 107 151.5 118.5 c 128,-1,27
 154 130 154 130 155 133 c 0,28,29
 156 137 156 137 153 140 c 0,30,31
 135 163 135 163 135 197 c 0,32,33
 135 240 135 240 165.5 272.5 c 128,-1,34
 196 305 196 305 247 305 c 0,35,36
 293 305 293 305 322 276.5 c 128,-1,37
 351 248 351 248 351 204 c 0,38,39
 351 171 351 171 340.5 145 c 128,-1,40
 330 119 330 119 312 104.5 c 128,-1,41
 294 90 294 90 273 90 c 0,42,43
 254 90 254 90 243 103.5 c 128,-1,44
 232 117 232 117 236 135 c 0,45,46
 238 145 238 145 244 163 c 128,-1,47
 250 181 250 181 253 194.5 c 128,-1,48
 256 208 256 208 256 218 c 0,49,50
 256 227 256 227 253 235 c 128,-1,51
 250 243 250 243 242.5 247.5 c 128,-1,52
 235 252 235 252 225 252 c 0,53,54
 206 252 206 252 193 235 c 128,-1,55
 180 218 180 218 180 192 c 0,56,57
 180 188 180 188 180.5 183.5 c 128,-1,58
 181 179 181 179 181.5 175.5 c 128,-1,59
 182 172 182 172 183 168.5 c 128,-1,60
 184 165 184 165 184.5 163 c 128,-1,61
 185 161 185 161 186 159 c 128,-1,62
 187 157 187 157 187 156 c 2,63,-1
 188 155 l 1,64,65
 163 52 163 52 158 32 c 0,66,67
 153 7 153 7 158 -39 c 1,68,69
 87 -12 87 -12 43.5 51 c 128,-1,70
 0 114 0 114 0 192 c 0,71,72
 0 295 0 295 72.5 367.5 c 128,-1,73
 145 440 145 440 248 440 c 128,-1,74
 351 440 351 440 423.5 367.5 c 128,-1,0
 496 295 496 295 496 192 c 128,-1,1
EndSplineSet
Validated: 33
EndChar

StartChar: pinterest-square
Encoding: 61651 61651 9
Width: 448
GlyphClass: 3
Flags: W
LayerCount: 2
Fore
SplineSet
448 368 m 2,0,-1
 448 16 l 2,1,2
 448 -4 448 -4 434 -18 c 128,-1,3
 420 -32 420 -32 400 -32 c 2,4,-1
 154 -32 l 1,5,6
 176 4 176 4 182 27 c 2,7,-1
 197 86 l 1,8,9
 203 74 203 74 219 66 c 128,-1,10
 235 58 235 58 253 58 c 0,11,12
 290 58 290 58 319 78 c 128,-1,13
 348 98 348 98 364.5 133 c 128,-1,14
 381 168 381 168 381 210 c 0,15,16
 381 271 381 271 337.5 311.5 c 128,-1,17
 294 352 294 352 229 352 c 0,18,19
 154 352 154 352 110.5 308.5 c 128,-1,20
 67 265 67 265 67 203 c 0,21,22
 67 175 67 175 81 147 c 128,-1,23
 95 119 95 119 117 108 c 0,24,25
 124 105 124 105 125 112 c 0,26,27
 125 113 125 113 128 124 c 128,-1,28
 131 135 131 135 132 139 c 256,29,30
 133 143 133 143 130 146 c 0,31,32
 112 169 112 169 112 202 c 0,33,34
 112 245 112 245 142.5 277 c 128,-1,35
 173 309 173 309 223 309 c 0,36,37
 268 309 268 309 297 281 c 128,-1,38
 326 253 326 253 326 209 c 0,39,40
 326 177 326 177 315.5 151 c 128,-1,41
 305 125 305 125 287.5 111 c 128,-1,42
 270 97 270 97 248 97 c 0,43,44
 230 97 230 97 219 110 c 128,-1,45
 208 123 208 123 212 141 c 0,46,47
 214 152 214 152 219.5 169.5 c 128,-1,48
 225 187 225 187 228.5 200.5 c 128,-1,49
 232 214 232 214 232 223 c 0,50,51
 232 253 232 253 207 257 c 0,52,53
 180 261 180 261 165 233 c 0,54,55
 157 218 157 218 157 198 c 0,56,57
 157 192 157 192 157.5 186 c 128,-1,58
 158 180 158 180 159 175.5 c 128,-1,59
 160 171 160 171 161 168 c 128,-1,60
 162 165 162 165 163 163 c 2,61,-1
 164 161 l 1,62,63
 159 140 159 140 152.5 112.5 c 128,-1,64
 146 85 146 85 143.5 75 c 128,-1,65
 141 65 141 65 137.5 49 c 128,-1,66
 134 33 134 33 133.5 27 c 128,-1,67
 133 21 133 21 132.5 10 c 128,-1,68
 132 -1 132 -1 132.5 -9.5 c 128,-1,69
 133 -18 133 -18 134 -31 c 1,70,-1
 137 -32 l 1,71,-1
 48 -32 l 2,72,73
 28 -32 28 -32 14 -18 c 128,-1,74
 0 -4 0 -4 0 16 c 2,75,-1
 0 368 l 2,76,77
 0 388 0 388 14 402 c 128,-1,78
 28 416 28 416 48 416 c 2,79,-1
 400 416 l 2,80,81
 420 416 420 416 434 402 c 128,-1,82
 448 388 448 388 448 368 c 2,0,-1
EndSplineSet
Validated: 545
EndChar

StartChar: google-plus-square
Encoding: 61652 61652 10
Width: 448
GlyphClass: 3
Flags: W
LayerCount: 2
Fore
SplineSet
400 416 m 2,0,1
 420 416 420 416 434 402 c 128,-1,2
 448 388 448 388 448 368 c 2,3,-1
 448 16 l 2,4,5
 448 -4 448 -4 434 -18 c 128,-1,6
 420 -32 420 -32 400 -32 c 2,7,-1
 48 -32 l 2,8,9
 28 -32 28 -32 14 -18 c 128,-1,10
 0 -4 0 -4 0 16 c 2,11,-1
 0 368 l 2,12,13
 0 388 0 388 14 402 c 128,-1,14
 28 416 28 416 48 416 c 2,15,-1
 400 416 l 2,0,1
164 92 m 0,16,17
 207 92 207 92 233.5 119 c 128,-1,18
 260 146 260 146 260 190 c 0,19,20
 260 198 260 198 258 206 c 1,21,-1
 164 206 l 1,22,-1
 164 172 l 1,23,-1
 221 172 l 1,24,25
 218 157 218 157 204 143 c 128,-1,26
 190 129 190 129 164 129 c 0,27,28
 147 129 147 129 133 137.5 c 128,-1,29
 119 146 119 146 110.5 160.5 c 128,-1,30
 102 175 102 175 102 192 c 0,31,32
 102 218 102 218 120 236.5 c 128,-1,33
 138 255 138 255 164 255 c 0,34,35
 188 255 188 255 204 240 c 1,36,-1
 231 266 l 1,37,38
 203 292 203 292 164 292 c 0,39,40
 123 292 123 292 93.5 262.5 c 128,-1,41
 64 233 64 233 64 192 c 128,-1,42
 64 151 64 151 93.5 121.5 c 128,-1,43
 123 92 123 92 164 92 c 0,16,17
384 174 m 1,44,-1
 384 203 l 1,45,-1
 355 203 l 1,46,-1
 355 232 l 1,47,-1
 326 232 l 1,48,-1
 326 203 l 1,49,-1
 297 203 l 1,50,-1
 297 174 l 1,51,-1
 326 174 l 1,52,-1
 326 145 l 1,53,-1
 355 145 l 1,54,-1
 355 174 l 1,55,-1
 384 174 l 1,44,-1
EndSplineSet
Validated: 513
EndChar

StartChar: google-plus-g
Encoding: 61653 61653 11
Width: 640
GlyphClass: 3
Flags: W
LayerCount: 2
Fore
SplineSet
386 220 m 1,0,1
 389 203 389 203 389 188 c 0,2,3
 389 105 389 105 338 52.5 c 128,-1,4
 287 0 287 0 205 0 c 0,5,6
 125 0 125 0 69 56 c 128,-1,7
 13 112 13 112 13 192 c 128,-1,8
 13 272 13 272 69 328 c 128,-1,9
 125 384 125 384 205 384 c 0,10,11
 280 384 280 384 333 334 c 1,12,-1
 281 284 l 1,13,14
 251 313 251 313 205 313 c 0,15,16
 173 313 173 313 145.5 297 c 128,-1,17
 118 281 118 281 102 253 c 128,-1,18
 86 225 86 225 86 192 c 0,19,20
 86 142 86 142 121 106.5 c 128,-1,21
 156 71 156 71 205 71 c 0,22,23
 255 71 255 71 282 98 c 128,-1,24
 309 125 309 125 314 153 c 1,25,-1
 205 153 l 1,26,-1
 205 220 l 1,27,-1
 386 220 l 1,0,1
571 213 m 1,28,-1
 627 213 l 1,29,-1
 627 157 l 1,30,-1
 571 157 l 1,31,-1
 571 101 l 1,32,-1
 515 101 l 1,33,-1
 515 157 l 1,34,-1
 460 157 l 1,35,-1
 460 213 l 1,36,-1
 515 213 l 1,37,-1
 515 269 l 1,38,-1
 571 269 l 1,39,-1
 571 213 l 1,28,-1
EndSplineSet
Validated: 513
EndChar

StartChar: github-alt
Encoding: 61715 61715 12
Width: 480
GlyphClass: 3
Flags: W
LayerCount: 2
Fore
SplineSet
186 119 m 128,-1,1
 186 100 186 100 176.5 82 c 128,-1,2
 167 64 167 64 149 64 c 0,3,4
 137 64 137 64 128.5 74 c 128,-1,5
 120 84 120 84 116.5 96 c 128,-1,6
 113 108 113 108 113 119 c 0,7,8
 113 138 113 138 122.5 156 c 128,-1,9
 132 174 132 174 149.5 174 c 128,-1,10
 167 174 167 174 176.5 156 c 128,-1,0
 186 138 186 138 186 119 c 128,-1,1
480 170 m 0,11,12
 480 111 480 111 462 75 c 0,13,14
 453 56 453 56 439.5 42.5 c 128,-1,15
 426 29 426 29 405.5 21 c 128,-1,16
 385 13 385 13 369 8.5 c 128,-1,17
 353 4 353 4 325.5 2.5 c 128,-1,18
 298 1 298 1 286 0.5 c 128,-1,19
 274 0 274 0 246 0 c 256,20,21
 218 0 218 0 210.5 0 c 128,-1,22
 203 0 203 0 176 1.5 c 128,-1,23
 149 3 149 3 137 5 c 128,-1,24
 125 7 125 7 102.5 12.5 c 128,-1,25
 80 18 80 18 68 26 c 128,-1,26
 56 34 56 34 42 46.5 c 128,-1,27
 28 59 28 59 20 75 c 0,28,29
 0 115 0 115 0 170 c 0,30,31
 0 235 0 235 42 283 c 1,32,33
 34 307 34 307 34 332 c 0,34,35
 34 355 34 355 48 384 c 1,36,37
 83 384 83 384 107.5 376 c 128,-1,38
 132 368 132 368 157 348 c 1,39,40
 199 358 199 358 246 358 c 0,41,42
 288 358 288 358 326 349 c 1,43,44
 351 369 351 369 375.5 376.5 c 128,-1,45
 400 384 400 384 434 384 c 1,46,47
 449 355 449 355 449 332 c 0,48,49
 449 307 449 307 441 284 c 1,50,51
 480 238 480 238 480 170 c 0,11,12
416 119 m 0,52,53
 416 154 416 154 396 178 c 128,-1,54
 376 202 376 202 342 202 c 0,55,56
 330 202 330 202 286 196 c 0,57,58
 265 193 265 193 241 193 c 128,-1,59
 217 193 217 193 196 196 c 0,60,61
 153 202 153 202 140 202 c 0,62,63
 106 202 106 202 86 178 c 128,-1,64
 66 154 66 154 66 119 c 0,65,66
 66 94 66 94 75.5 75 c 128,-1,67
 85 56 85 56 99 45.5 c 128,-1,68
 113 35 113 35 134 28.5 c 128,-1,69
 155 22 155 22 174 20 c 128,-1,70
 193 18 193 18 217 18 c 2,71,-1
 265 18 l 2,72,73
 295 18 295 18 319 21.5 c 128,-1,74
 343 25 343 25 366.5 35 c 128,-1,75
 390 45 390 45 403 66.5 c 128,-1,76
 416 88 416 88 416 119 c 0,52,53
333.5 174 m 128,-1,78
 351 174 351 174 360.5 156 c 128,-1,79
 370 138 370 138 370 119 c 128,-1,80
 370 100 370 100 360.5 82 c 128,-1,81
 351 64 351 64 333.5 64 c 128,-1,82
 316 64 316 64 306 82 c 128,-1,83
 296 100 296 100 296 119 c 128,-1,84
 296 138 296 138 306 156 c 128,-1,77
 316 174 316 174 333.5 174 c 128,-1,78
EndSplineSet
Validated: 513
EndChar

StartChar: maxcdn
Encoding: 61750 61750 13
Width: 512
GlyphClass: 3
Flags: W
LayerCount: 2
Fore
SplineSet
461 5 m 1,0,-1
 364 5 l 1,1,-1
 416 248 l 2,2,3
 419 264 419 264 411 273.5 c 128,-1,4
 403 283 403 283 387 283 c 2,5,-1
 338 283 l 1,6,-1
 278 5 l 1,7,-1
 181 5 l 1,8,-1
 240 283 l 1,9,-1
 157 283 l 1,10,-1
 97 5 l 1,11,-1
 0 5 l 1,12,-1
 60 283 l 1,13,-1
 15 379 l 1,14,-1
 387 379 l 2,15,16
 449 379 449 379 485 334 c 0,17,18
 522 289 522 289 509 228 c 2,19,-1
 461 5 l 1,0,-1
EndSplineSet
Validated: 33
EndChar

StartChar: html5
Encoding: 61755 61755 14
Width: 384
GlyphClass: 3
Flags: W
LayerCount: 2
Fore
SplineSet
0 416 m 1,0,-1
 384 416 l 1,1,-1
 349 20 l 1,2,-1
 192 -32 l 1,3,-1
 35 20 l 1,4,-1
 0 416 l 1,0,-1
308 288 m 1,5,-1
 313 336 l 1,6,-1
 72 336 l 1,7,-1
 84 190 l 1,8,-1
 251 190 l 1,9,-1
 245 128 l 1,10,-1
 192 114 l 1,11,-1
 138 128 l 1,12,-1
 134 166 l 1,13,-1
 87 166 l 1,14,-1
 93 90 l 1,15,-1
 192 63 l 1,16,-1
 193 63 l 1,17,-1
 290 90 l 1,18,-1
 304 239 l 1,19,-1
 128 239 l 1,20,-1
 124 288 l 1,21,-1
 308 288 l 1,5,-1
EndSplineSet
Validated: 1
EndChar

StartChar: css3
Encoding: 61756 61756 15
Width: 512
GlyphClass: 3
Flags: W
LayerCount: 2
Fore
SplineSet
480 416 m 1,0,-1
 416 48 l 1,1,-1
 193 -32 l 1,2,-1
 0 48 l 1,3,-1
 20 143 l 1,4,-1
 102 143 l 1,5,-1
 94 102 l 1,6,-1
 210 58 l 1,7,-1
 344 102 l 1,8,-1
 363 199 l 1,9,-1
 30 199 l 1,10,-1
 46 281 l 1,11,-1
 379 281 l 1,12,-1
 390 334 l 1,13,-1
 56 334 l 1,14,-1
 73 416 l 1,15,-1
 480 416 l 1,0,-1
EndSplineSet
Validated: 1
EndChar

StartChar: btc
Encoding: 61786 61786 16
Width: 384
GlyphClass: 3
Flags: W
LayerCount: 2
Fore
SplineSet
310 205 m 1,0,1
 387 187 387 187 380 105 c 0,2,3
 374 52 374 52 338.5 30 c 128,-1,4
 303 8 303 8 237 4 c 1,5,-1
 237 -64 l 1,6,-1
 188 -64 l 1,7,-1
 188 3 l 1,8,9
 163 3 163 3 150 3 c 1,10,-1
 150 -64 l 1,11,-1
 101 -64 l 1,12,-1
 101 4 l 1,13,14
 92 4 92 4 4 4 c 1,15,-1
 14 62 l 2,16,17
 17 62 17 62 24 62 c 0,18,19
 41 61 41 61 47.5 61.5 c 128,-1,20
 54 62 54 62 60 66 c 128,-1,21
 66 70 66 70 67 78 c 2,22,-1
 67 295 l 2,23,24
 64 311 64 311 52.5 314.5 c 128,-1,25
 41 318 41 318 12 317 c 0,26,27
 7 317 7 317 4 317 c 1,28,-1
 4 369 l 1,29,30
 88 368 88 368 101 369 c 1,31,-1
 101 448 l 1,32,-1
 150 448 l 1,33,-1
 150 370 l 1,34,35
 175 371 175 371 188 371 c 1,36,-1
 188 448 l 1,37,-1
 237 448 l 1,38,-1
 237 369 l 1,39,40
 256 367 256 367 272 363.5 c 128,-1,41
 288 360 288 360 302.5 354 c 128,-1,42
 317 348 317 348 327 339 c 128,-1,43
 337 330 337 330 343.5 316.5 c 128,-1,44
 350 303 350 303 351 287 c 0,45,46
 357 229 357 229 310 205 c 1,0,1
151 313 m 1,47,-1
 151 217 l 1,48,49
 152 217 152 217 161.5 216.5 c 128,-1,50
 171 216 171 216 176 216.5 c 128,-1,51
 181 217 181 217 191.5 217 c 128,-1,52
 202 217 202 217 209 218.5 c 128,-1,53
 216 220 216 220 225.5 222 c 128,-1,54
 235 224 235 224 241 228 c 128,-1,55
 247 232 247 232 252.5 237 c 128,-1,56
 258 242 258 242 261 249 c 128,-1,57
 264 256 264 256 264 265 c 0,58,59
 264 277 264 277 259.5 285.5 c 128,-1,60
 255 294 255 294 246 299.5 c 128,-1,61
 237 305 237 305 228.5 308 c 128,-1,62
 220 311 220 311 206.5 312 c 128,-1,63
 193 313 193 313 185.5 313.5 c 128,-1,64
 178 314 178 314 165 313.5 c 128,-1,65
 152 313 152 313 151 313 c 1,47,-1
151 62 m 1,66,67
 152 62 152 62 163.5 61.5 c 128,-1,68
 175 61 175 61 181 61.5 c 128,-1,69
 187 62 187 62 199.5 62.5 c 128,-1,70
 212 63 212 63 220 64.5 c 128,-1,71
 228 66 228 66 239 68 c 128,-1,72
 250 70 250 70 257 74.5 c 128,-1,73
 264 79 264 79 270.5 84 c 128,-1,74
 277 89 277 89 280.5 97 c 128,-1,75
 284 105 284 105 284 115 c 0,76,77
 284 128 284 128 278.5 137.5 c 128,-1,78
 273 147 273 147 262.5 152.5 c 128,-1,79
 252 158 252 158 242.5 162 c 128,-1,80
 233 166 233 166 216.5 167 c 128,-1,81
 200 168 200 168 192 168.5 c 128,-1,82
 184 169 184 169 168 168.5 c 128,-1,83
 152 168 152 168 151 168 c 1,84,-1
 151 62 l 1,66,67
EndSplineSet
Validated: 33
EndChar

StartChar: youtube
Encoding: 61799 61799 17
Width: 576
GlyphClass: 3
Flags: W
LayerCount: 2
Fore
SplineSet
550 324 m 0,0,1
 553 312 553 312 555.5 294 c 128,-1,2
 558 276 558 276 559 258.5 c 128,-1,3
 560 241 560 241 560.5 226 c 128,-1,4
 561 211 561 211 561 201 c 2,5,-1
 561 192 l 2,6,7
 561 102 561 102 550 59 c 0,8,9
 545 42 545 42 532 29 c 128,-1,10
 519 16 519 16 501 11 c 0,11,12
 482 6 482 6 429 3.5 c 128,-1,13
 376 1 376 1 332 0 c 2,14,-1
 288 0 l 2,15,16
 117 0 117 0 75 11 c 0,17,18
 36 22 36 22 26 59 c 0,19,20
 21 78 21 78 18.5 111.5 c 128,-1,21
 16 145 16 145 15 168 c 2,22,-1
 15 192 l 2,23,24
 15 281 15 281 26 324 c 0,25,26
 31 342 31 342 44 355 c 128,-1,27
 57 368 57 368 75 373 c 0,28,29
 94 378 94 378 147 380.5 c 128,-1,30
 200 383 200 383 244 384 c 2,31,-1
 288 384 l 2,32,33
 459 384 459 384 501 373 c 0,34,35
 519 368 519 368 532 355 c 128,-1,36
 545 342 545 342 550 324 c 0,0,1
232 110 m 1,37,-1
 375 192 l 1,38,-1
 232 273 l 1,39,-1
 232 110 l 1,37,-1
EndSplineSet
Validated: 1
EndChar

StartChar: xing
Encoding: 61800 61800 18
Width: 384
GlyphClass: 3
Flags: W
LayerCount: 2
Fore
SplineSet
163 238 m 1,0,1
 163 238 163 238 93 114 c 0,2,3
 85 102 85 102 75 102 c 2,4,-1
 10 102 l 2,5,6
 4 102 4 102 1.5 106.5 c 128,-1,7
 -1 111 -1 111 1 116 c 2,8,-1
 70 238 l 1,9,-1
 26 314 l 2,10,11
 23 319 23 319 26 323.5 c 128,-1,12
 29 328 29 328 35 328 c 2,13,-1
 100 328 l 2,14,15
 111 328 111 328 118 316 c 2,16,-1
 163 238 l 1,0,1
383 402 m 2,17,-1
 239 149 l 1,18,-1
 330 -18 l 2,19,20
 333 -23 333 -23 330.5 -27.5 c 128,-1,21
 328 -32 328 -32 322 -32 c 2,22,-1
 256 -32 l 2,23,24
 245 -32 245 -32 238 -20 c 2,25,-1
 146 149 l 2,26,27
 147 151 147 151 162.5 178 c 128,-1,28
 178 205 178 205 214 268.5 c 128,-1,29
 250 332 250 332 291 404 c 0,30,31
 298 416 298 416 308 416 c 2,32,-1
 374 416 l 2,33,34
 380 416 380 416 382.5 411.5 c 128,-1,35
 385 407 385 407 383 402 c 2,17,-1
EndSplineSet
Validated: 1
EndChar

StartChar: xing-square
Encoding: 61801 61801 19
Width: 448
GlyphClass: 3
Flags: W
LayerCount: 2
Fore
SplineSet
400 416 m 2,0,1
 420 416 420 416 434 402 c 128,-1,2
 448 388 448 388 448 368 c 2,3,-1
 448 16 l 2,4,5
 448 -4 448 -4 434 -18 c 128,-1,6
 420 -32 420 -32 400 -32 c 2,7,-1
 48 -32 l 2,8,9
 28 -32 28 -32 14 -18 c 128,-1,10
 0 -4 0 -4 0 16 c 2,11,-1
 0 368 l 2,12,13
 0 388 0 388 14 402 c 128,-1,14
 28 416 28 416 48 416 c 2,15,-1
 400 416 l 2,0,1
140 128 m 2,16,17
 148 128 148 128 153 137 c 0,18,19
 201 222 201 222 203 225 c 2,20,-1
 171 280 l 2,21,22
 166 289 166 289 158 289 c 2,23,-1
 112 289 l 2,24,25
 107 289 107 289 105.5 286 c 128,-1,26
 104 283 104 283 106 279 c 2,27,-1
 137 225 l 1,28,-1
 88 138 l 2,29,30
 86 134 86 134 88 131 c 128,-1,31
 90 128 90 128 94 128 c 2,32,-1
 140 128 l 2,16,17
360 342 m 2,33,34
 362 346 362 346 360 349 c 128,-1,35
 358 352 358 352 354 352 c 2,36,-1
 307 352 l 2,37,38
 300 352 300 352 295 343 c 0,39,40
 193 164 193 164 191 161 c 2,41,-1
 257 41 l 2,42,43
 262 32 262 32 270 32 c 2,44,-1
 317 32 l 2,45,46
 321 32 321 32 323 35 c 128,-1,47
 325 38 325 38 323 42 c 2,48,-1
 257 161 l 1,49,-1
 360 342 l 2,33,34
EndSplineSet
Validated: 513
EndChar

StartChar: stack-overflow
Encoding: 61804 61804 20
Width: 384
GlyphClass: 3
Flags: W
LayerCount: 2
Fore
SplineSet
291 137 m 1,0,-1
 282 98 l 1,1,-1
 87 139 l 1,2,-1
 95 178 l 1,3,-1
 291 137 l 1,0,-1
342 224 m 1,4,-1
 316 193 l 1,5,-1
 163 322 l 1,6,-1
 188 352 l 1,7,-1
 342 224 l 1,4,-1
310 184 m 1,8,-1
 294 148 l 1,9,-1
 112 232 l 1,10,-1
 129 269 l 1,11,-1
 310 184 l 1,8,-1
262 416 m 1,12,-1
 381 256 l 1,13,-1
 349 232 l 1,14,-1
 230 392 l 1,15,-1
 262 416 l 1,12,-1
282 88 m 1,16,-1
 282 48 l 1,17,-1
 82 48 l 1,18,-1
 82 88 l 1,19,-1
 282 88 l 1,16,-1
322 8 m 1,20,-1
 322 128 l 1,21,-1
 362 128 l 1,22,-1
 362 -32 l 1,23,-1
 3 -32 l 1,24,-1
 3 128 l 1,25,-1
 43 128 l 1,26,-1
 43 8 l 1,27,-1
 322 8 l 1,20,-1
EndSplineSet
Validated: 513
EndChar

StartChar: instagram
Encoding: 61805 61805 21
Width: 448
GlyphClass: 3
Flags: W
LayerCount: 2
Fore
SplineSet
224 307 m 128,-1,1
 272 307 272 307 305.5 273.5 c 128,-1,2
 339 240 339 240 339 192 c 128,-1,3
 339 144 339 144 305.5 110.5 c 128,-1,4
 272 77 272 77 224 77 c 128,-1,5
 176 77 176 77 142.5 110.5 c 128,-1,6
 109 144 109 144 109 192 c 128,-1,7
 109 240 109 240 142.5 273.5 c 128,-1,0
 176 307 176 307 224 307 c 128,-1,1
224 117 m 128,-1,9
 255 117 255 117 277 139 c 128,-1,10
 299 161 299 161 299 192 c 128,-1,11
 299 223 299 223 277 245 c 128,-1,12
 255 267 255 267 224 267 c 128,-1,13
 193 267 193 267 171 245 c 128,-1,14
 149 223 149 223 149 192 c 128,-1,15
 149 161 149 161 171 139 c 128,-1,8
 193 117 193 117 224 117 c 128,-1,9
370 312 m 128,-1,17
 370 301 370 301 362.5 293 c 128,-1,18
 355 285 355 285 344 285 c 128,-1,19
 333 285 333 285 325 293 c 128,-1,20
 317 301 317 301 317 312 c 128,-1,21
 317 323 317 323 325 330.5 c 128,-1,22
 333 338 333 338 344 338 c 128,-1,23
 355 338 355 338 362.5 330.5 c 128,-1,16
 370 323 370 323 370 312 c 128,-1,17
447 284 m 0,24,25
 448 257 448 257 448 192 c 128,-1,26
 448 127 448 127 447 100 c 0,27,28
 444 39 444 39 410.5 5.5 c 128,-1,29
 377 -28 377 -28 316 -30 c 0,30,31
 289 -32 289 -32 224 -32 c 128,-1,32
 159 -32 159 -32 132 -30 c 0,33,34
 71 -27 71 -27 38 6 c 0,35,36
 25 18 25 18 17 34 c 128,-1,37
 9 50 9 50 5.5 65 c 128,-1,38
 2 80 2 80 2 100 c 0,39,40
 0 127 0 127 0 192 c 128,-1,41
 0 257 0 257 2 285 c 0,42,43
 5 345 5 345 38 378 c 0,44,45
 71 412 71 412 132 415 c 0,46,47
 159 416 159 416 224 416 c 128,-1,48
 289 416 289 416 316 415 c 0,49,50
 377 412 377 412 410.5 378.5 c 128,-1,51
 444 345 444 345 447 284 c 0,24,25
399 60 m 0,52,53
 402 68 402 68 404 80.5 c 128,-1,54
 406 93 406 93 407 110.5 c 128,-1,55
 408 128 408 128 408 139 c 128,-1,56
 408 150 408 150 408 170 c 128,-1,57
 408 190 408 190 408 192.5 c 128,-1,58
 408 195 408 195 408 214.5 c 128,-1,59
 408 234 408 234 408 245 c 128,-1,60
 408 256 408 256 407 273.5 c 128,-1,61
 406 291 406 291 404 303.5 c 128,-1,62
 402 316 402 316 399 324 c 0,63,64
 387 355 387 355 356 367 c 0,65,66
 348 370 348 370 335.5 372 c 128,-1,67
 323 374 323 374 305.5 375 c 128,-1,68
 288 376 288 376 277.5 376 c 128,-1,69
 267 376 267 376 246.5 376 c 128,-1,70
 226 376 226 376 224 376 c 256,71,72
 222 376 222 376 202 376 c 128,-1,73
 182 376 182 376 171 376 c 128,-1,74
 160 376 160 376 142.5 375 c 128,-1,75
 125 374 125 374 112.5 372 c 128,-1,76
 100 370 100 370 92 367 c 0,77,78
 61 355 61 355 49 324 c 0,79,80
 46 316 46 316 44 303.5 c 128,-1,81
 42 291 42 291 41 273.5 c 128,-1,82
 40 256 40 256 40 245.5 c 128,-1,83
 40 235 40 235 40 214.5 c 128,-1,84
 40 194 40 194 40 192 c 0,85,86
 40 188 40 188 40 173.5 c 128,-1,87
 40 159 40 159 40 149.5 c 128,-1,88
 40 140 40 140 40.5 125 c 128,-1,89
 41 110 41 110 42 99.5 c 128,-1,90
 43 89 43 89 45 78 c 128,-1,91
 47 67 47 67 49 60 c 0,92,93
 62 29 62 29 92 17 c 0,94,95
 100 14 100 14 112.5 12 c 128,-1,96
 125 10 125 10 142.5 9 c 128,-1,97
 160 8 160 8 170.5 8 c 128,-1,98
 181 8 181 8 201.5 8 c 128,-1,99
 222 8 222 8 224 8 c 0,100,101
 227 8 227 8 246.5 8 c 128,-1,102
 266 8 266 8 277 8 c 128,-1,103
 288 8 288 8 305.5 9 c 128,-1,104
 323 10 323 10 335.5 12 c 128,-1,105
 348 14 348 14 356 17 c 0,106,107
 387 30 387 30 399 60 c 0,52,53
EndSplineSet
Validated: 1
EndChar

StartChar: flickr
Encoding: 61806 61806 22
Width: 448
GlyphClass: 3
Flags: W
LayerCount: 2
Fore
SplineSet
400 416 m 2,0,1
 420 416 420 416 434 402 c 128,-1,2
 448 388 448 388 448 368 c 2,3,-1
 448 16 l 2,4,5
 448 -4 448 -4 434 -18 c 128,-1,6
 420 -32 420 -32 400 -32 c 2,7,-1
 48 -32 l 2,8,9
 28 -32 28 -32 14 -18 c 128,-1,10
 0 -4 0 -4 0 16 c 2,11,-1
 0 368 l 2,12,13
 0 388 0 388 14 402 c 128,-1,14
 28 416 28 416 48 416 c 2,15,-1
 400 416 l 2,0,1
144.5 129 m 128,-1,17
 171 129 171 129 189.5 147.5 c 128,-1,18
 208 166 208 166 208 192.5 c 128,-1,19
 208 219 208 219 189.5 237.5 c 128,-1,20
 171 256 171 256 144.5 256 c 128,-1,21
 118 256 118 256 99.5 237.5 c 128,-1,22
 81 219 81 219 81 192.5 c 128,-1,23
 81 166 81 166 99.5 147.5 c 128,-1,16
 118 129 118 129 144.5 129 c 128,-1,17
303.5 129 m 128,-1,25
 330 129 330 129 348.5 147.5 c 128,-1,26
 367 166 367 166 367 192.5 c 128,-1,27
 367 219 367 219 348.5 237.5 c 128,-1,28
 330 256 330 256 303.5 256 c 128,-1,29
 277 256 277 256 258.5 237.5 c 128,-1,30
 240 219 240 219 240 192.5 c 128,-1,31
 240 166 240 166 258.5 147.5 c 128,-1,24
 277 129 277 129 303.5 129 c 128,-1,25
EndSplineSet
Validated: 1
EndChar

StartChar: adn
Encoding: 61808 61808 23
Width: 496
GlyphClass: 3
Flags: W
LayerCount: 2
Fore
SplineSet
248 280 m 1,0,-1
 313 182 l 1,1,-1
 183 182 l 1,2,-1
 248 280 l 1,0,-1
496 192 m 128,-1,4
 496 89 496 89 423.5 16.5 c 128,-1,5
 351 -56 351 -56 248 -56 c 128,-1,6
 145 -56 145 -56 72.5 16.5 c 128,-1,7
 0 89 0 89 0 192 c 128,-1,8
 0 295 0 295 72.5 367.5 c 128,-1,9
 145 440 145 440 248 440 c 128,-1,10
 351 440 351 440 423.5 367.5 c 128,-1,3
 496 295 496 295 496 192 c 128,-1,4
396 109 m 1,11,-1
 248 332 l 1,12,-1
 100 109 l 1,13,-1
 130 109 l 1,14,-1
 164 161 l 1,15,-1
 332 161 l 1,16,-1
 366 109 l 1,17,-1
 396 109 l 1,11,-1
EndSplineSet
Validated: 1
EndChar

StartChar: tumblr
Encoding: 61811 61811 24
Width: 320
GlyphClass: 3
Flags: W
LayerCount: 2
Fore
SplineSet
310 -32 m 0,0,1
 298 -45 298 -45 271.5 -54.5 c 128,-1,2
 245 -64 245 -64 212 -64 c 0,3,4
 170 -64 170 -64 139 -50 c 128,-1,5
 108 -36 108 -36 93 -13 c 128,-1,6
 78 10 78 10 71.5 32 c 128,-1,7
 65 54 65 54 65 77 c 2,8,-1
 65 221 l 1,9,-1
 18 221 l 2,10,11
 8 221 8 221 8 231 c 2,12,-1
 8 299 l 2,13,14
 8 311 8 311 19 315 c 0,15,16
 61 329 61 329 81 362 c 128,-1,17
 101 395 101 395 104 432 c 0,18,19
 105 448 105 448 120 448 c 2,20,-1
 190 448 l 2,21,22
 200 448 200 448 200 438 c 2,23,-1
 200 323 l 1,24,-1
 284 323 l 2,25,26
 294 323 294 323 294 313 c 2,27,-1
 294 231 l 2,28,29
 294 221 294 221 284 221 c 2,30,-1
 200 221 l 1,31,-1
 200 88 l 2,32,33
 200 61 200 61 217.5 50.5 c 128,-1,34
 235 40 235 40 268 52 c 0,35,36
 277 56 277 56 281 54 c 0,37,38
 286 53 286 53 288 46 c 2,39,-1
 310 -18 l 2,40,41
 314 -28 314 -28 310 -32 c 0,0,1
EndSplineSet
Validated: 33
EndChar

StartChar: tumblr-square
Encoding: 61812 61812 25
Width: 448
GlyphClass: 3
Flags: W
LayerCount: 2
Fore
SplineSet
400 416 m 2,0,1
 420 416 420 416 434 402 c 128,-1,2
 448 388 448 388 448 368 c 2,3,-1
 448 16 l 2,4,5
 448 -4 448 -4 434 -18 c 128,-1,6
 420 -32 420 -32 400 -32 c 2,7,-1
 48 -32 l 2,8,9
 28 -32 28 -32 14 -18 c 128,-1,10
 0 -4 0 -4 0 16 c 2,11,-1
 0 368 l 2,12,13
 0 388 0 388 14 402 c 128,-1,14
 28 416 28 416 48 416 c 2,15,-1
 400 416 l 2,0,1
318 52 m 0,16,17
 320 54 320 54 318 61 c 2,18,-1
 304 101 l 2,19,20
 303 105 303 105 300 106 c 256,21,22
 297 107 297 107 292 105 c 0,23,24
 271 97 271 97 260 103.5 c 128,-1,25
 249 110 249 110 249 127 c 2,26,-1
 249 210 l 1,27,-1
 301 210 l 2,28,29
 307 210 307 210 307 216 c 2,30,-1
 307 268 l 2,31,32
 307 274 307 274 301 274 c 2,33,-1
 249 274 l 1,34,-1
 249 346 l 2,35,36
 249 352 249 352 243 352 c 2,37,-1
 199 352 l 2,38,39
 190 352 190 352 189 342 c 0,40,41
 185 286 185 286 136 269 c 0,42,43
 129 266 129 266 129 259 c 2,44,-1
 129 216 l 2,45,46
 129 210 129 210 135 210 c 2,47,-1
 165 210 l 1,48,-1
 165 120 l 2,49,50
 165 106 165 106 169 92 c 128,-1,51
 173 78 173 78 182.5 64 c 128,-1,52
 192 50 192 50 211 41 c 128,-1,53
 230 32 230 32 257 32 c 0,54,55
 299 32 299 32 318 52 c 0,16,17
EndSplineSet
Validated: 545
EndChar

StartChar: windows
Encoding: 61818 61818 26
Width: 448
GlyphClass: 3
Flags: W
LayerCount: 2
Fore
SplineSet
0 354 m 1,0,-1
 184 380 l 1,1,-1
 184 202 l 1,2,-1
 0 202 l 1,3,-1
 0 354 l 1,0,-1
0 30 m 1,4,-1
 0 180 l 1,5,-1
 184 180 l 1,6,-1
 184 4 l 1,7,-1
 0 30 l 1,4,-1
204 2 m 1,8,-1
 204 180 l 1,9,-1
 448 180 l 1,10,-1
 448 -32 l 1,11,-1
 204 2 l 1,8,-1
204 382 m 1,12,-1
 448 416 l 1,13,-1
 448 202 l 1,14,-1
 204 202 l 1,15,-1
 204 382 l 1,12,-1
EndSplineSet
Validated: 1
EndChar

StartChar: android
Encoding: 61819 61819 27
Width: 448
GlyphClass: 3
Flags: W
LayerCount: 2
Fore
SplineSet
90 244 m 2,0,-1
 90 128 l 2,1,2
 90 116 90 116 82 108 c 128,-1,3
 74 100 74 100 62 100 c 128,-1,4
 50 100 50 100 41 108 c 128,-1,5
 32 116 32 116 32 128 c 2,6,-1
 32 244 l 2,7,8
 32 255 32 255 41 263 c 128,-1,9
 50 271 50 271 62 271 c 0,10,11
 73 271 73 271 81.5 263 c 128,-1,12
 90 255 90 255 90 244 c 2,0,-1
100 86 m 2,13,-1
 100 266 l 1,14,-1
 348 266 l 1,15,-1
 348 86 l 2,16,17
 348 74 348 74 339 65.5 c 128,-1,18
 330 57 330 57 318 57 c 2,19,-1
 298 57 l 1,20,-1
 298 -4 l 2,21,22
 298 -22 298 -22 284 -29 c 128,-1,23
 270 -36 270 -36 256.5 -29 c 128,-1,24
 243 -22 243 -22 243 -4 c 2,25,-1
 243 57 l 1,26,-1
 205 57 l 1,27,-1
 205 -4 l 2,28,29
 205 -21 205 -21 191.5 -28.5 c 128,-1,30
 178 -36 178 -36 164 -29 c 128,-1,31
 150 -22 150 -22 150 -4 c 2,32,-1
 150 57 l 1,33,-1
 130 57 l 2,34,35
 118 57 118 57 109 65.5 c 128,-1,36
 100 74 100 74 100 86 c 2,13,-1
348 276 m 1,37,-1
 99 276 l 1,38,39
 99 288 99 288 102 300.5 c 128,-1,40
 105 313 105 313 110.5 323.5 c 128,-1,41
 116 334 116 334 124 344 c 128,-1,42
 132 354 132 354 142 361.5 c 128,-1,43
 152 369 152 369 163 375 c 1,44,-1
 144 410 l 2,45,46
 141 414 141 414 146 416 c 1,47,-1
 150 414 l 1,48,-1
 170 378 l 1,49,50
 224 402 224 402 278 378 c 1,51,-1
 298 414 l 2,52,53
 300 418 300 418 303 415 c 0,54,55
 305 413 305 413 304 410 c 2,56,-1
 285 375 l 1,57,58
 314 360 314 360 331 333.5 c 128,-1,59
 348 307 348 307 348 276 c 1,37,-1
178 331 m 128,-1,61
 178 335 178 335 175 338.5 c 128,-1,62
 172 342 172 342 167.5 342 c 128,-1,63
 163 342 163 342 160 338.5 c 128,-1,64
 157 335 157 335 157 331 c 128,-1,65
 157 327 157 327 160 324 c 128,-1,66
 163 321 163 321 167 321 c 0,67,68
 172 321 172 321 175 324 c 128,-1,60
 178 327 178 327 178 331 c 128,-1,61
291 331 m 128,-1,70
 291 335 291 335 288 338.5 c 128,-1,71
 285 342 285 342 281 342 c 256,72,73
 277 342 277 342 273.5 338.5 c 128,-1,74
 270 335 270 335 270 331 c 0,75,76
 270 328 270 328 271.5 325.5 c 128,-1,77
 273 323 273 323 275.5 322 c 128,-1,78
 278 321 278 321 281 321 c 0,79,80
 285 321 285 321 288 324 c 128,-1,69
 291 327 291 327 291 331 c 128,-1,70
386 271 m 0,81,82
 394 271 394 271 400.5 267.5 c 128,-1,83
 407 264 407 264 411.5 257.5 c 128,-1,84
 416 251 416 251 416 244 c 2,85,-1
 416 128 l 2,86,87
 416 116 416 116 407 108 c 128,-1,88
 398 100 398 100 386 100 c 0,89,90
 375 100 375 100 366.5 108 c 128,-1,91
 358 116 358 116 358 128 c 2,92,-1
 358 244 l 2,93,94
 358 255 358 255 366.5 263 c 128,-1,95
 375 271 375 271 386 271 c 0,81,82
EndSplineSet
Validated: 33
EndChar

StartChar: linux
Encoding: 61820 61820 28
Width: 448
GlyphClass: 3
Flags: W
LayerCount: 2
Fore
SplineSet
221 325 m 1,0,-1
 219 325 l 1,1,-1
 217 326 l 2,2,3
 217 327 217 327 218 328 c 0,4,5
 220 329 220 329 224 327 c 0,6,7
 227 326 227 326 227 324.5 c 128,-1,8
 227 323 227 323 224 323 c 0,9,10
 223 323 223 323 222 324 c 128,-1,11
 221 325 221 325 221 325 c 1,0,-1
199 323 m 0,12,13
 196 323 196 323 196 324 c 0,14,15
 196 326 196 326 199 327 c 0,16,17
 203 329 203 329 205 327 c 0,18,19
 206 327 206 327 205.5 326.5 c 128,-1,20
 205 326 205 326 203 325 c 0,21,22
 202 325 202 325 202 325 c 257,23,24
 202 325 202 325 201 324 c 128,-1,25
 200 323 200 323 199 323 c 0,12,13
420 44 m 0,26,27
 436 26 436 26 436 14 c 0,28,29
 435 4 435 4 422 -4 c 0,30,31
 417 -6 417 -6 405.5 -11.5 c 128,-1,32
 394 -17 394 -17 385.5 -23 c 128,-1,33
 377 -29 377 -29 371 -36 c 0,34,35
 349 -62 349 -62 322 -64 c 256,36,37
 295 -66 295 -66 282 -41 c 0,38,39
 281 -38 281 -38 280 -34 c 1,40,41
 268 -35 268 -35 249.5 -32 c 128,-1,42
 231 -29 231 -29 224 -30 c 0,43,44
 217 -30 217 -30 209.5 -31.5 c 128,-1,45
 202 -33 202 -33 197 -34 c 128,-1,46
 192 -35 192 -35 186 -36 c 128,-1,47
 180 -37 180 -37 176 -37 c 0,48,49
 169 -53 169 -53 150 -57 c 0,50,51
 125 -63 125 -63 94 -46 c 0,52,53
 86 -42 86 -42 75.5 -40 c 128,-1,54
 65 -38 65 -38 53 -36.5 c 128,-1,55
 41 -35 41 -35 35 -34 c 0,56,57
 20 -31 20 -31 15 -22 c 0,58,59
 10 -11 10 -11 17 10 c 0,60,61
 19 15 19 15 16 31 c 0,62,63
 15 39 15 39 15 43 c 0,64,65
 15 50 15 50 18 55 c 0,66,67
 23 65 23 65 36 70 c 0,68,69
 50 75 50 75 54 78 c 0,70,71
 55 80 55 80 60.5 87.5 c 128,-1,72
 66 95 66 95 70 98 c 1,73,74
 66 122 66 122 76 151 c 0,75,76
 91 197 91 197 134 248 c 0,77,78
 154 276 154 276 157 313 c 0,79,80
 157 318 157 318 156 334 c 128,-1,81
 155 350 155 350 154.5 362.5 c 128,-1,82
 154 375 154 375 158 392 c 128,-1,83
 162 409 162 409 169.5 420.5 c 128,-1,84
 177 432 177 432 193.5 440 c 128,-1,85
 210 448 210 448 235 448 c 0,86,87
 258 448 258 448 274 438.5 c 128,-1,88
 290 429 290 429 296.5 414.5 c 128,-1,89
 303 400 303 400 307 382.5 c 128,-1,90
 311 365 311 365 310.5 348 c 128,-1,91
 310 331 310 331 311 317 c 0,92,93
 310 303 310 303 316 289 c 128,-1,94
 322 275 322 275 327 267 c 128,-1,95
 332 259 332 259 344 245 c 0,96,97
 377 205 377 205 390 170 c 0,98,99
 407 128 407 128 394 91 c 0,100,101
 396 90 396 90 398 89 c 256,102,103
 400 88 400 88 402 86 c 0,104,105
 409 81 409 81 413 64 c 0,106,107
 417 48 417 48 420 44 c 0,26,27
224 361 m 0,108,109
 219 350 219 350 221 339 c 1,110,111
 229 337 229 337 234 334 c 1,112,113
 232 343 232 343 236 350.5 c 128,-1,114
 240 358 240 358 246 358 c 0,115,116
 252 357 252 357 255 348 c 128,-1,117
 258 339 258 339 255 330 c 0,118,119
 254 330 254 330 251 326 c 1,120,121
 260 323 260 323 263 321 c 0,122,123
 278 338 278 338 268 361 c 0,124,125
 260 377 260 377 245.5 377 c 128,-1,126
 231 377 231 377 224 361 c 0,108,109
183 372 m 0,127,128
 169 372 169 372 166 351.5 c 128,-1,129
 163 331 163 331 175 320 c 1,130,131
 181 325 181 325 181 325 c 129,-1,132
 181 325 181 325 180 326 c 0,133,134
 175 331 175 331 175.5 342 c 128,-1,135
 176 353 176 353 182 354 c 0,136,137
 185 354 185 354 187.5 351 c 128,-1,138
 190 348 190 348 191 343.5 c 128,-1,139
 192 339 192 339 192 334 c 1,140,141
 196 337 196 337 202 339 c 1,142,143
 203 353 203 353 197 362.5 c 128,-1,144
 191 372 191 372 183 372 c 0,127,128
169 312 m 0,145,146
 163 307 163 307 165 299 c 0,147,148
 168 291 168 291 180 284 c 0,149,150
 183 282 183 282 189.5 276.5 c 128,-1,151
 196 271 196 271 200 269 c 128,-1,152
 204 267 204 267 210 267 c 0,153,154
 220 266 220 266 233 273.5 c 128,-1,155
 246 281 246 281 248 282 c 0,156,157
 266 287 266 287 270 300 c 0,158,159
 275 312 275 312 260 318 c 0,160,161
 256 320 256 320 248.5 322.5 c 128,-1,162
 241 325 241 325 237 327 c 0,163,164
 223 336 223 336 211 336 c 256,165,166
 199 336 199 336 184 322 c 0,167,168
 183 322 183 322 169 312 c 0,145,146
173 -22 m 0,169,170
 174 -11 174 -11 154 15.5 c 128,-1,171
 134 42 134 42 132 46 c 2,172,-1
 112 82 l 2,173,174
 102 96 102 96 90 98 c 0,175,176
 80 100 80 100 72 91 c 0,177,178
 70 89 70 89 65.5 82.5 c 128,-1,179
 61 76 61 76 58 73 c 0,180,181
 52 68 52 68 39 63 c 0,182,183
 28 59 28 59 24 52 c 0,184,185
 21 46 21 46 23 32 c 0,186,187
 26 14 26 14 24 8 c 0,188,189
 17 -11 17 -11 21 -19 c 0,190,191
 24 -25 24 -25 36.5 -27 c 128,-1,192
 49 -29 49 -29 67 -31.5 c 128,-1,193
 85 -34 85 -34 97 -40 c 0,194,195
 121 -55 121 -55 146 -51 c 128,-1,196
 171 -47 171 -47 173 -22 c 0,169,170
171 3 m 1,197,198
 202 -14 202 -14 230.5 -11 c 128,-1,199
 259 -8 259 -8 286 11 c 1,200,201
 292 32 292 32 292 40 c 0,202,203
 294 68 294 68 297 80 c 0,204,205
 302 101 302 101 318 107 c 1,206,207
 321 135 321 135 356 119 c 0,208,209
 384 107 384 107 379 93 c 1,210,-1
 384 93 l 1,211,212
 390 113 390 113 353 128 c 1,213,214
 357 145 357 145 352 164 c 0,215,216
 344 199 344 199 317 223 c 0,217,218
 313 223 313 223 320 216 c 0,219,220
 333 204 333 204 342.5 179.5 c 128,-1,221
 352 155 352 155 343 131 c 1,222,223
 337 133 337 133 332 133 c 1,224,225
 327 164 327 164 309 197 c 0,226,227
 284 243 284 243 271 293 c 1,228,229
 264 283 264 283 249 278 c 0,230,231
 247 277 247 277 244.5 276 c 128,-1,232
 242 275 242 275 238.5 272.5 c 128,-1,233
 235 270 235 270 233 269 c 0,234,235
 209 255 209 255 191 270 c 0,236,237
 190 271 190 271 185.5 275 c 128,-1,238
 181 279 181 279 178 280 c 0,239,240
 176 282 176 282 172 285 c 1,241,242
 171 274 171 274 168.5 261.5 c 128,-1,243
 166 249 166 249 160.5 236 c 128,-1,244
 155 223 155 223 151 213 c 128,-1,245
 147 203 147 203 141 189.5 c 128,-1,246
 135 176 135 176 133 172 c 0,247,248
 120 141 120 141 119 110 c 1,249,250
 95 142 95 142 122 193 c 0,251,252
 134 215 134 215 130 214 c 0,253,254
 108 178 108 178 103 154 c 0,255,256
 98 135 98 135 103 119 c 0,257,258
 109 101 109 101 128 89 c 0,259,260
 153 75 153 75 166 57 c 0,261,262
 177 42 177 42 174 32 c 0,263,264
 170 23 170 23 157 23 c 1,265,266
 167 11 167 11 171 3 c 1,197,198
429 15 m 0,267,268
 429 24 429 24 415 40 c 0,269,270
 411 44 411 44 408.5 53 c 128,-1,271
 406 62 406 62 404 70 c 128,-1,272
 402 78 402 78 398 81 c 0,273,274
 391 87 391 87 375 86 c 1,275,276
 369 79 369 79 357.5 73.5 c 128,-1,277
 346 68 346 68 337 70 c 0,278,279
 320 74 320 74 318 99 c 0,280,281
 317 99 317 99 317 99 c 1,282,283
 307 94 307 94 303 78 c 0,284,285
 301 67 301 67 299 39 c 0,286,287
 299 36 299 36 289 -2 c 0,288,289
 283 -25 283 -25 288 -38 c 0,290,291
 299 -59 299 -59 322 -57 c 0,292,293
 346 -55 346 -55 366 -32 c 0,294,295
 375 -21 375 -21 391 -12.5 c 128,-1,296
 407 -4 407 -4 417.5 2 c 128,-1,297
 428 8 428 8 429 15 c 0,267,268
173 299 m 0,298,299
 169 303 169 303 172 306 c 0,300,301
 173 306 173 306 174.5 303.5 c 128,-1,302
 176 301 176 301 176 301 c 2,303,304
 181 296 181 296 184 294 c 0,305,306
 196 284 196 284 208 284 c 256,307,308
 220 284 220 284 238 294 c 0,309,310
 240 296 240 296 252 304 c 0,311,312
 254 305 254 305 255.5 307.5 c 128,-1,313
 257 310 257 310 258 309 c 0,314,315
 262 309 262 309 255 303 c 0,316,317
 248 296 248 296 240 292 c 0,318,319
 220 282 220 282 209 282 c 0,320,321
 195 282 195 282 181 292 c 0,322,323
 178 295 178 295 173 299 c 0,298,299
EndSplineSet
Validated: 33
EndChar

StartChar: dribbble
Encoding: 61821 61821 29
Width: 512
GlyphClass: 3
Flags: W
LayerCount: 2
Fore
SplineSet
256 440 m 128,-1,1
 359 440 359 440 431.5 367.5 c 128,-1,2
 504 295 504 295 504 192 c 128,-1,3
 504 89 504 89 431.5 16.5 c 128,-1,4
 359 -56 359 -56 256 -56 c 128,-1,5
 153 -56 153 -56 80.5 16.5 c 128,-1,6
 8 89 8 89 8 192 c 128,-1,7
 8 295 8 295 80.5 367.5 c 128,-1,0
 153 440 153 440 256 440 c 128,-1,1
420 326 m 1,8,9
 414 318 414 318 404.5 308 c 128,-1,10
 395 298 395 298 366 277 c 128,-1,11
 337 256 337 256 302 242 c 1,12,13
 311 222 311 222 320 200 c 1,14,15
 393 210 393 210 468 194 c 1,16,17
 467 268 467 268 420 326 c 1,8,9
396 350 m 1,18,19
 357 385 357 385 307 397.5 c 128,-1,20
 257 410 257 410 206 398 c 1,21,22
 249 341 249 341 285 274 c 1,23,24
 319 286 319 286 346.5 305 c 128,-1,25
 374 324 374 324 382.5 333.5 c 128,-1,26
 391 343 391 343 396 350 c 1,18,19
166 383 m 1,27,28
 136 369 136 369 112 347 c 128,-1,29
 88 325 88 325 71.5 296.5 c 128,-1,30
 55 268 55 268 49 235 c 1,31,32
 143 234 143 234 244 261 c 1,33,34
 208 326 208 326 166 383 c 1,27,28
44 192 m 0,35,36
 44 110 44 110 99 50 c 1,37,38
 116 80 116 80 143 108 c 128,-1,39
 170 136 170 136 206 159 c 128,-1,40
 242 182 242 182 279 192 c 1,41,42
 272 210 272 210 262 228 c 1,43,44
 154 196 154 196 44 198 c 1,45,46
 44 195 44 195 44 192 c 0,35,36
126 25 m 1,47,48
 172 -12 172 -12 230 -19 c 128,-1,49
 288 -26 288 -26 339 -3 c 1,50,51
 326 74 326 74 294 157 c 1,52,53
 233 137 233 137 188.5 99.5 c 128,-1,54
 144 62 144 62 126 25 c 1,47,48
374 16 m 1,55,56
 451 68 451 68 465 158 c 1,57,58
 402 178 402 178 333 167 c 1,59,60
 362 87 362 87 374 16 c 1,55,56
EndSplineSet
Validated: 33
EndChar

StartChar: skype
Encoding: 61822 61822 30
Width: 448
GlyphClass: 3
Flags: W
LayerCount: 2
Fore
SplineSet
425 148 m 1,0,1
 448 118 448 118 448 80 c 0,2,3
 448 34 448 34 415 1 c 128,-1,4
 382 -32 382 -32 336 -32 c 0,5,6
 298 -32 298 -32 268 -9 c 1,7,8
 246 -13 246 -13 224 -13 c 0,9,10
 139 -13 139 -13 79 47 c 128,-1,11
 19 107 19 107 19 192 c 0,12,13
 19 213 19 213 23 236 c 1,14,15
 0 266 0 266 0 304 c 0,16,17
 0 350 0 350 33 383 c 128,-1,18
 66 416 66 416 112 416 c 0,19,20
 150 416 150 416 180 393 c 1,21,22
 202 397 202 397 224 397 c 0,23,24
 309 397 309 397 369 337 c 128,-1,25
 429 277 429 277 429 192 c 0,26,27
 429 171 429 171 425 148 c 1,0,1
230 57 m 0,28,29
 275 57 275 57 308.5 79.5 c 128,-1,30
 342 102 342 102 342 143 c 0,31,32
 342 200 342 200 251 221 c 0,33,34
 246 222 246 222 235 224 c 0,35,36
 218 228 218 228 211 230 c 128,-1,37
 204 232 204 232 195.5 235.5 c 128,-1,38
 187 239 187 239 184.5 243 c 128,-1,39
 182 247 182 247 182 254 c 0,40,41
 182 276 182 276 224 276 c 0,42,43
 244 276 244 276 256.5 268 c 128,-1,44
 269 260 269 260 278.5 251.5 c 128,-1,45
 288 243 288 243 299 243 c 0,46,47
 306 243 306 243 312 245.5 c 128,-1,48
 318 248 318 248 321.5 252.5 c 128,-1,49
 325 257 325 257 327.5 262.5 c 128,-1,50
 330 268 330 268 330 275 c 0,51,52
 330 299 330 299 296 314.5 c 128,-1,53
 262 330 262 330 218.5 330 c 128,-1,54
 175 330 175 330 142.5 310 c 128,-1,55
 110 290 110 290 110 249 c 0,56,57
 110 238 110 238 111.5 229 c 128,-1,58
 113 220 113 220 117.5 213 c 128,-1,59
 122 206 122 206 126 201 c 128,-1,60
 130 196 130 196 139 191 c 128,-1,61
 148 186 148 186 152.5 183 c 128,-1,62
 157 180 157 180 169.5 176.5 c 128,-1,63
 182 173 182 173 187 171.5 c 128,-1,64
 192 170 192 170 207.5 166.5 c 128,-1,65
 223 163 223 163 228 162 c 0,66,67
 245 157 245 157 251 155.5 c 128,-1,68
 257 154 257 154 263.5 148.5 c 128,-1,69
 270 143 270 143 270 134 c 0,70,71
 270 122 270 122 258 114.5 c 128,-1,72
 246 107 246 107 227 107 c 0,73,74
 209 107 209 107 195 114 c 128,-1,75
 181 121 181 121 174.5 129.5 c 128,-1,76
 168 138 168 138 158.5 145 c 128,-1,77
 149 152 149 152 139 152 c 0,78,79
 125 152 125 152 117.5 143.5 c 128,-1,80
 110 135 110 135 110 122 c 0,81,82
 110 95 110 95 145.5 76 c 128,-1,83
 181 57 181 57 230 57 c 0,28,29
EndSplineSet
Validated: 1
EndChar

StartChar: foursquare
Encoding: 61824 61824 31
Width: 368
GlyphClass: 3
Flags: W
LayerCount: 2
Fore
SplineSet
323 445 m 2,0,1
 352 445 352 445 362 429 c 128,-1,2
 372 413 372 413 365 380 c 2,3,-1
 317 137 l 2,4,5
 315 128 315 128 313 124 c 128,-1,6
 311 120 311 120 306.5 112 c 128,-1,7
 302 104 302 104 293.5 100.5 c 128,-1,8
 285 97 285 97 272 97 c 2,9,-1
 189 97 l 2,10,11
 185 97 185 97 182 94 c 0,12,13
 180 91 180 91 51 -58 c 0,14,15
 38 -73 38 -73 18 -65 c 0,16,17
 0 -58 0 -58 0 -35 c 2,18,-1
 0 399 l 2,19,20
 0 416 0 416 12.5 430.5 c 128,-1,21
 25 445 25 445 50 445 c 2,22,-1
 323 445 l 2,0,1
307 371 m 2,23,24
 308 378 308 378 304 383.5 c 128,-1,25
 300 389 300 389 293 389 c 2,26,-1
 74 389 l 2,27,28
 67 389 67 389 62.5 383.5 c 128,-1,29
 58 378 58 378 58 372 c 2,30,-1
 58 33 l 2,31,32
 58 31 58 31 60 33 c 2,33,-1
 149 141 l 2,34,35
 156 149 156 149 160.5 151.5 c 128,-1,36
 165 154 165 154 176 154 c 2,37,-1
 249 154 l 2,38,39
 254 154 254 154 257.5 156.5 c 128,-1,40
 261 159 261 159 263 162 c 128,-1,41
 265 165 265 165 266 167 c 0,42,43
 270 189 270 189 277 226 c 0,44,45
 279 233 279 233 274 238.5 c 128,-1,46
 269 244 269 244 262 244 c 2,47,-1
 172 244 l 2,48,49
 163 244 163 244 157.5 250 c 128,-1,50
 152 256 152 256 152 265 c 2,51,-1
 152 278 l 2,52,53
 152 282 152 282 153.5 286 c 128,-1,54
 155 290 155 290 157.5 292.5 c 128,-1,55
 160 295 160 295 164 296.5 c 128,-1,56
 168 298 168 298 172 298 c 2,57,-1
 278 298 l 2,58,59
 281 298 281 298 284 299.5 c 128,-1,60
 287 301 287 301 289.5 302.5 c 128,-1,61
 292 304 292 304 293.5 306.5 c 128,-1,62
 295 309 295 309 295 312 c 2,63,-1
 307 371 l 2,23,24
EndSplineSet
Validated: 33
EndChar

StartChar: gratipay
Encoding: 61828 61828 32
Width: 496
GlyphClass: 3
Flags: W
LayerCount: 2
Fore
SplineSet
248 440 m 128,-1,1
 351 440 351 440 423.5 367.5 c 128,-1,2
 496 295 496 295 496 192 c 128,-1,3
 496 89 496 89 423.5 16.5 c 128,-1,4
 351 -56 351 -56 248 -56 c 128,-1,5
 145 -56 145 -56 72.5 16.5 c 128,-1,6
 0 89 0 89 0 192 c 128,-1,7
 0 295 0 295 72.5 367.5 c 128,-1,0
 145 440 145 440 248 440 c 128,-1,1
363 214 m 2,8,9
 366 219 366 219 368.5 227 c 128,-1,10
 371 235 371 235 371.5 245.5 c 128,-1,11
 372 256 372 256 366 267 c 128,-1,12
 360 278 360 278 349 286 c 0,13,14
 326 297 326 297 309.5 292.5 c 128,-1,15
 293 288 293 288 281 274 c 0,16,17
 269 261 269 261 250 260.5 c 128,-1,18
 231 260 231 260 219 274 c 256,19,20
 207 288 207 288 190 292.5 c 128,-1,21
 173 297 173 297 150 286 c 0,22,23
 136 276 136 276 131 260 c 128,-1,24
 126 244 126 244 129 232.5 c 128,-1,25
 132 221 132 221 137 214 c 2,26,-1
 250 61 l 1,27,-1
 363 214 l 2,8,9
EndSplineSet
Validated: 33
EndChar

StartChar: vk
Encoding: 61833 61833 33
Width: 576
GlyphClass: 3
Flags: W
LayerCount: 2
Fore
SplineSet
545 330 m 0,0,1
 542 315 542 315 521.5 281 c 128,-1,2
 501 247 501 247 484 221.5 c 128,-1,3
 467 196 467 196 466 195 c 0,4,5
 460 186 460 186 460 182 c 128,-1,6
 460 178 460 178 466 168 c 2,7,8
 466 168 466 168 472.5 161 c 128,-1,9
 479 154 479 154 488 145 c 128,-1,10
 497 136 497 136 508 124 c 128,-1,11
 519 112 519 112 528.5 100.5 c 128,-1,12
 538 89 538 89 545.5 77 c 128,-1,13
 553 65 553 65 556 57 c 0,14,15
 563 32 563 32 536 32 c 2,16,-1
 477 32 l 2,17,18
 470 32 470 32 465 34 c 128,-1,19
 460 36 460 36 454 41 c 128,-1,20
 448 46 448 46 443 52 c 128,-1,21
 438 58 438 58 428 69 c 128,-1,22
 418 80 418 80 408 90 c 0,23,24
 368 128 368 128 349 128 c 0,25,26
 337 128 337 128 335 121 c 128,-1,27
 333 114 333 114 333 81 c 0,28,29
 334 65 334 65 334 55 c 0,30,31
 334 43 334 43 326 37.5 c 128,-1,32
 318 32 318 32 291 32 c 0,33,34
 244 32 244 32 196 60 c 128,-1,35
 148 88 148 88 112 140 c 0,36,37
 78 186 78 186 55.5 231.5 c 128,-1,38
 33 277 33 277 26 301 c 128,-1,39
 19 325 19 325 19 335 c 0,40,41
 19 352 19 352 39 352 c 2,42,-1
 98 352 l 2,43,44
 109 352 109 352 114.5 347 c 128,-1,45
 120 342 120 342 124 329 c 0,46,47
 145 268 145 268 175.5 220 c 128,-1,48
 206 172 206 172 222 172 c 0,49,50
 228 172 228 172 230.5 176.5 c 128,-1,51
 233 181 233 181 233 194 c 2,52,-1
 233 281 l 2,53,54
 232 295 232 295 228 305 c 128,-1,55
 224 315 224 315 220 319.5 c 128,-1,56
 216 324 216 324 212.5 329 c 128,-1,57
 209 334 209 334 209 338 c 256,58,59
 209 342 209 342 211 345 c 128,-1,60
 213 348 213 348 216.5 350 c 128,-1,61
 220 352 220 352 224 352 c 2,62,-1
 317 352 l 2,63,64
 333 352 333 352 333 330 c 2,65,-1
 333 214 l 2,66,67
 333 197 333 197 342.5 197 c 128,-1,68
 352 197 352 197 370 215 c 0,69,70
 389 236 389 236 407 266 c 128,-1,71
 425 296 425 296 434 316 c 2,72,-1
 443 335 l 2,73,74
 450 352 450 352 468 352 c 2,75,-1
 527 352 l 2,76,77
 551 352 551 352 545 330 c 0,0,1
EndSplineSet
Validated: 33
EndChar

StartChar: weibo
Encoding: 61834 61834 34
Width: 512
GlyphClass: 3
Flags: W
LayerCount: 2
Fore
SplineSet
407 270 m 0,0,1
 413 288 413 288 400.5 302 c 128,-1,2
 388 316 388 316 370 312 c 0,3,4
 359 310 359 310 353 317 c 128,-1,5
 347 324 347 324 349.5 333.5 c 128,-1,6
 352 343 352 343 362 345 c 0,7,8
 400 353 400 353 425.5 324.5 c 128,-1,9
 451 296 451 296 439 260 c 0,10,11
 436 250 436 250 426.5 248.5 c 128,-1,12
 417 247 417 247 410.5 253.5 c 128,-1,13
 404 260 404 260 407 270 c 0,0,1
215 1 m 0,14,15
 130 1 130 1 65 39 c 128,-1,16
 0 77 0 77 0 138 c 0,17,18
 0 205 0 205 76 281 c 0,19,20
 148 353 148 353 208 357 c 0,21,22
 252 360 252 360 255 321 c 0,23,24
 256 307 256 307 250 287 c 0,25,26
 247 276 247 276 262 281 c 0,27,28
 322 308 322 308 358.5 293.5 c 128,-1,29
 395 279 395 279 376 230 c 0,30,31
 374 223 374 223 376 221 c 128,-1,32
 378 219 378 219 384 216 c 0,33,34
 450 196 450 196 446 143 c 0,35,36
 443 90 443 90 379 47 c 0,37,38
 311 1 311 1 215 1 c 0,14,15
358.5 147.5 m 128,-1,40
 354 189 354 189 306.5 214.5 c 128,-1,41
 259 240 259 240 195 233 c 0,42,43
 131 227 131 227 89.5 193 c 128,-1,44
 48 159 48 159 52 117.5 c 128,-1,45
 56 76 56 76 103.5 50.5 c 128,-1,46
 151 25 151 25 215 32 c 0,47,48
 279 38 279 38 321 72 c 128,-1,39
 363 106 363 106 358.5 147.5 c 128,-1,40
348 413 m 0,49,50
 398 423 398 423 440.5 400 c 128,-1,51
 483 377 483 377 502 332 c 128,-1,52
 521 287 521 287 505 239 c 0,53,54
 499 220 499 220 480.5 226 c 128,-1,55
 462 232 462 232 468 251 c 0,56,57
 485 304 485 304 448 345 c 128,-1,58
 411 386 411 386 356 375 c 0,59,60
 344 372 344 372 337 380.5 c 128,-1,61
 330 389 330 389 333 399.5 c 128,-1,62
 336 410 336 410 348 413 c 0,49,50
269 102 m 0,63,64
 257 73 257 73 224.5 59 c 128,-1,65
 192 45 192 45 160 56 c 0,66,67
 130 65 130 65 118.5 91.5 c 128,-1,68
 107 118 107 118 120 145 c 256,69,70
 133 172 133 172 163 185 c 128,-1,71
 193 198 193 198 223 190 c 0,72,73
 255 182 255 182 268.5 156.5 c 128,-1,74
 282 131 282 131 269 102 c 0,63,64
183 132 m 256,75,76
 173 136 173 136 162 132 c 128,-1,77
 151 128 151 128 145 119 c 0,78,79
 139 109 139 109 141.5 99.5 c 128,-1,80
 144 90 144 90 154 85 c 128,-1,81
 164 80 164 80 175.5 84 c 128,-1,82
 187 88 187 88 193 98 c 128,-1,83
 199 108 199 108 196 118 c 128,-1,84
 193 128 193 128 183 132 c 256,75,76
216 145 m 256,85,86
 207 148 207 148 201 140 c 0,87,88
 196 131 196 131 205 127 c 0,89,90
 215 123 215 123 220 132 c 0,91,92
 225 142 225 142 216 145 c 256,85,86
EndSplineSet
Validated: 33
EndChar

StartChar: renren
Encoding: 61835 61835 35
Width: 512
GlyphClass: 3
Flags: W
LayerCount: 2
Fore
SplineSet
214 279 m 2,0,1
 214 197 214 197 173 130.5 c 128,-1,2
 132 64 132 64 66 32 c 1,3,4
 8 101 8 101 8 191 c 0,5,6
 8 252 8 252 35 304.5 c 128,-1,7
 62 357 62 357 109 391.5 c 128,-1,8
 156 426 156 426 214 436 c 1,9,-1
 214 279 l 2,0,1
255 -56 m 0,10,11
 192 -56 192 -56 136 -26 c 1,12,13
 181 2 181 2 212.5 42.5 c 128,-1,14
 244 83 244 83 255 129 c 1,15,16
 266 83 266 83 297.5 42.5 c 128,-1,17
 329 2 329 2 374 -26 c 1,18,19
 319 -56 319 -56 255 -56 c 0,10,11
446 32 m 1,20,21
 413 47 413 47 386 72.5 c 128,-1,22
 359 98 359 98 339.5 129.5 c 128,-1,23
 320 161 320 161 309 199.5 c 128,-1,24
 298 238 298 238 298 279 c 2,25,-1
 298 436 l 1,26,27
 386 421 386 421 445 352 c 128,-1,28
 504 283 504 283 504 191 c 0,29,30
 504 101 504 101 446 32 c 1,20,21
EndSplineSet
Validated: 1
EndChar

StartChar: pagelines
Encoding: 61836 61836 36
Width: 384
GlyphClass: 3
Flags: W
LayerCount: 2
Fore
SplineSet
384 135 m 1,0,1
 369 97 369 97 344 77.5 c 128,-1,2
 319 58 319 58 294.5 57 c 128,-1,3
 270 56 270 56 247.5 61 c 128,-1,4
 225 66 225 66 211 74 c 2,5,-1
 197 81 l 1,6,7
 166 19 166 19 117.5 -17 c 128,-1,8
 69 -53 69 -53 12 -53 c 0,9,10
 0 -53 0 -53 0 -41 c 128,-1,11
 0 -29 0 -29 12 -29 c 0,12,13
 60 -29 60 -29 100.5 0.5 c 128,-1,14
 141 30 141 30 170 81 c 1,15,16
 151 74 151 74 132.5 72 c 128,-1,17
 114 70 114 70 90.5 74.5 c 128,-1,18
 67 79 67 79 45 101.5 c 128,-1,19
 23 124 23 124 8 163 c 1,20,21
 39 176 39 176 66.5 179 c 128,-1,22
 94 182 94 182 112.5 177 c 128,-1,23
 131 172 131 172 146.5 161.5 c 128,-1,24
 162 151 162 151 170.5 140.5 c 128,-1,25
 179 130 179 130 186 118 c 1,26,27
 201 154 201 154 208 198 c 1,28,29
 206 197 206 197 203 196.5 c 128,-1,30
 200 196 200 196 190.5 196 c 128,-1,31
 181 196 181 196 171.5 196.5 c 128,-1,32
 162 197 162 197 149 199 c 128,-1,33
 136 201 136 201 124.5 205 c 128,-1,34
 113 209 113 209 101.5 217 c 128,-1,35
 90 225 90 225 81 235 c 128,-1,36
 72 245 72 245 66 260.5 c 128,-1,37
 60 276 60 276 58 296 c 1,38,39
 94 309 94 309 120 306 c 128,-1,40
 146 303 146 303 163.5 289 c 128,-1,41
 181 275 181 275 191.5 259.5 c 128,-1,42
 202 244 202 244 206 231 c 2,43,-1
 211 219 l 1,44,45
 214 253 214 253 214 272 c 1,46,47
 210 275 210 275 203 280.5 c 128,-1,48
 196 286 196 286 181.5 304 c 128,-1,49
 167 322 167 322 159.5 340 c 128,-1,50
 152 358 152 358 154.5 385 c 128,-1,51
 157 412 157 412 176 438 c 1,52,53
 211 425 211 425 230 404 c 128,-1,54
 249 383 249 383 251.5 361.5 c 128,-1,55
 254 340 254 340 251.5 320 c 128,-1,56
 249 300 249 300 243 288 c 2,57,-1
 238 275 l 2,58,59
 238 274 238 274 238 261.5 c 128,-1,60
 238 249 238 249 238 242 c 1,61,62
 238 244 238 244 240 247 c 128,-1,63
 242 250 242 250 248.5 258.5 c 128,-1,64
 255 267 255 267 262.5 274.5 c 128,-1,65
 270 282 270 282 282 290 c 128,-1,66
 294 298 294 298 307 302 c 128,-1,67
 320 306 320 306 337.5 306 c 128,-1,68
 355 306 355 306 374 299 c 1,69,70
 373 262 373 262 358 237 c 128,-1,71
 343 212 343 212 322 203.5 c 128,-1,72
 301 195 301 195 280.5 192 c 128,-1,73
 260 189 260 189 246 191 c 2,74,-1
 232 193 l 1,75,76
 225 152 225 152 212 115 c 1,77,78
 215 119 215 119 221.5 125 c 128,-1,79
 228 131 228 131 247 142.5 c 128,-1,80
 266 154 266 154 285 159.5 c 128,-1,81
 304 165 304 165 331.5 160 c 128,-1,82
 359 155 359 155 384 135 c 1,0,1
EndSplineSet
Validated: 33
EndChar

StartChar: vimeo-square
Encoding: 61844 61844 37
Width: 448
GlyphClass: 3
Flags: W
LayerCount: 2
Fore
SplineSet
400 416 m 2,0,1
 420 416 420 416 434 402 c 128,-1,2
 448 388 448 388 448 368 c 2,3,-1
 448 16 l 2,4,5
 448 -4 448 -4 434 -18 c 128,-1,6
 420 -32 420 -32 400 -32 c 2,7,-1
 48 -32 l 2,8,9
 28 -32 28 -32 14 -18 c 128,-1,10
 0 -4 0 -4 0 16 c 2,11,-1
 0 368 l 2,12,13
 0 388 0 388 14 402 c 128,-1,14
 28 416 28 416 48 416 c 2,15,-1
 400 416 l 2,0,1
384 266 m 0,16,17
 387 329 387 329 337 330 c 0,18,19
 271 333 271 333 247 255 c 1,20,21
 262 264 262 264 278.5 259.5 c 128,-1,22
 295 255 295 255 292 233 c 0,23,24
 291 217 291 217 271 185 c 0,25,26
 244 143 244 143 232 158 c 128,-1,27
 220 173 220 173 204 275 c 0,28,29
 200 303 200 303 188.5 315.5 c 128,-1,30
 177 328 177 328 158 326 c 0,31,32
 152 326 152 326 144 322 c 128,-1,33
 136 318 136 318 125.5 309.5 c 128,-1,34
 115 301 115 301 107.5 294.5 c 128,-1,35
 100 288 100 288 85.5 275 c 128,-1,36
 71 262 71 262 64 256 c 1,37,-1
 79 237 l 1,38,39
 100 252 100 252 104 252 c 0,40,41
 111 252 111 252 116 246 c 128,-1,42
 121 240 121 240 127 222.5 c 128,-1,43
 133 205 133 205 137.5 191 c 128,-1,44
 142 177 142 177 150 144 c 0,45,46
 157 119 157 119 161 105 c 0,47,48
 180 54 180 54 208 54 c 0,49,50
 253 54 253 54 318 138 c 0,51,52
 382 220 382 220 384 266 c 0,16,17
EndSplineSet
Validated: 545
EndChar

StartChar: wordpress
Encoding: 61850 61850 38
Width: 512
GlyphClass: 3
Flags: W
LayerCount: 2
Fore
SplineSet
62 279 m 1,0,-1
 163 1 l 1,1,2
 109 27 109 27 76 78.5 c 128,-1,3
 43 130 43 130 43 192 c 0,4,5
 43 237 43 237 62 279 c 1,0,-1
400 203 m 0,6,7
 400 186 400 186 384 134 c 2,8,-1
 362 63 l 1,9,-1
 286 292 l 1,10,-1
 310 294 l 2,11,12
 318 295 318 295 317.5 303.5 c 128,-1,13
 317 312 317 312 308 311 c 0,14,15
 274 309 274 309 252 309 c 2,16,-1
 196 311 l 2,17,18
 190 312 190 312 187.5 307.5 c 128,-1,19
 185 303 185 303 187 298.5 c 128,-1,20
 189 294 189 294 194 294 c 0,21,22
 205 292 205 292 217 292 c 1,23,-1
 250 201 l 1,24,-1
 203 61 l 1,25,-1
 126 292 l 1,26,-1
 150 294 l 2,27,28
 159 295 159 295 158 303.5 c 128,-1,29
 157 312 157 312 149 311 c 0,30,31
 114 309 114 309 92 309 c 0,32,33
 86 309 86 309 78 309 c 1,34,35
 107 353 107 353 154 379 c 128,-1,36
 201 405 201 405 256 405 c 0,37,38
 339 405 339 405 400 349 c 1,39,40
 398 349 398 349 397 349 c 0,41,42
 382 349 382 349 371.5 337.5 c 128,-1,43
 361 326 361 326 361 311 c 0,44,45
 361 295 361 295 382 261 c 0,46,47
 400 231 400 231 400 203 c 0,6,7
260 173 m 1,48,-1
 325 -6 l 2,49,50
 326 -7 326 -7 327 -9 c 1,51,52
 292 -21 292 -21 256 -21 c 0,53,54
 226 -21 226 -21 196 -12 c 1,55,-1
 260 173 l 1,48,-1
443 294 m 1,56,57
 469 247 469 247 469 192 c 0,58,59
 469 134 469 134 440 85 c 128,-1,60
 411 36 411 36 363 8 c 1,61,-1
 428 196 l 2,62,63
 444 236 444 236 444 272 c 0,64,65
 444 284 444 284 443 294 c 1,56,57
504 192 m 128,-1,67
 504 89 504 89 431.5 16.5 c 128,-1,68
 359 -56 359 -56 256 -56 c 128,-1,69
 153 -56 153 -56 80.5 16.5 c 128,-1,70
 8 89 8 89 8 192 c 128,-1,71
 8 295 8 295 80.5 367.5 c 128,-1,72
 153 440 153 440 256 440 c 128,-1,73
 359 440 359 440 431.5 367.5 c 128,-1,66
 504 295 504 295 504 192 c 128,-1,67
493 192 m 128,-1,75
 493 290 493 290 423.5 359.5 c 128,-1,76
 354 429 354 429 256 429 c 128,-1,77
 158 429 158 429 88.5 359.5 c 128,-1,78
 19 290 19 290 19 192 c 128,-1,79
 19 94 19 94 88.5 24.5 c 128,-1,80
 158 -45 158 -45 256 -45 c 128,-1,81
 354 -45 354 -45 423.5 24.5 c 128,-1,74
 493 94 493 94 493 192 c 128,-1,75
EndSplineSet
Validated: 1
EndChar

StartChar: openid
Encoding: 61851 61851 39
Width: 448
GlyphClass: 3
Flags: W
LayerCount: 2
Fore
SplineSet
272 16 m 1,0,-1
 204 -16 l 1,1,2
 117 -8 117 -8 58.5 33 c 128,-1,3
 0 74 0 74 0 130 c 0,4,5
 0 183 0 183 54.5 223.5 c 128,-1,6
 109 264 109 264 192 274 c 1,7,-1
 192 231 l 1,8,9
 137 222 137 222 102.5 194 c 128,-1,10
 68 166 68 166 68 130 c 0,11,12
 68 92 68 92 106.5 63 c 128,-1,13
 145 34 145 34 203 27 c 1,14,-1
 203 367 l 1,15,-1
 271 400 l 1,16,-1
 271 16 l 1,17,-1
 272 16 l 1,0,-1
448 157 m 1,18,-1
 317 186 l 1,19,-1
 354 206 l 1,20,21
 324 224 324 224 284 231 c 1,22,-1
 284 274 l 1,23,24
 353 266 353 266 404 235 c 1,25,-1
 439 254 l 1,26,-1
 448 157 l 1,18,-1
EndSplineSet
Validated: 1
EndChar

StartChar: google
Encoding: 61856 61856 40
Width: 488
GlyphClass: 3
Flags: W
LayerCount: 2
Fore
SplineSet
488 186 m 0,0,1
 488 80 488 80 421.5 12 c 128,-1,2
 355 -56 355 -56 248 -56 c 0,3,4
 145 -56 145 -56 72.5 16.5 c 128,-1,5
 0 89 0 89 0 192 c 128,-1,6
 0 295 0 295 72.5 367.5 c 128,-1,7
 145 440 145 440 248 440 c 0,8,9
 345 440 345 440 414 375 c 1,10,-1
 347 310 l 1,11,12
 315 341 315 341 270.5 346.5 c 128,-1,13
 226 352 226 352 187.5 335.5 c 128,-1,14
 149 319 149 319 121.5 280.5 c 128,-1,15
 94 242 94 242 94 192 c 0,16,17
 94 127 94 127 139 81 c 128,-1,18
 184 35 184 35 248 35 c 0,19,20
 283 35 283 35 310.5 46.5 c 128,-1,21
 338 58 338 58 353.5 75.5 c 128,-1,22
 369 93 369 93 377.5 110 c 128,-1,23
 386 127 386 127 389 142 c 1,24,-1
 248 142 l 1,25,-1
 248 228 l 1,26,-1
 484 228 l 1,27,28
 488 206 488 206 488 186 c 0,0,1
EndSplineSet
Validated: 33
EndChar

StartChar: reddit
Encoding: 61857 61857 41
Width: 512
GlyphClass: 3
Flags: W
LayerCount: 2
Fore
SplineSet
201.5 142 m 128,-1,1
 191 142 191 142 184 149.5 c 128,-1,2
 177 157 177 157 177 167 c 256,3,4
 177 177 177 177 184 184.5 c 128,-1,5
 191 192 191 192 201.5 192 c 128,-1,6
 212 192 212 192 219 184.5 c 128,-1,7
 226 177 226 177 226 167 c 128,-1,8
 226 157 226 157 219 149.5 c 128,-1,0
 212 142 212 142 201.5 142 c 128,-1,1
504 192 m 128,-1,10
 504 89 504 89 431.5 16.5 c 128,-1,11
 359 -56 359 -56 256 -56 c 128,-1,12
 153 -56 153 -56 80.5 16.5 c 128,-1,13
 8 89 8 89 8 192 c 128,-1,14
 8 295 8 295 80.5 367.5 c 128,-1,15
 153 440 153 440 256 440 c 128,-1,16
 359 440 359 440 431.5 367.5 c 128,-1,9
 504 295 504 295 504 192 c 128,-1,10
372 233 m 0,17,18
 358 233 358 233 348 223 c 1,19,20
 312 248 312 248 262 250 c 1,21,-1
 279 328 l 1,22,-1
 335 316 l 1,23,24
 335 305 335 305 342 298 c 128,-1,25
 349 291 349 291 359.5 291 c 128,-1,26
 370 291 370 291 377 298.5 c 128,-1,27
 384 306 384 306 384 316 c 128,-1,28
 384 326 384 326 377 333.5 c 128,-1,29
 370 341 370 341 359 341 c 0,30,31
 344 341 344 341 337 327 c 1,32,-1
 276 341 l 2,33,34
 271 342 271 342 269 336 c 2,35,-1
 250 250 l 1,36,37
 200 248 200 248 164 223 c 1,38,39
 155 233 155 233 140 233 c 0,40,41
 124 233 124 233 114.5 221 c 128,-1,42
 105 209 105 209 108 193.5 c 128,-1,43
 111 178 111 178 126 170 c 1,44,45
 124 163 124 163 124 155 c 0,46,47
 124 115 124 115 163 87.5 c 128,-1,48
 202 60 202 60 256 60 c 0,49,50
 283 60 283 60 307.5 67.5 c 128,-1,51
 332 75 332 75 350 87.5 c 128,-1,52
 368 100 368 100 378 118 c 128,-1,53
 388 136 388 136 388 155 c 0,54,55
 388 163 388 163 387 171 c 1,56,57
 402 178 402 178 404.5 193.5 c 128,-1,58
 407 209 407 209 397.5 221 c 128,-1,59
 388 233 388 233 372 233 c 0,17,18
303 117 m 0,60,61
 307 121 307 121 311 117 c 0,62,63
 316 112 316 112 311 108 c 0,64,65
 294 91 294 91 256 91 c 128,-1,66
 218 91 218 91 201 108 c 0,67,68
 196 112 196 112 201 117 c 0,69,70
 205 121 205 121 209 117 c 0,71,72
 222 104 222 104 255.5 103.5 c 128,-1,73
 289 103 289 103 303 117 c 0,60,61
310 192 m 0,74,75
 321 192 321 192 328 184.5 c 128,-1,76
 335 177 335 177 335 167 c 256,77,78
 335 157 335 157 328 149.5 c 128,-1,79
 321 142 321 142 310.5 142 c 128,-1,80
 300 142 300 142 293 149.5 c 128,-1,81
 286 157 286 157 286 167 c 0,82,83
 286 174 286 174 289 179.5 c 128,-1,84
 292 185 292 185 298 188.5 c 128,-1,85
 304 192 304 192 310 192 c 0,74,75
EndSplineSet
Validated: 33
EndChar

StartChar: reddit-square
Encoding: 61858 61858 42
Width: 448
GlyphClass: 3
Flags: W
LayerCount: 2
Fore
SplineSet
283 102 m 0,0,1
 288 98 288 98 283 93 c 0,2,3
 265 75 265 75 224 75 c 128,-1,4
 183 75 183 75 165 93 c 0,5,6
 160 98 160 98 165 102 c 0,7,8
 169 107 169 107 174 102 c 0,9,10
 188 88 188 88 224 88 c 128,-1,11
 260 88 260 88 274 102 c 0,12,13
 279 107 279 107 283 102 c 0,0,1
192 156 m 256,14,15
 192 145 192 145 184 137.5 c 128,-1,16
 176 130 176 130 165 130 c 256,17,18
 154 130 154 130 146.5 137.5 c 128,-1,19
 139 145 139 145 139 156 c 256,20,21
 139 167 139 167 146.5 175 c 128,-1,22
 154 183 154 183 165 183 c 256,23,24
 176 183 176 183 184 175 c 128,-1,25
 192 167 192 167 192 156 c 256,14,15
283 183 m 256,26,27
 294 183 294 183 301.5 175 c 128,-1,28
 309 167 309 167 309 156 c 256,29,30
 309 145 309 145 301.5 137.5 c 128,-1,31
 294 130 294 130 283 130 c 256,32,33
 272 130 272 130 264 137.5 c 128,-1,34
 256 145 256 145 256 156 c 256,35,36
 256 167 256 167 264 175 c 128,-1,37
 272 183 272 183 283 183 c 256,26,27
448 368 m 2,38,-1
 448 16 l 2,39,40
 448 -4 448 -4 434 -18 c 128,-1,41
 420 -32 420 -32 400 -32 c 2,42,-1
 48 -32 l 2,43,44
 28 -32 28 -32 14 -18 c 128,-1,45
 0 -4 0 -4 0 16 c 2,46,-1
 0 368 l 2,47,48
 0 388 0 388 14 402 c 128,-1,49
 28 416 28 416 48 416 c 2,50,-1
 400 416 l 2,51,52
 420 416 420 416 434 402 c 128,-1,53
 448 388 448 388 448 368 c 2,38,-1
348 227 m 0,54,55
 334 227 334 227 323 217 c 1,56,57
 284 244 284 244 230 245 c 1,58,-1
 249 330 l 1,59,-1
 308 316 l 1,60,61
 308 309 308 309 312 303 c 128,-1,62
 316 297 316 297 322 293.5 c 128,-1,63
 328 290 328 290 335 290 c 0,64,65
 346 290 346 290 354 297.5 c 128,-1,66
 362 305 362 305 362 316 c 128,-1,67
 362 327 362 327 354 335 c 128,-1,68
 346 343 346 343 335 343 c 0,69,70
 319 343 319 343 311 328 c 1,71,-1
 245 343 l 2,72,73
 240 344 240 344 238 338 c 2,74,-1
 218 245 l 1,75,76
 164 243 164 243 126 216 c 1,77,78
 115 227 115 227 100 227 c 0,79,80
 82 227 82 227 71.5 214 c 128,-1,81
 61 201 61 201 64.5 184.5 c 128,-1,82
 68 168 68 168 84 160 c 1,83,84
 82 152 82 152 82 143 c 0,85,86
 82 101 82 101 124 71 c 128,-1,87
 166 41 166 41 224 41 c 0,88,89
 283 41 283 41 324.5 71 c 128,-1,90
 366 101 366 101 366 143 c 0,91,92
 366 153 366 153 364 160 c 1,93,94
 380 168 380 168 383.5 184.5 c 128,-1,95
 387 201 387 201 376.5 214 c 128,-1,96
 366 227 366 227 348 227 c 0,54,55
EndSplineSet
Validated: 545
EndChar

StartChar: stumbleupon-circle
Encoding: 61859 61859 43
Width: 496
GlyphClass: 3
Flags: W
LayerCount: 2
Fore
SplineSet
256 440 m 128,-1,1
 359 440 359 440 431.5 367.5 c 128,-1,2
 504 295 504 295 504 192 c 128,-1,3
 504 89 504 89 431.5 16.5 c 128,-1,4
 359 -56 359 -56 256 -56 c 128,-1,5
 153 -56 153 -56 80.5 16.5 c 128,-1,6
 8 89 8 89 8 192 c 128,-1,7
 8 295 8 295 80.5 367.5 c 128,-1,0
 153 440 153 440 256 440 c 128,-1,1
256 262 m 128,-1,9
 263 262 263 262 268.5 257 c 128,-1,10
 274 252 274 252 274 245 c 2,11,-1
 274 224 l 1,12,-1
 297 214 l 1,13,-1
 331 224 l 1,14,-1
 331 247 l 2,15,16
 331 277 331 277 309 298.5 c 128,-1,17
 287 320 287 320 256 320 c 128,-1,18
 225 320 225 320 203 299 c 128,-1,19
 181 278 181 278 181 248 c 2,20,-1
 181 140 l 2,21,22
 181 132 181 132 176 127 c 128,-1,23
 171 122 171 122 163.5 122 c 128,-1,24
 156 122 156 122 151 127 c 128,-1,25
 146 132 146 132 146 140 c 2,26,-1
 146 185 l 1,27,-1
 88 185 l 1,28,-1
 88 139 l 2,29,30
 88 108 88 108 110 86 c 128,-1,31
 132 64 132 64 163 64 c 256,32,33
 194 64 194 64 216 85.5 c 128,-1,34
 238 107 238 107 238 138 c 2,35,-1
 238 245 l 2,36,37
 238 252 238 252 243.5 257 c 128,-1,8
 249 262 249 262 256 262 c 128,-1,9
424 139 m 2,38,39
 424 139 424 139 424 185 c 1,40,-1
 366 185 l 1,41,-1
 366 137 l 2,42,43
 366 130 366 130 361 125 c 128,-1,44
 356 120 356 120 348.5 120 c 128,-1,45
 341 120 341 120 336 125 c 128,-1,46
 331 130 331 130 331 137 c 2,47,-1
 331 184 l 1,48,-1
 297 174 l 1,49,-1
 274 185 l 1,50,-1
 274 138 l 2,51,52
 274 107 274 107 296 85.5 c 128,-1,53
 318 64 318 64 349 64 c 0,54,55
 369 64 369 64 386.5 74 c 128,-1,56
 404 84 404 84 414 101.5 c 128,-1,57
 424 119 424 119 424 139 c 2,38,39
EndSplineSet
Validated: 513
EndChar

StartChar: stumbleupon
Encoding: 61860 61860 44
Width: 512
GlyphClass: 3
Flags: W
LayerCount: 2
Fore
SplineSet
503 182 m 1,0,-1
 503 112 l 2,1,2
 503 66 503 66 470 33 c 128,-1,3
 437 0 437 0 390.5 0 c 128,-1,4
 344 0 344 0 311 32.5 c 128,-1,5
 278 65 278 65 278 111 c 2,6,-1
 278 181 l 1,7,-1
 312 165 l 1,8,-1
 364 181 l 1,9,-1
 364 110 l 2,10,11
 364 99 364 99 371.5 91.5 c 128,-1,12
 379 84 379 84 390 84 c 128,-1,13
 401 84 401 84 409 91.5 c 128,-1,14
 417 99 417 99 417 110 c 2,15,-1
 417 182 l 1,16,-1
 503 182 l 1,0,-1
278 240 m 1,17,-1
 278 271 l 2,18,19
 278 282 278 282 270.5 290 c 128,-1,20
 263 298 263 298 251.5 298 c 128,-1,21
 240 298 240 298 232.5 290 c 128,-1,22
 225 282 225 282 225 271 c 2,23,-1
 225 111 l 2,24,25
 225 65 225 65 192 32.5 c 128,-1,26
 159 0 159 0 112 0 c 0,27,28
 66 0 66 0 33 33 c 128,-1,29
 0 66 0 66 0 112 c 2,30,-1
 0 182 l 1,31,-1
 86 182 l 1,32,-1
 86 113 l 2,33,34
 86 102 86 102 94 94.5 c 128,-1,35
 102 87 102 87 113 87 c 0,36,37
 118 87 118 87 123 89 c 128,-1,38
 128 91 128 91 131.5 94.5 c 128,-1,39
 135 98 135 98 137 103 c 128,-1,40
 139 108 139 108 139 113 c 2,41,-1
 139 276 l 2,42,43
 139 321 139 321 172.5 352.5 c 128,-1,44
 206 384 206 384 251.5 384 c 128,-1,45
 297 384 297 384 330.5 352 c 128,-1,46
 364 320 364 320 364 275 c 2,47,-1
 364 239 l 1,48,-1
 312 224 l 1,49,-1
 278 240 l 1,17,-1
EndSplineSet
Validated: 1
EndChar

StartChar: digg
Encoding: 61862 61862 45
Width: 512
GlyphClass: 3
Flags: W
LayerCount: 2
Fore
SplineSet
82 276 m 1,0,-1
 82 352 l 1,1,-1
 133 352 l 1,2,-1
 133 101 l 1,3,-1
 0 101 l 1,4,-1
 0 276 l 1,5,-1
 82 276 l 1,0,-1
82 142 m 1,6,-1
 82 235 l 1,7,-1
 51 235 l 1,8,-1
 51 142 l 1,9,-1
 82 142 l 1,6,-1
379 276 m 1,10,-1
 512 276 l 1,11,-1
 512 32 l 1,12,-1
 379 32 l 1,13,-1
 379 73 l 1,14,-1
 461 73 l 1,15,-1
 461 101 l 1,16,-1
 379 101 l 1,17,-1
 379 276 l 1,10,-1
461 142 m 1,18,-1
 461 235 l 1,19,-1
 430 235 l 1,20,-1
 430 142 l 1,21,-1
 461 142 l 1,18,-1
225 101 m 1,22,-1
 225 276 l 1,23,-1
 358 276 l 1,24,-1
 358 32 l 1,25,-1
 225 32 l 1,26,-1
 225 73 l 1,27,-1
 307 73 l 1,28,-1
 307 101 l 1,29,-1
 225 101 l 1,22,-1
276 235 m 1,30,-1
 276 142 l 1,31,-1
 307 142 l 1,32,-1
 307 235 l 1,33,-1
 276 235 l 1,30,-1
153 352 m 1,34,-1
 205 352 l 1,35,-1
 205 301 l 1,36,-1
 153 301 l 1,37,-1
 153 352 l 1,34,-1
153 276 m 1,38,-1
 205 276 l 1,39,-1
 205 101 l 1,40,-1
 153 101 l 1,41,-1
 153 276 l 1,38,-1
EndSplineSet
Validated: 1
EndChar

StartChar: pied-piper-pp
Encoding: 61863 61863 46
Width: 448
GlyphClass: 3
Flags: W
LayerCount: 2
Fore
SplineSet
205 273.5 m 128,-1,1
 205 258 205 258 196 246.5 c 128,-1,2
 187 235 187 235 174 235 c 0,3,4
 163 235 163 235 156 239 c 1,5,-1
 156 307 l 1,6,7
 163 311 163 311 174 311 c 0,8,9
 187 311 187 311 196 300 c 128,-1,0
 205 289 205 289 205 273.5 c 128,-1,1
258 206 m 0,10,11
 271 206 271 206 280.5 195 c 128,-1,12
 290 184 290 184 290 168.5 c 128,-1,13
 290 153 290 153 280.5 141.5 c 128,-1,14
 271 130 271 130 258 130 c 0,15,16
 247 130 247 130 241 134 c 1,17,-1
 241 202 l 1,18,19
 248 206 248 206 258 206 c 0,10,11
448 368 m 2,20,-1
 448 16 l 2,21,22
 448 -4 448 -4 434 -18 c 128,-1,23
 420 -32 420 -32 400 -32 c 2,24,-1
 48 -32 l 2,25,26
 28 -32 28 -32 14 -18 c 128,-1,27
 0 -4 0 -4 0 16 c 2,28,-1
 0 368 l 2,29,30
 0 388 0 388 14 402 c 128,-1,31
 28 416 28 416 48 416 c 2,32,-1
 400 416 l 2,33,34
 420 416 420 416 434 402 c 128,-1,35
 448 388 448 388 448 368 c 2,20,-1
185 193 m 0,36,37
 216 193 216 193 237.5 216.5 c 128,-1,38
 259 240 259 240 259 272 c 0,39,40
 259 294 259 294 249 312.5 c 128,-1,41
 239 331 239 331 222 341.5 c 128,-1,42
 205 352 205 352 185 352 c 0,43,44
 167 352 167 352 150 343 c 1,45,-1
 105 343 l 1,46,-1
 105 137 l 1,47,-1
 156 147 l 1,48,-1
 156 198 l 1,49,50
 170 193 170 193 185 193 c 0,36,37
343 168 m 128,-1,52
 343 201 343 201 321.5 224 c 128,-1,53
 300 247 300 247 270 247 c 0,54,55
 264 247 264 247 260 246 c 0,56,57
 254 227 254 227 241 213 c 0,58,59
 219 190 219 190 189 188 c 1,60,-1
 189 32 l 1,61,-1
 241 42 l 1,62,-1
 241 93 l 1,63,64
 253 88 253 88 269 88 c 0,65,66
 300 88 300 88 321.5 111.5 c 128,-1,51
 343 135 343 135 343 168 c 128,-1,52
EndSplineSet
Validated: 513
EndChar

StartChar: drupal
Encoding: 61865 61865 47
Width: 448
GlyphClass: 3
Flags: W
LayerCount: 2
Fore
SplineSet
320 333 m 0,0,1
 329 328 329 328 341 317 c 128,-1,2
 353 306 353 306 372 284 c 128,-1,3
 391 262 391 262 403.5 227.5 c 128,-1,4
 416 193 416 193 416 154 c 0,5,6
 416 72 416 72 360 20 c 128,-1,7
 304 -32 304 -32 226 -32 c 256,8,9
 148 -32 148 -32 90 22.5 c 128,-1,10
 32 77 32 77 32 158 c 0,11,12
 32 195 32 195 45 229 c 128,-1,13
 58 263 58 263 77 284 c 128,-1,14
 96 305 96 305 110 316.5 c 128,-1,15
 124 328 124 328 133 333 c 0,16,17
 173 355 173 355 186 366 c 0,18,19
 205 380 205 380 208 415 c 1,20,21
 240 377 240 377 255 367 c 0,22,23
 266 360 266 360 287.5 350 c 128,-1,24
 309 340 309 340 320 333 c 0,0,1
322 8 m 0,25,26
 327 13 327 13 323 17 c 0,27,28
 321 18 321 18 318 16 c 0,29,30
 299 2 299 2 263 2 c 0,31,32
 248 2 248 2 235 5.5 c 128,-1,33
 222 9 222 9 217 12 c 2,34,-1
 212 16 l 2,35,36
 207 16 207 16 204.5 11.5 c 128,-1,37
 202 7 202 7 205 4 c 0,38,39
 226 -14 226 -14 266 -11 c 128,-1,40
 306 -8 306 -8 322 8 c 0,25,26
268 60 m 0,41,42
 260 57 260 57 250.5 49 c 128,-1,43
 241 41 241 41 245 35 c 0,44,45
 248 32 248 32 257 40 c 0,46,47
 271 51 271 51 284 51 c 0,48,49
 293 51 293 51 298 48 c 128,-1,50
 303 45 303 45 304 41.5 c 128,-1,51
 305 38 305 38 306.5 36 c 128,-1,52
 308 34 308 34 310 35 c 0,53,54
 316 40 316 40 312.5 48 c 128,-1,55
 309 56 309 56 304 59 c 0,56,57
 299 63 299 63 286.5 63 c 128,-1,58
 274 63 274 63 268 60 c 0,41,42
360 43 m 0,59,60
 383 41 383 41 396 78 c 0,61,62
 411 120 411 120 395 141 c 0,63,64
 388 149 388 149 376 149 c 0,65,66
 366 149 366 149 335.5 128 c 128,-1,67
 305 107 305 107 294 107 c 0,68,69
 284 107 284 107 267 119 c 128,-1,70
 250 131 250 131 228.5 143.5 c 128,-1,71
 207 156 207 156 186 156 c 0,72,73
 162 156 162 156 144.5 143 c 128,-1,74
 127 130 127 130 120 113 c 128,-1,75
 113 96 113 96 116.5 78 c 128,-1,76
 120 60 120 60 134 50 c 0,77,78
 153 36 153 36 178.5 41 c 128,-1,79
 204 46 204 46 224 57.5 c 128,-1,80
 244 69 244 69 265 81 c 128,-1,81
 286 93 286 93 295 92 c 0,82,83
 305 92 305 92 329 67.5 c 128,-1,84
 353 43 353 43 360 43 c 0,59,60
EndSplineSet
Validated: 33
EndChar

StartChar: joomla
Encoding: 61866 61866 48
Width: 448
GlyphClass: 3
Flags: W
LayerCount: 2
Fore
SplineSet
1 356 m 0,0,1
 1 381 1 381 18.5 398.5 c 128,-1,2
 36 416 36 416 60 416 c 0,3,4
 83 416 83 416 99.5 401.5 c 128,-1,5
 116 387 116 387 120 366 c 1,6,7
 174 378 174 378 216 336 c 1,8,-1
 172 292 l 1,9,10
 155 306 155 306 141 306 c 128,-1,11
 127 306 127 306 116.5 295 c 128,-1,12
 106 284 106 284 106 269 c 128,-1,13
 106 254 106 254 116 243 c 2,14,-1
 216 143 l 1,15,-1
 172 99 l 1,16,17
 121 149 121 149 104.5 166 c 128,-1,18
 88 183 88 183 72 199 c 0,19,20
 52 218 52 218 45.5 245 c 128,-1,21
 39 272 39 272 47 298 c 1,22,23
 27 302 27 302 14 318.5 c 128,-1,24
 1 335 1 335 1 356 c 0,0,1
130 240 m 1,25,26
 216 325 216 325 230 339 c 0,27,28
 249 359 249 359 276 365.5 c 128,-1,29
 303 372 303 372 328 364 c 1,30,31
 331 386 331 386 348 401 c 128,-1,32
 365 416 365 416 388 416 c 0,33,34
 412 416 412 416 429.5 398.5 c 128,-1,35
 447 381 447 381 447 356 c 0,36,37
 447 333 447 333 432 316.5 c 128,-1,38
 417 300 417 300 395 296 c 1,39,40
 411 240 411 240 366 195 c 1,41,-1
 322 240 l 1,42,43
 337 256 337 256 337 270 c 128,-1,44
 337 284 337 284 326 295 c 128,-1,45
 315 306 315 306 300 306 c 128,-1,46
 285 306 285 306 274 295 c 0,47,48
 264 285 264 285 174 195 c 1,49,-1
 130 240 l 1,25,26
396 87 m 1,50,51
 418 84 418 84 433 67.5 c 128,-1,52
 448 51 448 51 448 28 c 0,53,54
 448 3 448 3 430.5 -14.5 c 128,-1,55
 413 -32 413 -32 388 -32 c 0,56,57
 374 -32 374 -32 361.5 -25.5 c 128,-1,58
 349 -19 349 -19 340.5 -8 c 128,-1,59
 332 3 332 3 329 16 c 1,60,61
 304 8 304 8 275.5 15 c 128,-1,62
 247 22 247 22 227 44 c 1,63,-1
 271 88 l 1,64,65
 287 74 287 74 301 74 c 128,-1,66
 315 74 315 74 326 85 c 128,-1,67
 337 96 337 96 337 111 c 128,-1,68
 337 126 337 126 326 137 c 2,69,-1
 226 237 l 1,70,-1
 271 281 l 1,71,72
 362 190 362 190 370 181 c 0,73,74
 410 141 410 141 396 87 c 1,50,51
312 140 m 1,75,76
 264 92 264 92 244.5 72.5 c 128,-1,77
 225 53 225 53 213 41 c 0,78,79
 173 1 173 1 118 15 c 1,80,81
 115 1 115 1 107 -9.5 c 128,-1,82
 99 -20 99 -20 86.5 -26 c 128,-1,83
 74 -32 74 -32 60 -32 c 0,84,85
 35 -32 35 -32 17.5 -14.5 c 128,-1,86
 0 3 0 3 0 28 c 0,87,88
 0 49 0 49 13 65.5 c 128,-1,89
 26 82 26 82 46 86 c 1,90,91
 32 141 32 141 76 185 c 1,92,-1
 120 140 l 1,93,94
 106 124 106 124 106 110 c 128,-1,95
 106 96 106 96 116 85 c 0,96,97
 127 74 127 74 142.5 74 c 128,-1,98
 158 74 158 74 168 85 c 0,99,100
 257 173 257 173 268 185 c 1,101,-1
 312 140 l 1,75,76
EndSplineSet
Validated: 33
EndChar

StartChar: behance
Encoding: 61876 61876 49
Width: 576
GlyphClass: 3
Flags: W
LayerCount: 2
Fore
SplineSet
232 211 m 1,0,1
 297 193 297 193 297 121 c 0,2,3
 297 70 297 70 261 44 c 128,-1,4
 225 18 225 18 172 18 c 2,5,-1
 0 18 l 1,6,-1
 0 373 l 1,7,-1
 167 373 l 2,8,9
 280 373 280 373 280 285 c 0,10,11
 280 234 280 234 232 211 c 1,0,1
78 312 m 1,12,-1
 78 229 l 1,13,-1
 157 229 l 2,14,15
 204 229 204 229 204 272 c 0,16,17
 204 312 204 312 151 312 c 2,18,-1
 78 312 l 1,12,-1
161 78 m 2,19,20
 219 78 219 78 219 125 c 0,21,22
 219 176 219 176 163 176 c 2,23,-1
 78 176 l 1,24,-1
 78 78 l 1,25,-1
 161 78 l 2,19,20
520 319 m 1,26,-1
 376 319 l 1,27,-1
 376 354 l 1,28,-1
 520 354 l 1,29,-1
 520 319 l 1,26,-1
576 143 m 0,30,31
 576 138 576 138 575 130 c 1,32,-1
 390 130 l 1,33,34
 390 98 390 98 406.5 81 c 128,-1,35
 423 64 423 64 453 64 c 0,36,37
 464 64 464 64 475.5 68 c 128,-1,38
 487 72 487 72 496.5 79.5 c 128,-1,39
 506 87 506 87 509 98 c 1,40,-1
 571 98 l 1,41,42
 543 12 543 12 451 12 c 0,43,44
 391 12 391 12 355.5 49 c 128,-1,45
 320 86 320 86 320 146 c 0,46,47
 320 205 320 205 356.5 243.5 c 128,-1,48
 393 282 393 282 451 282 c 256,49,50
 509 282 509 282 542.5 242 c 128,-1,51
 576 202 576 202 576 143 c 0,30,31
390 174 m 1,52,-1
 505 174 l 1,53,54
 500 229 500 229 449 229 c 0,55,56
 424 229 424 229 408 214 c 128,-1,57
 392 199 392 199 390 174 c 1,52,-1
EndSplineSet
Validated: 1
EndChar

StartChar: steam
Encoding: 61878 61878 50
Width: 496
GlyphClass: 3
Flags: W
LayerCount: 2
Fore
SplineSet
496 192 m 0,0,1
 496 125 496 125 463 67.5 c 128,-1,2
 430 10 430 10 372.5 -23 c 128,-1,3
 315 -56 315 -56 248 -56 c 0,4,5
 163 -56 163 -56 97 -5.5 c 128,-1,6
 31 45 31 45 9 124 c 1,7,-1
 104 85 l 1,8,9
 109 61 109 61 128 45 c 128,-1,10
 147 29 147 29 173 29 c 0,11,12
 202 29 202 29 223 50.5 c 128,-1,13
 244 72 244 72 243 102 c 1,14,-1
 327 162 l 1,15,16
 367 161 367 161 395 189 c 128,-1,17
 423 217 423 217 423 256 c 256,18,19
 423 295 423 295 395.5 322 c 128,-1,20
 368 349 368 349 329.5 349 c 128,-1,21
 291 349 291 349 263.5 322 c 128,-1,22
 236 295 236 295 236 256 c 2,23,-1
 236 255 l 1,24,-1
 177 169 l 1,25,26
 153 170 153 170 133 157 c 1,27,-1
 0 212 l 1,28,29
 8 308 8 308 79 374 c 128,-1,30
 150 440 150 440 248 440 c 0,31,32
 351 440 351 440 423.5 367.5 c 128,-1,33
 496 295 496 295 496 192 c 0,0,1
156 64 m 2,34,35
 171 58 171 58 185.5 64 c 128,-1,36
 200 70 200 70 206.5 85 c 128,-1,37
 213 100 213 100 206.5 114.5 c 128,-1,38
 200 129 200 129 186 135 c 2,39,-1
 154 148 l 1,40,41
 174 156 174 156 193 148 c 0,42,43
 213 139 213 139 222 119 c 0,44,45
 230 99 230 99 221.5 79 c 128,-1,46
 213 59 213 59 193 50.5 c 128,-1,47
 173 42 173 42 152 50 c 0,48,49
 134 58 134 58 125 76 c 1,50,-1
 156 64 l 2,34,35
329.5 194 m 128,-1,52
 304 194 304 194 285.5 212 c 128,-1,53
 267 230 267 230 267 256 c 128,-1,54
 267 282 267 282 285.5 300 c 128,-1,55
 304 318 304 318 329.5 318 c 128,-1,56
 355 318 355 318 373.5 300 c 128,-1,57
 392 282 392 282 392 256 c 128,-1,58
 392 230 392 230 373.5 212 c 128,-1,51
 355 194 355 194 329.5 194 c 128,-1,52
329.5 209 m 128,-1,60
 349 209 349 209 362.5 223 c 128,-1,61
 376 237 376 237 376 256 c 128,-1,62
 376 275 376 275 362.5 289 c 128,-1,63
 349 303 349 303 329.5 303 c 128,-1,64
 310 303 310 303 296.5 289 c 128,-1,65
 283 275 283 275 283 256 c 128,-1,66
 283 237 283 237 296.5 223 c 128,-1,59
 310 209 310 209 329.5 209 c 128,-1,60
EndSplineSet
Validated: 33
EndChar

StartChar: steam-square
Encoding: 61879 61879 51
Width: 448
GlyphClass: 3
Flags: W
LayerCount: 2
Fore
SplineSet
185 91.5 m 128,-1,1
 191 105 191 105 185.5 119 c 128,-1,2
 180 133 180 133 166 139 c 2,3,-1
 136 151 l 1,4,5
 154 158 154 158 172 151 c 0,6,7
 191 143 191 143 199 124 c 128,-1,8
 207 105 207 105 199 86 c 128,-1,9
 191 67 191 67 172 59.5 c 128,-1,10
 153 52 153 52 134 60 c 0,11,12
 117 67 117 67 109 84 c 1,13,-1
 138 72 l 2,14,15
 152 66 152 66 165.5 72 c 128,-1,0
 179 78 179 78 185 91.5 c 128,-1,1
400 416 m 2,16,17
 420 416 420 416 434 402 c 128,-1,18
 448 388 448 388 448 368 c 2,19,-1
 448 16 l 2,20,21
 448 -4 448 -4 434 -18 c 128,-1,22
 420 -32 420 -32 400 -32 c 2,23,-1
 48 -32 l 2,24,25
 28 -32 28 -32 14 -18 c 128,-1,26
 0 -4 0 -4 0 16 c 2,27,-1
 0 129 l 1,28,-1
 89 92 l 1,29,30
 92 77 92 77 101 65 c 128,-1,31
 110 53 110 53 124 46 c 128,-1,32
 138 39 138 39 154 39 c 0,33,34
 181 39 181 39 200.5 59 c 128,-1,35
 220 79 220 79 219 108 c 1,36,-1
 298 164 l 1,37,38
 335 163 335 163 361.5 189 c 128,-1,39
 388 215 388 215 388 252 c 0,40,41
 388 288 388 288 362.5 313.5 c 128,-1,42
 337 339 337 339 300.5 339 c 128,-1,43
 264 339 264 339 238.5 313.5 c 128,-1,44
 213 288 213 288 213 252 c 2,45,-1
 213 251 l 1,46,-1
 157 170 l 1,47,48
 135 172 135 172 117 159 c 1,49,-1
 0 207 l 1,50,-1
 0 368 l 2,51,52
 0 388 0 388 14 402 c 128,-1,53
 28 416 28 416 48 416 c 2,54,-1
 400 416 l 2,16,17
300 194 m 128,-1,56
 276 194 276 194 259 211 c 128,-1,57
 242 228 242 228 242 252 c 128,-1,58
 242 276 242 276 259 293 c 128,-1,59
 276 310 276 310 300 310 c 128,-1,60
 324 310 324 310 341.5 293 c 128,-1,61
 359 276 359 276 359 252 c 128,-1,62
 359 228 359 228 341.5 211 c 128,-1,55
 324 194 324 194 300 194 c 128,-1,56
300 208 m 0,63,64
 319 208 319 208 331.5 221 c 128,-1,65
 344 234 344 234 344 252 c 128,-1,66
 344 270 344 270 331.5 283 c 128,-1,67
 319 296 319 296 300.5 296 c 128,-1,68
 282 296 282 296 269 283 c 128,-1,69
 256 270 256 270 256 252 c 0,70,71
 256 240 256 240 262 230 c 128,-1,72
 268 220 268 220 278 214 c 128,-1,73
 288 208 288 208 300 208 c 0,63,64
EndSplineSet
Validated: 545
EndChar

StartChar: spotify
Encoding: 61884 61884 52
Width: 496
GlyphClass: 3
Flags: W
LayerCount: 2
Fore
SplineSet
248 440 m 128,-1,1
 351 440 351 440 423.5 367.5 c 128,-1,2
 496 295 496 295 496 192 c 128,-1,3
 496 89 496 89 423.5 16.5 c 128,-1,4
 351 -56 351 -56 248 -56 c 128,-1,5
 145 -56 145 -56 72.5 16.5 c 128,-1,6
 0 89 0 89 0 192 c 128,-1,7
 0 295 0 295 72.5 367.5 c 128,-1,0
 145 440 145 440 248 440 c 128,-1,1
349 75 m 0,8,9
 355 75 355 75 359.5 79.5 c 128,-1,10
 364 84 364 84 364 90 c 0,11,12
 364 101 364 101 354 107 c 0,13,14
 258 164 258 164 117 133 c 0,15,16
 104 130 104 130 104 116 c 0,17,18
 104 110 104 110 108 105.5 c 128,-1,19
 112 101 112 101 119 101 c 0,20,21
 121 101 121 101 131 103 c 0,22,23
 255 129 255 129 338 79 c 0,24,25
 344 75 344 75 349 75 c 0,8,9
376 141 m 0,26,27
 384 141 384 141 389.5 146.5 c 128,-1,28
 395 152 395 152 395 160 c 0,29,30
 395 173 395 173 384 180 c 0,31,32
 307 225 307 225 207 225 c 0,33,34
 157 225 157 225 109 212 c 0,35,36
 93 207 93 207 93 191 c 0,37,38
 93 183 93 183 99 177.5 c 128,-1,39
 105 172 105 172 113 172 c 0,40,41
 115 172 115 172 125 174 c 0,42,43
 188 190 188 190 251.5 181.5 c 128,-1,44
 315 173 315 173 363 145 c 0,45,46
 371 141 371 141 376 141 c 0,26,27
407 217 m 0,47,48
 416 217 416 217 423 223.5 c 128,-1,49
 430 230 430 230 430 240 c 0,50,51
 430 255 430 255 417 263 c 0,52,53
 335 311 335 311 212 311 c 0,54,55
 146 311 146 311 94 295 c 0,56,57
 77 290 77 290 77 272 c 0,58,59
 77 262 77 262 83.5 255 c 128,-1,60
 90 248 90 248 100 248 c 0,61,62
 103 248 103 248 113 250 c 0,63,64
 173 268 173 268 257 260 c 128,-1,65
 341 252 341 252 394 221 c 0,66,67
 400 217 400 217 407 217 c 0,47,48
EndSplineSet
Validated: 33
EndChar

StartChar: deviantart
Encoding: 61885 61885 53
Width: 320
GlyphClass: 3
Flags: W
LayerCount: 2
Fore
SplineSet
320 355 m 1,0,-1
 222 176 l 1,1,-1
 229 166 l 1,2,-1
 320 166 l 1,3,-1
 320 38 l 1,4,-1
 159 38 l 1,5,-1
 146 29 l 1,6,-1
 102 -55 l 1,7,8
 102 -55 102 -55 93 -64 c 1,9,-1
 0 -64 l 1,10,-1
 0 29 l 1,11,-1
 93 209 l 1,12,-1
 86 218 l 1,13,-1
 0 218 l 1,14,-1
 0 346 l 1,15,-1
 156 346 l 1,16,-1
 170 355 l 1,17,-1
 213 439 l 1,18,-1
 222 448 l 1,19,-1
 320 448 l 1,20,-1
 320 355 l 1,0,-1
EndSplineSet
Validated: 1
EndChar

StartChar: soundcloud
Encoding: 61886 61886 54
Width: 640
GlyphClass: 3
Flags: W
LayerCount: 2
Fore
SplineSet
111 192 m 2,0,-1
 117 127 l 1,1,-1
 111 58 l 2,2,3
 111 54 111 54 107 54 c 256,4,5
 103 54 103 54 103 58 c 2,6,-1
 97 127 l 1,7,-1
 103 192 l 2,8,9
 103 196 103 196 107 196 c 256,10,11
 111 196 111 196 111 192 c 2,0,-1
133 237 m 256,12,13
 138 237 138 237 138 232 c 2,14,-1
 143 127 l 1,15,-1
 138 58 l 2,16,17
 138 53 138 53 133 53 c 256,18,19
 128 53 128 53 128 58 c 2,20,-1
 123 127 l 1,21,-1
 128 232 l 2,22,23
 128 237 128 237 133 237 c 256,12,13
158 261 m 0,24,25
 164 261 164 261 164 256 c 2,26,-1
 169 126 l 1,27,-1
 164 58 l 2,28,29
 164 53 164 53 158 53 c 0,30,31
 153 53 153 53 153 58 c 2,32,-1
 148 126 l 1,33,-1
 153 256 l 2,34,35
 153 261 153 261 158 261 c 0,24,25
7 165 m 128,-1,37
 9 165 9 165 10 162 c 2,38,-1
 15 127 l 1,39,-1
 10 92 l 2,40,41
 9 89 9 89 7 89 c 128,-1,42
 5 89 5 89 5 92 c 2,43,-1
 0 127 l 1,44,-1
 5 162 l 2,45,36
 5 165 5 165 7 165 c 128,-1,37
31 187 m 0,46,47
 33 187 33 187 34 184 c 2,48,-1
 41 127 l 1,49,-1
 34 70 l 2,50,51
 33 68 33 68 31 68 c 0,52,53
 28 68 28 68 28 71 c 2,54,-1
 22 127 l 1,55,-1
 28 184 l 2,56,57
 28 187 28 187 31 187 c 0,46,47
56 198 m 128,-1,59
 59 198 59 198 59 195 c 2,60,-1
 66 127 l 1,61,-1
 59 61 l 2,62,63
 59 58 59 58 56 58 c 256,64,65
 53 58 53 58 53 61 c 2,66,-1
 47 127 l 1,67,-1
 53 195 l 2,68,58
 53 198 53 198 56 198 c 128,-1,59
81.5 200 m 128,-1,70
 85 200 85 200 85 197 c 2,71,-1
 92 127 l 1,72,-1
 85 59 l 2,73,74
 85 55 85 55 81.5 55 c 128,-1,75
 78 55 78 55 78 59 c 2,76,-1
 72 127 l 1,77,-1
 78 197 l 2,78,69
 78 200 78 200 81.5 200 c 128,-1,70
323 311 m 0,79,80
 327 309 327 309 327 304 c 2,81,-1
 331 126 l 1,82,-1
 327 62 l 2,83,84
 327 54 327 54 319 54 c 0,85,86
 310 54 310 54 310 62 c 2,87,-1
 308 94 l 1,88,-1
 306 126 l 1,89,-1
 310 303 l 1,90,-1
 310 304 l 2,91,92
 310 308 310 308 313 311 c 0,93,94
 315 313 315 313 319 313 c 0,95,96
 321 313 321 313 323 311 c 0,79,80
296 296 m 0,97,98
 300 294 300 294 300 289 c 2,99,-1
 303 126 l 1,100,-1
 300 68 l 1,101,-1
 300 61 l 2,102,103
 300 58 300 58 297 56 c 0,104,105
 295 53 295 53 292 53 c 0,106,107
 288 53 288 53 285 56 c 0,108,109
 284 58 284 58 284 61 c 2,110,-1
 281 127 l 1,111,-1
 283 288 l 1,112,-1
 284 289 l 2,113,114
 284 294 284 294 287 296 c 0,115,116
 290 297 290 297 292 297 c 128,-1,117
 294 297 294 297 296 296 c 0,97,98
184.5 273 m 128,-1,119
 190 273 190 273 191 267 c 2,120,-1
 196 127 l 1,121,-1
 191 60 l 2,122,123
 190 54 190 54 185 54 c 0,124,125
 179 54 179 54 179 60 c 2,126,-1
 174 127 l 1,127,-1
 179 267 l 2,128,118
 179 273 179 273 184.5 273 c 128,-1,119
561 211 m 0,129,130
 594 211 594 211 617 187.5 c 128,-1,131
 640 164 640 164 640 132 c 0,132,133
 640 99 640 99 617 76 c 128,-1,134
 594 53 594 53 561 53 c 2,135,-1
 343 53 l 2,136,137
 334 54 334 54 334 63 c 2,138,-1
 334 312 l 2,139,140
 334 319 334 319 342 322 c 0,141,142
 366 331 366 331 392 331 c 0,143,144
 447 331 447 331 486.5 294.5 c 128,-1,145
 526 258 526 258 531 204 c 1,146,147
 546 211 546 211 561 211 c 0,129,130
265 271 m 0,148,149
 272 271 272 271 272 263 c 2,150,-1
 276 126 l 1,151,-1
 272 61 l 2,152,153
 272 53 272 53 265 53 c 0,154,155
 257 53 257 53 257 61 c 2,156,-1
 254 126 l 1,157,-1
 257 263 l 2,158,159
 257 271 257 271 265 271 c 0,148,149
211 279 m 256,160,161
 217 279 217 279 218 272 c 2,162,-1
 222 127 l 1,163,-1
 218 60 l 2,164,165
 217 53 217 53 211 53 c 256,166,167
 205 53 205 53 205 60 c 2,168,-1
 201 127 l 1,169,-1
 205 272 l 2,170,171
 205 279 205 279 211 279 c 256,160,161
238 275 m 128,-1,173
 245 275 245 275 245 268 c 2,174,-1
 249 127 l 1,175,-1
 245 60 l 2,176,177
 245 53 245 53 238 53 c 256,178,179
 231 53 231 53 231 60 c 2,180,-1
 227 127 l 1,181,-1
 231 268 l 2,182,172
 231 275 231 275 238 275 c 128,-1,173
EndSplineSet
Validated: 1
EndChar

StartChar: vine
Encoding: 61898 61898 55
Width: 384
GlyphClass: 3
Flags: W
LayerCount: 2
Fore
SplineSet
384 193 m 1,0,-1
 384 141 l 1,1,2
 357 135 357 135 332 135 c 1,3,4
 307 83 307 83 267.5 37 c 128,-1,5
 228 -9 228 -9 207 -21 c 128,-1,6
 186 -33 186 -33 164 -20 c 0,7,8
 153 -14 153 -14 139.5 -2 c 128,-1,9
 126 10 126 10 104.5 39.5 c 128,-1,10
 83 69 83 69 64.5 106.5 c 128,-1,11
 46 144 46 144 28 207 c 128,-1,12
 10 270 10 270 0 345 c 1,13,-1
 74 345 l 1,14,15
 87 236 87 236 116.5 166.5 c 128,-1,16
 146 97 146 97 189 44 c 1,17,18
 234 88 234 88 265 150 c 1,19,20
 228 169 228 169 206.5 208 c 128,-1,21
 185 247 185 247 185 296 c 0,22,23
 185 346 185 346 212.5 378.5 c 128,-1,24
 240 411 240 411 287 411 c 0,25,26
 327 411 327 411 351 390.5 c 128,-1,27
 375 370 375 370 380 340 c 128,-1,28
 385 310 385 310 382 281 c 128,-1,29
 379 252 379 252 369 230 c 1,30,31
 363 229 363 229 355 228 c 128,-1,32
 347 227 347 227 330 232 c 128,-1,33
 313 237 313 237 305 250 c 1,34,35
 313 277 313 277 313 299 c 0,36,37
 313 345 313 345 285 345 c 0,38,39
 271 345 271 345 262.5 332 c 128,-1,40
 254 319 254 319 254 295 c 0,41,42
 254 237 254 237 292 208.5 c 128,-1,43
 330 180 330 180 384 193 c 1,0,-1
EndSplineSet
Validated: 33
EndChar

StartChar: codepen
Encoding: 61899 61899 56
Width: 512
GlyphClass: 3
Flags: W
LayerCount: 2
Fore
SplineSet
502 288 m 2,0,1
 512 282 512 282 512 270 c 2,2,-1
 512 114 l 2,3,4
 512 102 512 102 502 96 c 2,5,-1
 268 -60 l 2,6,7
 256 -68 256 -68 244 -60 c 2,8,-1
 10 96 l 2,9,10
 0 102 0 102 0 114 c 2,11,-1
 0 270 l 2,12,13
 0 282 0 282 10 288 c 2,14,-1
 244 444 l 2,15,16
 256 452 256 452 268 444 c 2,17,-1
 502 288 l 2,0,1
278 385 m 1,18,-1
 278 282 l 1,19,-1
 373 219 l 1,20,-1
 450 270 l 1,21,-1
 278 385 l 1,18,-1
234 385 m 1,22,-1
 62 270 l 1,23,-1
 139 219 l 1,24,-1
 234 282 l 1,25,-1
 234 385 l 1,22,-1
44 229 m 1,26,-1
 44 155 l 1,27,-1
 99 192 l 1,28,-1
 44 229 l 1,26,-1
234 -1 m 1,29,-1
 234 102 l 1,30,-1
 139 165 l 1,31,-1
 62 114 l 1,32,-1
 234 -1 l 1,29,-1
256 140 m 1,33,-1
 334 192 l 1,34,-1
 256 244 l 1,35,-1
 178 192 l 1,36,-1
 256 140 l 1,33,-1
278 -1 m 1,37,-1
 450 114 l 1,38,-1
 373 165 l 1,39,-1
 278 102 l 1,40,-1
 278 -1 l 1,37,-1
468 155 m 1,41,-1
 468 229 l 1,42,-1
 413 192 l 1,43,-1
 468 155 l 1,41,-1
EndSplineSet
Validated: 33
EndChar

StartChar: jsfiddle
Encoding: 61900 61900 57
Width: 576
GlyphClass: 3
Flags: W
LayerCount: 2
Fore
SplineSet
511 211 m 0,0,1
 545 192 545 192 560.5 158 c 128,-1,2
 576 124 576 124 567 88 c 0,3,4
 563 69 563 69 553 53 c 128,-1,5
 543 37 543 37 529 25.5 c 128,-1,6
 515 14 515 14 497 7.5 c 128,-1,7
 479 1 479 1 459 1 c 0,8,9
 424 0 424 0 207 0 c 0,10,11
 133 0 133 0 116 1 c 0,12,13
 80 2 80 2 50.5 25 c 128,-1,14
 21 48 21 48 11 82 c 0,15,16
 0 117 0 117 11.5 150.5 c 128,-1,17
 23 184 23 184 52 207 c 0,18,19
 58 211 58 211 57 216 c 0,20,21
 51 265 51 265 90 293 c 0,22,23
 128 321 128 321 175 302 c 1,24,25
 175 302 175 302 183 298 c 1,26,27
 208 339 208 339 248 362 c 0,28,29
 282 381 282 381 320.5 383.5 c 128,-1,30
 359 386 359 386 393 373.5 c 128,-1,31
 427 361 427 361 454.5 334 c 128,-1,32
 482 307 482 307 495 270 c 0,33,34
 499 261 499 261 504 221 c 0,35,36
 505 213 505 213 511 211 c 0,0,1
532 54 m 0,37,38
 561 90 561 90 550.5 134 c 128,-1,39
 540 178 540 178 497 198 c 0,40,41
 487 203 487 203 487 214 c 0,42,43
 486 244 486 244 475.5 271 c 128,-1,44
 465 298 465 298 448 316.5 c 128,-1,45
 431 335 431 335 407.5 347.5 c 128,-1,46
 384 360 384 360 359 364.5 c 128,-1,47
 334 369 334 369 307 364.5 c 128,-1,48
 280 360 280 360 257 347 c 0,49,50
 217 325 217 325 196 285 c 0,51,52
 194 281 194 281 192 279 c 128,-1,53
 190 277 190 277 187.5 277 c 128,-1,54
 185 277 185 277 184 277 c 128,-1,55
 183 277 183 277 179 279.5 c 128,-1,56
 175 282 175 282 174 283 c 0,57,58
 136 303 136 303 102 280 c 0,59,60
 67 256 67 256 75 217 c 0,61,62
 78 202 78 202 65 194 c 0,63,64
 36 175 36 175 26.5 142 c 128,-1,65
 17 109 17 109 31 78 c 0,66,67
 58 18 58 18 126 18 c 0,68,69
 290 16 290 16 290 18 c 1,70,71
 444 18 444 18 460 18 c 0,72,73
 503 19 503 19 532 54 c 0,37,38
444 134 m 0,74,75
 440 111 440 111 420.5 95 c 128,-1,76
 401 79 401 79 377 79 c 0,77,78
 352 79 352 79 333 97 c 0,79,80
 325 104 325 104 288.5 142 c 128,-1,81
 252 180 252 180 237 190 c 0,82,83
 207 213 207 213 177 186 c 0,84,85
 163 174 163 174 160 157.5 c 128,-1,86
 157 141 157 141 164.5 127.5 c 128,-1,87
 172 114 172 114 184 104.5 c 128,-1,88
 196 95 196 95 212.5 95.5 c 128,-1,89
 229 96 229 96 244 109 c 0,90,91
 246 111 246 111 250 115.5 c 128,-1,92
 254 120 254 120 257 122 c 0,93,94
 263 127 263 127 269 123.5 c 128,-1,95
 275 120 275 120 270 111 c 0,96,97
 257 92 257 92 235 83.5 c 128,-1,98
 213 75 213 75 191 82 c 256,99,100
 169 89 169 89 155.5 108 c 128,-1,101
 142 127 142 127 142 152 c 0,102,103
 145 190 145 190 178 208 c 0,104,105
 215 229 215 229 245 206 c 0,106,107
 271 186 271 186 304 150 c 128,-1,108
 337 114 337 114 352 105 c 0,109,110
 371 93 371 93 390.5 98 c 128,-1,111
 410 103 410 103 421 122 c 0,112,113
 431 140 431 140 427 158.5 c 128,-1,114
 423 177 423 177 409 187.5 c 128,-1,115
 395 198 395 198 377 200 c 128,-1,116
 359 202 359 202 342 185 c 0,117,118
 341 184 341 184 337 179.5 c 128,-1,119
 333 175 333 175 331 174 c 0,120,121
 323 169 323 169 318.5 174 c 128,-1,122
 314 179 314 179 318 184 c 0,123,124
 352 231 352 231 401 212 c 0,125,126
 425 204 425 204 437 182 c 128,-1,127
 449 160 449 160 444 134 c 0,74,75
EndSplineSet
Validated: 33
EndChar

StartChar: rebel
Encoding: 61904 61904 58
Width: 512
GlyphClass: 3
Flags: W
LayerCount: 2
Fore
SplineSet
256 -56 m 0,0,1
 153 -56 153 -56 81.5 19 c 128,-1,2
 10 94 10 94 13 198 c 0,3,4
 15 258 15 258 45 310.5 c 128,-1,5
 75 363 75 363 130 398 c 0,6,7
 131 398 131 398 131 398 c 1,8,9
 127 394 127 394 117.5 381.5 c 128,-1,10
 108 369 108 369 95.5 343.5 c 128,-1,11
 83 318 83 318 77.5 291 c 128,-1,12
 72 264 72 264 80.5 231 c 128,-1,13
 89 198 89 198 117 171 c 0,14,15
 127 161 127 161 137.5 155.5 c 128,-1,16
 148 150 148 150 156.5 149 c 128,-1,17
 165 148 165 148 173 149.5 c 128,-1,18
 181 151 181 151 187 154 c 128,-1,19
 193 157 193 157 197.5 160.5 c 128,-1,20
 202 164 202 164 204 166 c 2,21,-1
 207 169 l 2,22,23
 215 179 215 179 219 191.5 c 128,-1,24
 223 204 223 204 223.5 215.5 c 128,-1,25
 224 227 224 227 222.5 239 c 128,-1,26
 221 251 221 251 218.5 261 c 128,-1,27
 216 271 216 271 213 278.5 c 128,-1,28
 210 286 210 286 208 290 c 2,29,-1
 206 295 l 2,30,31
 202 306 202 306 190.5 316 c 128,-1,32
 179 326 179 326 170 330 c 2,33,-1
 160 335 l 1,34,-1
 189 367 l 1,35,36
 196 364 196 364 203 359 c 128,-1,37
 210 354 210 354 215 348.5 c 128,-1,38
 220 343 220 343 224 338.5 c 128,-1,39
 228 334 228 334 230 331 c 2,40,-1
 232 328 l 1,41,42
 233 341 233 341 227.5 356.5 c 128,-1,43
 222 372 222 372 216 381 c 2,44,-1
 210 389 l 1,45,-1
 255 440 l 1,46,-1
 299 390 l 1,47,48
 290 377 290 377 284.5 361.5 c 128,-1,49
 279 346 279 346 278 337 c 2,50,-1
 278 327 l 1,51,52
 280 332 280 332 284 336.5 c 128,-1,53
 288 341 288 341 292 345 c 128,-1,54
 296 349 296 349 300.5 352.5 c 128,-1,55
 305 356 305 356 308.5 358.5 c 128,-1,56
 312 361 312 361 315 363 c 128,-1,57
 318 365 318 365 319 366 c 2,58,-1
 321 367 l 1,59,-1
 350 335 l 1,60,61
 337 331 337 331 326 321 c 128,-1,62
 315 311 315 311 309 303 c 2,63,-1
 304 295 l 2,64,65
 296 279 296 279 291 257.5 c 128,-1,66
 286 236 286 236 289 210.5 c 128,-1,67
 292 185 292 185 305 168 c 0,68,69
 311 158 311 158 319.5 153.5 c 128,-1,70
 328 149 328 149 336 148.5 c 128,-1,71
 344 148 344 148 352.5 150 c 128,-1,72
 361 152 361 152 368 155.5 c 128,-1,73
 375 159 375 159 380.5 162 c 128,-1,74
 386 165 386 165 389 168 c 2,75,-1
 392 170 l 1,76,77
 421 196 421 196 430.5 228.5 c 128,-1,78
 440 261 440 261 433 289.5 c 128,-1,79
 426 318 426 318 415 342.5 c 128,-1,80
 404 367 404 367 393 381 c 2,81,-1
 382 395 l 2,82,83
 383 397 383 397 383 398 c 1,84,85
 408 380 408 380 423 366.5 c 128,-1,86
 438 353 438 353 458 328.5 c 128,-1,87
 478 304 478 304 488 270 c 128,-1,88
 498 236 498 236 499 193 c 0,89,90
 500 84 500 84 432 14 c 128,-1,91
 364 -56 364 -56 256 -56 c 0,0,1
EndSplineSet
Validated: 33
EndChar

StartChar: empire
Encoding: 61905 61905 59
Width: 496
GlyphClass: 3
Flags: W
LayerCount: 2
Fore
SplineSet
288 394 m 1,0,1
 272 397 272 397 254 397 c 1,2,-1
 254 416 l 1,3,4
 312 414 312 414 360.5 385.5 c 128,-1,5
 409 357 409 357 439 309 c 1,6,-1
 423 300 l 1,7,8
 413 316 413 316 403 327 c 1,9,-1
 385 312 l 1,10,11
 344 358 344 358 283 370 c 1,12,-1
 288 394 l 1,0,1
53 126 m 1,13,14
 60 109 60 109 67 94 c 1,15,-1
 51 85 l 1,16,17
 24 135 24 135 24 192 c 256,18,19
 24 249 24 249 51 298 c 1,20,-1
 67 289 l 1,21,22
 59 274 59 274 53 258 c 1,23,-1
 76 251 l 1,24,25
 66 223 66 223 66 192 c 0,26,27
 66 162 66 162 76 133 c 1,28,-1
 53 126 l 1,13,14
213 14 m 1,29,-1
 208 -10 l 1,30,31
 227 -13 227 -13 242 -13 c 1,32,-1
 242 -32 l 1,33,34
 184 -30 184 -30 135 -1.5 c 128,-1,35
 86 27 86 27 57 75 c 1,36,-1
 73 84 l 1,37,38
 81 71 81 71 93 57 c 1,39,-1
 111 73 l 1,40,41
 152 26 152 26 213 14 c 1,29,-1
93 327 m 1,42,43
 83 316 83 316 73 300 c 1,44,-1
 57 309 l 1,45,46
 87 357 87 357 135.5 385.5 c 128,-1,47
 184 414 184 414 242 416 c 1,48,-1
 242 397 l 1,49,50
 224 397 224 397 208 394 c 1,51,-1
 213 370 l 1,52,53
 152 358 152 358 111 312 c 1,54,-1
 93 327 l 1,42,43
403 57 m 1,55,56
 415 71 415 71 423 84 c 1,57,-1
 439 75 l 1,58,59
 410 27 410 27 361 -1.5 c 128,-1,60
 312 -30 312 -30 254 -32 c 1,61,-1
 254 -13 l 1,62,63
 269 -13 269 -13 288 -10 c 1,64,-1
 283 14 l 1,65,66
 344 26 344 26 385 73 c 1,67,-1
 403 57 l 1,55,56
496 192 m 128,-1,69
 496 89 496 89 423.5 16.5 c 128,-1,70
 351 -56 351 -56 248 -56 c 128,-1,71
 145 -56 145 -56 72.5 16.5 c 128,-1,72
 0 89 0 89 0 192 c 128,-1,73
 0 295 0 295 72.5 367.5 c 128,-1,74
 145 440 145 440 248 440 c 128,-1,75
 351 440 351 440 423.5 367.5 c 128,-1,68
 496 295 496 295 496 192 c 128,-1,69
484 192 m 128,-1,77
 484 290 484 290 415 359 c 128,-1,78
 346 428 346 428 248 428 c 128,-1,79
 150 428 150 428 81 359 c 128,-1,80
 12 290 12 290 12 192 c 128,-1,81
 12 94 12 94 81 25 c 128,-1,82
 150 -44 150 -44 248 -44 c 128,-1,83
 346 -44 346 -44 415 25 c 128,-1,76
 484 94 484 94 484 192 c 128,-1,77
445 299 m 1,84,85
 472 249 472 249 472 192 c 128,-1,86
 472 135 472 135 445 86 c 1,87,-1
 429 95 l 1,88,89
 437 109 437 109 443 126 c 1,90,-1
 420 133 l 1,91,92
 430 162 430 162 430 192 c 0,93,94
 430 223 430 223 420 251 c 1,95,-1
 443 258 l 1,96,97
 437 274 437 274 429 290 c 1,98,-1
 445 299 l 1,84,85
262 121 m 1,99,-1
 275 54 l 1,100,101
 261 51 261 51 248 51 c 128,-1,102
 235 51 235 51 221 54 c 1,103,-1
 234 121 l 1,104,105
 209 126 209 126 194 144 c 1,106,-1
 142 100 l 1,107,108
 124 121 124 121 115 146 c 1,109,-1
 179 168 l 1,110,111
 176 180 176 180 176 192 c 128,-1,112
 176 204 176 204 179 216 c 1,113,-1
 115 238 l 1,114,115
 124 263 124 263 142 284 c 1,116,-1
 194 240 l 1,117,118
 210 258 210 258 234 263 c 1,119,-1
 221 330 l 1,120,121
 233 333 233 333 248 333 c 0,122,123
 262 333 262 333 275 330 c 1,124,-1
 262 263 l 1,125,126
 286 258 286 258 302 240 c 1,127,-1
 354 284 l 1,128,129
 372 263 372 263 381 238 c 1,130,-1
 317 216 l 1,131,132
 320 204 320 204 320 192 c 128,-1,133
 320 180 320 180 317 168 c 1,134,-1
 381 146 l 1,135,136
 372 121 372 121 354 100 c 1,137,-1
 302 144 l 1,138,139
 286 126 286 126 262 121 c 1,99,-1
EndSplineSet
Validated: 1
EndChar

StartChar: hacker-news
Encoding: 61908 61908 60
Width: 448
GlyphClass: 3
Flags: W
LayerCount: 2
Fore
SplineSet
0 416 m 1,0,-1
 448 416 l 1,1,-1
 448 -32 l 1,2,-1
 0 -32 l 1,3,-1
 0 416 l 1,0,-1
21 219 m 1024,4,-1
239 165 m 1,5,-1
 320 320 l 1,6,-1
 285 320 l 1,7,8
 261 275 261 275 249.5 251.5 c 128,-1,9
 238 228 238 228 232.5 214 c 128,-1,10
 227 200 227 200 225 194 c 1,11,12
 223 199 223 199 218.5 210 c 128,-1,13
 214 221 214 221 210.5 229.5 c 128,-1,14
 207 238 207 238 195.5 262 c 128,-1,15
 184 286 184 286 165 320 c 1,16,-1
 128 320 l 1,17,-1
 208 167 l 1,18,-1
 208 64 l 1,19,-1
 239 64 l 1,20,-1
 239 165 l 1,5,-1
EndSplineSet
Validated: 513
EndChar

StartChar: tencent-weibo
Encoding: 61909 61909 61
Width: 384
GlyphClass: 3
Flags: W
LayerCount: 2
Fore
SplineSet
72 -48 m 0,0,1
 73 -63 73 -63 58.5 -64 c 128,-1,2
 44 -65 44 -65 43 -51 c 0,3,4
 34 44 34 44 61.5 124.5 c 128,-1,5
 89 205 89 205 144 262 c 1,6,7
 132 289 132 289 148 314.5 c 128,-1,8
 164 340 164 340 195 340 c 0,9,10
 217 340 217 340 233.5 323.5 c 128,-1,11
 250 307 250 307 250 284 c 0,12,13
 250 251 250 251 220.5 235.5 c 128,-1,14
 191 220 191 220 163 239 c 1,15,16
 56 124 56 124 72 -48 c 0,0,1
192 448 m 0,17,18
 261 448 261 448 310 399 c 128,-1,19
 359 350 359 350 359 281 c 0,20,21
 359 203 359 203 297.5 152.5 c 128,-1,22
 236 102 236 102 155 119 c 0,23,24
 140 123 140 123 143.5 137 c 128,-1,25
 147 151 147 151 161 148 c 0,26,27
 223 132 223 132 276 173 c 128,-1,28
 329 214 329 214 329 281 c 0,29,30
 329 338 329 338 289 378 c 128,-1,31
 249 418 249 418 192 418 c 0,32,33
 155 418 155 418 124 400 c 128,-1,34
 93 382 93 382 76 353.5 c 128,-1,35
 59 325 59 325 55.5 289.5 c 128,-1,36
 52 254 52 254 70 219 c 0,37,38
 74 211 74 211 69 204 c 128,-1,39
 64 197 64 197 56 197 c 128,-1,40
 48 197 48 197 44 206 c 0,41,42
 21 246 21 246 25.5 289 c 128,-1,43
 30 332 30 332 49.5 367.5 c 128,-1,44
 69 403 69 403 107.5 425.5 c 128,-1,45
 146 448 146 448 192 448 c 0,17,18
EndSplineSet
Validated: 545
EndChar

StartChar: qq
Encoding: 61910 61910 62
Width: 448
GlyphClass: 3
Flags: W
LayerCount: 2
Fore
SplineSet
434 27.5 m 128,-1,1
 431 27 431 27 425 32.5 c 128,-1,2
 419 38 419 38 413 45.5 c 128,-1,3
 407 53 407 53 401.5 61 c 128,-1,4
 396 69 396 69 392 75 c 2,5,-1
 389 80 l 1,6,7
 389 55 389 55 376 27.5 c 128,-1,8
 363 0 363 0 338 -21 c 1,9,10
 346 -24 346 -24 353.5 -27 c 128,-1,11
 361 -30 361 -30 370 -34.5 c 128,-1,12
 379 -39 379 -39 383 -45 c 128,-1,13
 387 -51 387 -51 384 -56 c 0,14,15
 369 -64 369 -64 314 -64 c 128,-1,16
 259 -64 259 -64 224 -60 c 1,17,18
 189 -64 189 -64 134.5 -64 c 128,-1,19
 80 -64 80 -64 64 -56 c 1,20,21
 58 -46 58 -46 74 -37 c 128,-1,22
 90 -28 90 -28 110 -21 c 1,23,24
 85 0 85 0 72 27.5 c 128,-1,25
 59 55 59 55 59 80 c 1,26,27
 58 79 58 79 57 77 c 128,-1,28
 56 75 56 75 52.5 69.5 c 128,-1,29
 49 64 49 64 45 59 c 128,-1,30
 41 54 41 54 36.5 48 c 128,-1,31
 32 42 32 42 28 37.5 c 128,-1,32
 24 33 24 33 20.5 30 c 128,-1,33
 17 27 17 27 14 28 c 0,34,35
 11 28 11 28 9 37.5 c 128,-1,36
 7 47 7 47 10.5 71 c 128,-1,37
 14 95 14 95 24 127 c 0,38,39
 31 152 31 152 64 233 c 1,40,41
 61 327 61 327 101.5 387.5 c 128,-1,42
 142 448 142 448 224 448 c 0,43,44
 305 448 305 448 346 388 c 128,-1,45
 387 328 387 328 384 233 c 1,46,47
 417 152 417 152 424 127 c 0,48,49
 434 95 434 95 437.5 71 c 128,-1,50
 441 47 441 47 439 37.5 c 128,-1,0
 437 28 437 28 434 27.5 c 128,-1,1
EndSplineSet
Validated: 33
EndChar

StartChar: slideshare
Encoding: 61927 61927 63
Width: 512
GlyphClass: 3
Flags: W
LayerCount: 2
Fore
SplineSet
187.5 294 m 128,-1,1
 213 294 213 294 231 277.5 c 128,-1,2
 249 261 249 261 249 237 c 128,-1,3
 249 213 249 213 231 196 c 128,-1,4
 213 179 213 179 187.5 179 c 128,-1,5
 162 179 162 179 144 196 c 128,-1,6
 126 213 126 213 126 237 c 128,-1,7
 126 261 126 261 144 277.5 c 128,-1,0
 162 294 162 294 187.5 294 c 128,-1,1
331.5 294 m 128,-1,9
 357 294 357 294 375 277.5 c 128,-1,10
 393 261 393 261 393 237 c 128,-1,11
 393 213 393 213 375 196 c 128,-1,12
 357 179 357 179 331.5 179 c 128,-1,13
 306 179 306 179 287.5 196 c 128,-1,14
 269 213 269 213 269 237 c 128,-1,15
 269 261 269 261 287.5 277.5 c 128,-1,8
 306 294 306 294 331.5 294 c 128,-1,9
488 204 m 2,16,17
 499 212 499 212 505 204.5 c 128,-1,18
 511 197 511 197 504 186 c 0,19,20
 469 144 469 144 398 114 c 1,21,22
 428 12 428 12 374 -40 c 0,23,24
 340 -73 340 -73 300 -62 c 0,25,26
 262 -52 262 -52 263 -10 c 0,27,28
 263 -9 263 -9 263 -6 c 128,-1,29
 263 -3 263 -3 263 2.5 c 128,-1,30
 263 8 263 8 263 15 c 128,-1,31
 263 22 263 22 263 30.5 c 128,-1,32
 263 39 263 39 263 48 c 128,-1,33
 263 57 263 57 263 66.5 c 128,-1,34
 263 76 263 76 263 84 c 1,35,36
 260 84 260 84 255.5 85.5 c 128,-1,37
 251 87 251 87 249 87 c 1,38,39
 249 79 249 79 249 69.5 c 128,-1,40
 249 60 249 60 249 51 c 128,-1,41
 249 42 249 42 249 33 c 128,-1,42
 249 24 249 24 249 16.5 c 128,-1,43
 249 9 249 9 249 3 c 128,-1,44
 249 -3 249 -3 249 -6 c 128,-1,45
 249 -9 249 -9 249 -10 c 0,46,47
 250 -51 250 -51 212 -62 c 0,48,49
 172 -73 172 -73 138 -40 c 0,50,51
 84 12 84 12 115 115 c 1,52,53
 43 144 43 144 8 187 c 0,54,55
 1 197 1 197 7 204.5 c 128,-1,56
 13 212 13 212 24 204 c 0,57,58
 25 204 25 204 27.5 202.5 c 128,-1,59
 30 201 30 201 31 200 c 1,60,-1
 31 398 l 2,61,62
 31 419 31 419 44.5 433.5 c 128,-1,63
 58 448 58 448 77 448 c 2,64,-1
 436 448 l 2,65,66
 448 448 448 448 458.5 441.5 c 128,-1,67
 469 435 469 435 475.5 423.5 c 128,-1,68
 482 412 482 412 482 398 c 2,69,-1
 482 200 l 1,70,-1
 488 204 l 2,16,17
457 185 m 1,71,-1
 457 376 l 2,72,73
 457 392 457 392 453 402 c 128,-1,74
 449 412 449 412 440.5 416.5 c 128,-1,75
 432 421 432 421 416 421 c 2,76,-1
 99 421 l 2,77,78
 75 421 75 421 66.5 411.5 c 128,-1,79
 58 402 58 402 58 376 c 2,80,-1
 58 183 l 1,81,82
 89 167 89 167 122 160 c 128,-1,83
 155 153 155 153 175.5 154 c 128,-1,84
 196 155 196 155 216 155 c 0,85,86
 235 156 235 156 243 148 c 0,87,88
 253 138 253 138 263 130 c 1,89,90
 265 157 265 157 297 155 c 0,91,92
 316 155 316 155 337 154 c 128,-1,93
 358 153 358 153 392 160.5 c 128,-1,94
 426 168 426 168 457 185 c 1,71,-1
EndSplineSet
Validated: 33
EndChar

StartChar: twitch
Encoding: 61928 61928 64
Width: 448
GlyphClass: 3
Flags: W
LayerCount: 2
Fore
SplineSet
40 416 m 1,0,-1
 438 416 l 1,1,-1
 438 142 l 1,2,-1
 321 25 l 1,3,-1
 234 25 l 1,4,-1
 177 -32 l 1,5,-1
 117 -32 l 1,6,-1
 117 25 l 1,7,-1
 10 25 l 1,8,-1
 10 339 l 1,9,-1
 40 416 l 1,0,-1
398 162 m 1,10,-1
 398 376 l 1,11,-1
 77 376 l 1,12,-1
 77 95 l 1,13,-1
 167 95 l 1,14,-1
 167 38 l 1,15,-1
 224 95 l 1,16,-1
 331 95 l 1,17,-1
 398 162 l 1,10,-1
331 299 m 1,18,-1
 331 182 l 1,19,-1
 291 182 l 1,20,-1
 291 299 l 1,21,-1
 331 299 l 1,18,-1
224 299 m 1,22,-1
 224 182 l 1,23,-1
 184 182 l 1,24,-1
 184 299 l 1,25,-1
 224 299 l 1,22,-1
EndSplineSet
Validated: 1
EndChar

StartChar: paypal
Encoding: 61933 61933 65
Width: 384
GlyphClass: 3
Flags: W
LayerCount: 2
Fore
SplineSet
111 152 m 0,0,1
 111 148 111 148 109 137.5 c 128,-1,2
 107 127 107 127 105 114.5 c 128,-1,3
 103 102 103 102 101 87.5 c 128,-1,4
 99 73 99 73 97 60 c 128,-1,5
 95 47 95 47 93 35.5 c 128,-1,6
 91 24 91 24 90 18 c 0,7,8
 89 16 89 16 87 16 c 2,9,-1
 12 16 l 2,10,11
 7 16 7 16 3 20 c 128,-1,12
 -1 24 -1 24 0 30 c 2,13,-1
 59 401 l 2,14,15
 60 409 60 409 65.5 413.5 c 128,-1,16
 71 418 71 418 79 418 c 0,17,18
 107 418 107 418 143 418.5 c 128,-1,19
 179 419 179 419 191.5 419 c 128,-1,20
 204 419 204 419 222 418.5 c 128,-1,21
 240 418 240 418 247.5 416.5 c 128,-1,22
 255 415 255 415 264 413 c 128,-1,23
 273 411 273 411 283 407 c 0,24,25
 325 390 325 390 335 350.5 c 128,-1,26
 345 311 345 311 327 267 c 0,27,28
 296 178 296 178 187 176 c 0,29,30
 179 176 179 176 163.5 176.5 c 128,-1,31
 148 177 148 177 142.5 176.5 c 128,-1,32
 137 176 137 176 128.5 174 c 128,-1,33
 120 172 120 172 116.5 166.5 c 128,-1,34
 113 161 113 161 111 152 c 0,0,1
357 296 m 0,35,36
 393 269 393 269 381 203 c 0,37,38
 359 91 359 91 238 91 c 0,39,40
 237 91 237 91 233.5 91 c 128,-1,41
 230 91 230 91 229 91 c 128,-1,42
 228 91 228 91 225 91 c 128,-1,43
 222 91 222 91 221 90.5 c 128,-1,44
 220 90 220 90 218 89 c 128,-1,45
 216 88 216 88 215 86.5 c 128,-1,46
 214 85 214 85 212.5 83 c 128,-1,47
 211 81 211 81 210 78 c 128,-1,48
 209 75 209 75 209 71 c 0,49,50
 195 -16 195 -16 194 -20 c 0,51,52
 191 -35 191 -35 177 -35 c 2,53,-1
 113 -35 l 2,54,55
 108 -35 108 -35 105 -31 c 128,-1,56
 102 -27 102 -27 103 -22 c 0,57,58
 107 8 107 8 130 148 c 0,59,60
 131 157 131 157 141 157 c 0,61,62
 142 157 142 157 158 157 c 128,-1,63
 174 157 174 157 179.5 157 c 128,-1,64
 185 157 185 157 201 158 c 128,-1,65
 217 159 217 159 225 161 c 128,-1,66
 233 163 233 163 248 166.5 c 128,-1,67
 263 170 263 170 272 175.5 c 128,-1,68
 281 181 281 181 293.5 188.5 c 128,-1,69
 306 196 306 196 314 206.5 c 128,-1,70
 322 217 322 217 330.5 230.5 c 128,-1,71
 339 244 339 244 345 261 c 0,72,73
 351 279 351 279 354 295 c 0,74,75
 355 298 355 298 357 296 c 0,35,36
EndSplineSet
Validated: 33
EndChar

StartChar: google-wallet
Encoding: 61934 61934 66
Width: 448
GlyphClass: 3
Flags: W
LayerCount: 2
Fore
SplineSet
157 321 m 1,0,1
 210 236 210 236 241 159 c 1,2,3
 229 109 229 109 210 60 c 1,4,5
 185 159 185 159 154 209 c 1,6,7
 156 222 156 222 157 237 c 128,-1,8
 158 252 158 252 157.5 264 c 128,-1,9
 157 276 157 276 157 293 c 128,-1,10
 157 310 157 310 157 321 c 1,0,1
109 248 m 2,11,12
 117 248 117 248 122 242 c 0,13,14
 177 166 177 166 205 48 c 1,15,-1
 101 48 l 1,16,17
 70 158 70 158 10 235 c 0,18,19
 7 239 7 239 9 243.5 c 128,-1,20
 11 248 11 248 16 248 c 2,21,-1
 109 248 l 2,11,12
157 336 m 1,22,-1
 266 336 l 1,23,24
 392 162 392 162 409 -32 c 1,25,-1
 295 -32 l 1,26,27
 285 134 285 134 157 336 c 1,22,-1
409 404 m 0,28,29
 440 294 440 294 440 192 c 0,30,31
 440 86 440 86 415 -11 c 1,32,33
 398 127 398 127 324 260 c 1,34,35
 318 334 318 334 298 406 c 0,36,37
 297 410 297 410 299 413 c 128,-1,38
 301 416 301 416 305 416 c 2,39,-1
 394 416 l 2,40,41
 406 416 406 416 409 404 c 0,28,29
EndSplineSet
Validated: 545
EndChar

StartChar: cc-visa
Encoding: 61936 61936 67
Width: 576
GlyphClass: 3
Flags: W
LayerCount: 2
Fore
SplineSet
470 217 m 2,0,1
 478 179 478 179 479 172 c 1,2,-1
 446 172 l 1,3,-1
 462 215 l 1,4,5
 462 215 462 215 463 217.5 c 128,-1,6
 464 220 464 220 465 224 c 128,-1,7
 466 228 466 228 467 230 c 1,8,-1
 470 217 l 2,0,1
576 368 m 2,9,-1
 576 16 l 2,10,11
 576 -4 576 -4 562 -18 c 128,-1,12
 548 -32 548 -32 528 -32 c 2,13,-1
 48 -32 l 2,14,15
 28 -32 28 -32 14 -18 c 128,-1,16
 0 -4 0 -4 0 16 c 2,17,-1
 0 368 l 2,18,19
 0 388 0 388 14 402 c 128,-1,20
 28 416 28 416 48 416 c 2,21,-1
 528 416 l 2,22,23
 548 416 548 416 562 402 c 128,-1,24
 576 388 576 388 576 368 c 2,9,-1
152 117 m 1,25,-1
 216 272 l 1,26,-1
 173 272 l 1,27,-1
 134 166 l 1,28,-1
 130 188 l 1,29,-1
 116 259 l 2,30,31
 113 271 113 271 97 272 c 2,32,-1
 33 272 l 1,33,-1
 32 269 l 1,34,35
 55 263 55 263 74 252 c 1,36,-1
 110 117 l 1,37,-1
 152 117 l 1,25,-1
247 117 m 1,38,-1
 272 272 l 1,39,-1
 232 272 l 1,40,-1
 207 117 l 1,41,-1
 247 117 l 1,38,-1
387 167 m 0,42,43
 387 193 387 193 353 210 c 0,44,45
 330 221 330 221 330 229 c 0,46,47
 331 242 331 242 354 242 c 0,48,49
 369 243 369 243 383 236 c 2,50,-1
 387 235 l 1,51,-1
 392 268 l 1,52,53
 376 275 376 275 356 275 c 0,54,55
 337 275 337 275 321.5 268.5 c 128,-1,56
 306 262 306 262 297.5 250 c 128,-1,57
 289 238 289 238 289 224 c 0,58,59
 288 199 288 199 324 181 c 0,60,61
 345 171 345 171 345 162 c 0,62,63
 344 147 344 147 321 147 c 0,64,65
 302 147 302 147 283 155 c 2,66,-1
 278 158 l 1,67,-1
 272 123 l 1,68,69
 289 115 289 115 317 114 c 0,70,71
 348 114 348 114 367.5 128.5 c 128,-1,72
 387 143 387 143 387 167 c 0,42,43
528 117 m 1,73,-1
 496 272 l 1,74,-1
 464 272 l 2,75,76
 449 272 449 272 444 259 c 2,77,-1
 384 117 l 1,78,-1
 426 117 l 1,79,80
 433 136 433 136 434 140 c 1,81,-1
 486 140 l 1,82,-1
 491 117 l 1,83,-1
 528 117 l 1,73,-1
EndSplineSet
Validated: 545
EndChar

StartChar: cc-mastercard
Encoding: 61937 61937 68
Width: 576
GlyphClass: 3
Flags: W
LayerCount: 2
Fore
SplineSet
483 37.5 m 128,-1,1
 483 26 483 26 471.5 26 c 128,-1,2
 460 26 460 26 460 37.5 c 128,-1,3
 460 49 460 49 471.5 49 c 128,-1,0
 483 49 483 49 483 37.5 c 128,-1,1
172 49 m 256,4,5
 183 49 183 49 183 37.5 c 128,-1,6
 183 26 183 26 172 26 c 256,7,8
 161 26 161 26 161 37.5 c 128,-1,9
 161 49 161 49 172 49 c 256,4,5
289.5 50 m 128,-1,11
 298 50 298 50 299 41 c 1,12,-1
 280 41 l 1,13,10
 281 50 281 50 289.5 50 c 128,-1,11
397 49 m 0,14,15
 409 49 409 49 409 37.5 c 128,-1,16
 409 26 409 26 397 26 c 0,17,18
 386 26 386 26 386 37.5 c 128,-1,19
 386 49 386 49 397 49 c 0,14,15
503 23 m 1,20,21
 504 23 504 23 504 22 c 2,22,23
 504 22 504 22 503.5 21.5 c 128,-1,24
 503 21 503 21 503 21 c 2,25,26
 503 20 503 20 503 20 c 1,27,28
 502 20 502 20 502 20 c 2,29,30
 501 20 501 20 501 20 c 2,31,32
 500 20 500 20 500 20 c 2,33,34
 499 20 499 20 499 20 c 2,35,36
 498 21 498 21 498 21 c 2,37,38
 498 22 498 22 498 22.5 c 128,-1,39
 498 23 498 23 498 23 c 2,40,41
 498 24 498 24 499 24 c 1,42,43
 499 25 499 25 499 25 c 1,44,-1
 500 25 l 1,45,46
 500 25 500 25 501 25 c 2,47,48
 501 25 501 25 502 25 c 0,49,50
 503 24 503 24 503 24 c 257,51,52
 503 24 503 24 503 23 c 1,20,21
501 22 m 1,53,54
 501 22 501 22 502 22 c 1,55,56
 502 22 502 22 502 23 c 128,-1,57
 502 24 502 24 502 24 c 257,58,59
 502 24 502 24 501 24 c 2,60,-1
 499 24 l 1,61,-1
 499 21 l 1,62,-1
 500 21 l 1,63,-1
 500 22 l 1,64,-1
 501 21 l 1,65,-1
 502 21 l 1,66,-1
 501 22 l 1,53,54
576 367 m 2,67,-1
 576 15 l 2,68,69
 576 -5 576 -5 562 -19 c 128,-1,70
 548 -33 548 -33 528 -33 c 2,71,-1
 48 -33 l 2,72,73
 28 -33 28 -33 14 -19 c 128,-1,74
 0 -5 0 -5 0 15 c 2,75,-1
 0 367 l 2,76,77
 0 387 0 387 14 401 c 128,-1,78
 28 415 28 415 48 415 c 2,79,-1
 528 415 l 2,80,81
 548 415 548 415 562 401 c 128,-1,82
 576 387 576 387 576 367 c 2,67,-1
64 227.5 m 128,-1,84
 64 170 64 170 104.5 129.5 c 128,-1,85
 145 89 145 89 202 89 c 0,86,87
 244 89 244 89 279 112 c 1,88,89
 224 157 224 157 224.5 227.5 c 128,-1,90
 225 298 225 298 279 342 c 1,91,92
 244 366 244 366 202 366 c 0,93,94
 145 366 145 366 104.5 325.5 c 128,-1,83
 64 285 64 285 64 227.5 c 128,-1,84
288 119 m 1,95,96
 341 160 341 160 341 227.5 c 128,-1,97
 341 295 341 295 288 336 c 1,98,99
 235 295 235 295 235 227.5 c 128,-1,100
 235 160 235 160 288 119 c 1,95,96
146 42 m 2,101,102
 146 57 146 57 131 57 c 0,103,104
 122 57 122 57 118 50 c 1,105,106
 114 57 114 57 106 57 c 0,107,108
 99 57 99 57 95 52 c 1,109,-1
 95 56 l 1,110,-1
 87 56 l 1,111,-1
 87 19 l 1,112,-1
 95 19 l 1,113,114
 95 22 95 22 95 26.5 c 128,-1,115
 95 31 95 31 95 33.5 c 128,-1,116
 95 36 95 36 95 39 c 128,-1,117
 95 42 95 42 96 43.5 c 128,-1,118
 97 45 97 45 98 46.5 c 128,-1,119
 99 48 99 48 100.5 49 c 128,-1,120
 102 50 102 50 104 50 c 0,121,122
 110 50 110 50 111.5 45 c 128,-1,123
 113 40 113 40 113 28 c 0,124,125
 113 22 113 22 113 19 c 1,126,-1
 120 19 l 1,127,128
 120 22 120 22 120 26.5 c 128,-1,129
 120 31 120 31 120 33.5 c 128,-1,130
 120 36 120 36 120.5 39 c 128,-1,131
 121 42 121 42 121.5 43.5 c 128,-1,132
 122 45 122 45 123 46.5 c 128,-1,133
 124 48 124 48 125.5 49 c 128,-1,134
 127 50 127 50 130 50 c 0,135,136
 135 50 135 50 136.5 45 c 128,-1,137
 138 40 138 40 138 28 c 0,138,139
 138 22 138 22 138 19 c 1,140,-1
 146 19 l 1,141,-1
 146 42 l 2,101,102
191 56 m 1,142,-1
 183 56 l 1,143,-1
 183 52 l 1,144,145
 178 57 178 57 171 57 c 0,146,147
 163 57 163 57 158 51.5 c 128,-1,148
 153 46 153 46 153 37.5 c 128,-1,149
 153 29 153 29 158 23.5 c 128,-1,150
 163 18 163 18 171 18 c 256,151,152
 179 18 179 18 183 24 c 1,153,-1
 183 19 l 1,154,-1
 191 19 l 1,155,-1
 191 56 l 1,142,-1
231 30 m 256,156,157
 231 39 231 39 219.5 41 c 128,-1,158
 208 43 208 43 208 46 c 0,159,160
 208 50 208 50 215 50 c 128,-1,161
 222 50 222 50 227 47 c 1,162,-1
 230 53 l 1,163,164
 223 59 223 59 211.5 57 c 128,-1,165
 200 55 200 55 200 45 c 0,166,167
 200 37 200 37 211.5 34.5 c 128,-1,168
 223 32 223 32 223 30 c 0,169,170
 223 25 223 25 215 25 c 128,-1,171
 207 25 207 25 202 29 c 1,172,-1
 198 23 l 1,173,174
 207 17 207 17 219 19 c 128,-1,175
 231 21 231 21 231 30 c 256,156,157
266 21 m 2,176,-1
 264 28 l 1,177,178
 252 21 252 21 252 32 c 2,179,-1
 252 49 l 1,180,-1
 265 49 l 1,181,-1
 265 56 l 1,182,-1
 252 56 l 1,183,-1
 252 67 l 1,184,-1
 244 67 l 1,185,-1
 244 56 l 1,186,-1
 236 56 l 1,187,-1
 236 49 l 1,188,-1
 244 49 l 1,189,-1
 244 32 l 2,190,191
 244 20 244 20 253.5 18.5 c 128,-1,192
 263 17 263 17 266 21 c 2,176,-1
280 34 m 1,193,-1
 307 34 l 1,194,195
 307 57 307 57 290 57 c 0,196,197
 282 57 282 57 277 51.5 c 128,-1,198
 272 46 272 46 272 38 c 0,199,200
 272 23 272 23 284.5 19 c 128,-1,201
 297 15 297 15 306 24 c 1,202,-1
 302 30 l 1,203,204
 296 24 296 24 288.5 25.5 c 128,-1,205
 281 27 281 27 280 34 c 1,193,-1
339 56 m 1,206,207
 329 60 329 60 324 52 c 1,208,-1
 324 56 l 1,209,-1
 316 56 l 1,210,-1
 316 19 l 1,211,-1
 324 19 l 1,212,-1
 324 40 l 2,213,214
 324 48 324 48 329 49.5 c 128,-1,215
 334 51 334 51 336 48 c 1,216,-1
 339 56 l 1,206,207
350 37.5 m 128,-1,218
 350 46 350 46 356.5 48.5 c 128,-1,219
 363 51 363 51 370 46 c 1,220,-1
 374 53 l 1,221,222
 365 60 365 60 353 55.5 c 128,-1,223
 341 51 341 51 341 38 c 0,224,225
 341 24 341 24 353.5 19.5 c 128,-1,226
 366 15 366 15 374 23 c 1,227,-1
 370 29 l 1,228,229
 363 24 363 24 356.5 26.5 c 128,-1,217
 350 29 350 29 350 37.5 c 128,-1,218
416 56 m 1,230,-1
 408 56 l 1,231,-1
 408 52 l 1,232,233
 402 60 402 60 390 55.5 c 128,-1,234
 378 51 378 51 378 38 c 0,235,236
 378 24 378 24 390 19.5 c 128,-1,237
 402 15 402 15 408 24 c 1,238,-1
 408 19 l 1,239,-1
 416 19 l 1,240,-1
 416 56 l 1,230,-1
450 56 m 1,241,242
 440 61 440 61 435 52 c 1,243,-1
 435 56 l 1,244,-1
 427 56 l 1,245,-1
 427 19 l 1,246,-1
 435 19 l 1,247,-1
 435 40 l 2,248,249
 435 47 435 47 440 49 c 128,-1,250
 445 51 445 51 448 48 c 1,251,-1
 450 56 l 1,241,242
490 71 m 1,252,-1
 482 71 l 1,253,-1
 482 52 l 1,254,255
 476 60 476 60 464 55.5 c 128,-1,256
 452 51 452 51 452 37.5 c 128,-1,257
 452 24 452 24 464.5 19.5 c 128,-1,258
 477 15 477 15 482 24 c 1,259,-1
 482 19 l 1,260,-1
 490 19 l 1,261,-1
 490 71 l 1,252,-1
498 146 m 1,262,-1
 498 141 l 1,263,-1
 499 141 l 1,264,-1
 499 146 l 1,265,-1
 500 146 l 1,266,-1
 500 147 l 1,267,-1
 496 147 l 1,268,-1
 496 146 l 1,269,-1
 498 146 l 1,262,-1
504 22 m 256,270,271
 504 23 504 23 504 24 c 0,272,273
 503 25 503 25 503 25 c 2,274,275
 502 26 502 26 502 26 c 129,-1,276
 502 26 502 26 501 26 c 256,277,278
 500 26 500 26 500 26 c 129,-1,279
 500 26 500 26 499 26 c 0,280,281
 498 25 498 25 498 25 c 2,282,283
 497 24 497 24 497 24 c 2,284,285
 497 23 497 23 497 22 c 256,286,287
 497 21 497 21 497 21 c 2,288,289
 497 20 497 20 498 20 c 0,290,291
 499 19 499 19 499.5 19 c 128,-1,292
 500 19 500 19 501 19 c 256,293,294
 502 19 502 19 502 19 c 257,295,296
 502 19 502 19 502.5 19.5 c 128,-1,297
 503 20 503 20 503 20 c 129,-1,298
 503 20 503 20 503.5 20.5 c 128,-1,299
 504 21 504 21 504 21 c 257,300,301
 504 21 504 21 504 22 c 256,270,271
508 147 m 1,302,-1
 506 147 l 1,303,-1
 505 143 l 1,304,-1
 503 147 l 1,305,-1
 502 147 l 1,306,-1
 502 142 l 1,307,-1
 502 146 l 1,308,-1
 504 142 l 1,309,-1
 505 142 l 1,310,-1
 506 146 l 1,311,-1
 506 142 l 1,312,-1
 508 142 l 1,313,-1
 508 147 l 1,302,-1
512 227 m 0,314,315
 512 285 512 285 471.5 325.5 c 128,-1,316
 431 366 431 366 374 366 c 0,317,318
 332 366 332 366 297 343 c 1,319,320
 351 298 351 298 351.5 227.5 c 128,-1,321
 352 157 352 157 297 112 c 1,322,323
 332 89 332 89 374 89 c 0,324,325
 431 89 431 89 471.5 129.5 c 128,-1,326
 512 170 512 170 512 227 c 0,314,315
EndSplineSet
Validated: 549
EndChar

StartChar: cc-discover
Encoding: 61938 61938 69
Width: 576
GlyphClass: 3
Flags: W
LayerCount: 2
Fore
SplineSet
520 252 m 0,0,1
 520 239 520 239 505 239 c 2,2,-1
 500 239 l 1,3,-1
 500 264 l 1,4,-1
 505 264 l 2,5,6
 520 264 520 264 520 252 c 0,0,1
528 416 m 2,7,8
 548 416 548 416 562 402 c 128,-1,9
 576 388 576 388 576 368 c 2,10,-1
 576 16 l 2,11,12
 576 -4 576 -4 562 -18 c 128,-1,13
 548 -32 548 -32 528 -32 c 2,14,-1
 48 -32 l 2,15,16
 28 -32 28 -32 14 -18 c 128,-1,17
 0 -4 0 -4 0 16 c 2,18,-1
 0 368 l 2,19,20
 0 388 0 388 14 402 c 128,-1,21
 28 416 28 416 48 416 c 2,22,-1
 528 416 l 2,7,8
484 277 m 1,23,-1
 484 195 l 1,24,-1
 500 195 l 1,25,-1
 500 228 l 1,26,-1
 502 228 l 1,27,-1
 524 195 l 1,28,-1
 544 195 l 1,29,-1
 518 230 l 1,30,31
 537 233 537 233 537 253 c 0,32,33
 537 259 537 259 535.5 263 c 128,-1,34
 534 267 534 267 530 270 c 128,-1,35
 526 273 526 273 523 274.5 c 128,-1,36
 520 276 520 276 513.5 276.5 c 128,-1,37
 507 277 507 277 504.5 277 c 128,-1,38
 502 277 502 277 494 277 c 128,-1,39
 486 277 486 277 484 277 c 1,23,-1
428 277 m 1,40,-1
 428 195 l 1,41,-1
 473 195 l 1,42,-1
 473 209 l 1,43,-1
 444 209 l 1,44,-1
 444 231 l 1,45,-1
 472 231 l 1,46,-1
 472 245 l 1,47,-1
 444 245 l 1,48,-1
 444 263 l 1,49,-1
 473 263 l 1,50,-1
 473 277 l 1,51,-1
 428 277 l 1,40,-1
359 277 m 1,52,-1
 342 277 l 1,53,-1
 377 193 l 1,54,-1
 385 193 l 1,55,-1
 421 277 l 1,56,-1
 403 277 l 1,57,-1
 381 222 l 1,58,-1
 359 277 l 1,52,-1
303.5 280 m 128,-1,60
 285 280 285 280 272 267 c 128,-1,61
 259 254 259 254 259 235.5 c 128,-1,62
 259 217 259 217 272 204 c 128,-1,63
 285 191 285 191 303.5 191 c 128,-1,64
 322 191 322 191 335 204 c 128,-1,65
 348 217 348 217 348 235.5 c 128,-1,66
 348 254 348 254 335 267 c 128,-1,59
 322 280 322 280 303.5 280 c 128,-1,60
254 274 m 1,67,68
 238 281 238 281 224 278 c 128,-1,69
 210 275 210 275 200.5 263 c 128,-1,70
 191 251 191 251 191 236 c 0,71,72
 191 224 191 224 196.5 214 c 128,-1,73
 202 204 202 204 211 199 c 128,-1,74
 220 194 220 194 231.5 193 c 128,-1,75
 243 192 243 192 254 198 c 1,76,-1
 254 217 l 1,77,78
 240 203 240 203 223.5 210 c 128,-1,79
 207 217 207 217 207 236 c 0,80,81
 207 254 207 254 223 261.5 c 128,-1,82
 239 269 239 269 254 255 c 1,83,-1
 254 274 l 1,67,68
157 208 m 0,84,85
 145 208 145 208 139 218 c 1,86,-1
 129 208 l 1,87,88
 142 189 142 189 164 193.5 c 128,-1,89
 186 198 186 198 186 220 c 0,90,91
 186 230 186 230 181 235 c 128,-1,92
 176 240 176 240 162 245 c 0,93,94
 150 250 150 250 150 256 c 0,95,96
 150 263 150 263 158.5 264.5 c 128,-1,97
 167 266 167 266 175 258 c 1,98,-1
 183 269 l 1,99,100
 169 282 169 282 151 277 c 128,-1,101
 133 272 133 272 133 255 c 0,102,103
 133 239 133 239 154 232 c 0,104,105
 165 228 165 228 168 222 c 128,-1,106
 171 216 171 216 167 212 c 128,-1,107
 163 208 163 208 157 208 c 0,84,85
55 195 m 2,108,109
 77 195 77 195 88.5 207.5 c 128,-1,110
 100 220 100 220 100 236 c 0,111,112
 100 248 100 248 94 257.5 c 128,-1,113
 88 267 88 267 78 272 c 128,-1,114
 68 277 68 277 55 277 c 2,115,-1
 32 277 l 1,116,-1
 32 195 l 1,117,-1
 55 195 l 2,108,109
123 195 m 1,118,-1
 123 277 l 1,119,-1
 107 277 l 1,120,-1
 107 195 l 1,121,-1
 123 195 l 1,118,-1
544 15 m 2,122,-1
 544 160 l 1,123,124
 493 128 493 128 371.5 75.5 c 128,-1,125
 250 23 250 23 128 0 c 1,126,-1
 529 0 l 2,127,128
 535 0 535 0 539.5 4.5 c 128,-1,129
 544 9 544 9 544 15 c 2,122,-1
74 256 m 0,130,131
 83 249 83 249 83 236 c 128,-1,132
 83 223 83 223 74 215 c 0,133,134
 67 209 67 209 52 209 c 2,135,-1
 48 209 l 1,136,-1
 48 263 l 1,137,-1
 52 263 l 2,138,139
 67 263 67 263 74 256 c 0,130,131
EndSplineSet
Validated: 545
EndChar

StartChar: cc-paypal
Encoding: 61940 61940 70
Width: 576
GlyphClass: 3
Flags: W
LayerCount: 2
Fore
SplineSet
186 190 m 0,0,1
 186 181 186 181 180 174.5 c 128,-1,2
 174 168 174 168 164 168 c 0,3,4
 148 168 148 168 148 183 c 0,5,6
 148 192 148 192 154.5 198.5 c 128,-1,7
 161 205 161 205 170 205 c 0,8,9
 186 205 186 205 186 190 c 0,0,1
80 238 m 2,10,11
 91 238 91 238 95.5 235.5 c 128,-1,12
 100 233 100 233 98 223 c 0,13,14
 96 209 96 209 76 209 c 2,15,-1
 68 209 l 1,16,-1
 73 236 l 2,17,18
 73 238 73 238 76 238 c 2,19,-1
 80 238 l 2,10,11
364 238 m 2,20,21
 382 238 382 238 383 227 c 0,22,23
 383 209 383 209 361 209 c 2,24,-1
 353 209 l 1,25,-1
 357 236 l 2,26,27
 357 238 357 238 360 238 c 2,28,-1
 364 238 l 2,20,21
576 368 m 2,29,-1
 576 16 l 2,30,31
 576 -4 576 -4 562 -18 c 128,-1,32
 548 -32 548 -32 528 -32 c 2,33,-1
 48 -32 l 2,34,35
 28 -32 28 -32 14 -18 c 128,-1,36
 0 -4 0 -4 0 16 c 2,37,-1
 0 368 l 2,38,39
 0 388 0 388 14 402 c 128,-1,40
 28 416 28 416 48 416 c 2,41,-1
 528 416 l 2,42,43
 548 416 548 416 562 402 c 128,-1,44
 576 388 576 388 576 368 c 2,29,-1
128 233 m 0,45,46
 128 261 128 261 94 261 c 2,47,-1
 54 261 l 2,48,49
 49 261 49 261 48 256 c 2,50,-1
 32 154 l 2,51,52
 31 150 31 150 35 150 c 2,53,-1
 54 150 l 2,54,55
 59 150 59 150 60 156 c 2,56,-1
 64 182 l 2,57,58
 64 184 64 184 65.5 185.5 c 128,-1,59
 67 187 67 187 69.5 187 c 128,-1,60
 72 187 72 187 74 187 c 128,-1,61
 76 187 76 187 78.5 187 c 128,-1,62
 81 187 81 187 82 187 c 0,63,64
 104 187 104 187 116 199 c 128,-1,65
 128 211 128 211 128 233 c 0,45,46
212 224 m 2,66,-1
 194 224 l 2,67,68
 190 224 190 224 189 216 c 1,69,70
 182 226 182 226 166 226 c 0,71,72
 148 226 148 226 135 212.5 c 128,-1,73
 122 199 122 199 122 180 c 0,74,75
 122 166 122 166 131 157 c 128,-1,76
 140 148 140 148 154 148 c 0,77,78
 170 148 170 148 181 160 c 1,79,80
 180 157 180 157 180 154 c 0,81,82
 180 150 180 150 183 150 c 2,83,-1
 200 150 l 2,84,85
 204 150 204 150 206 156 c 2,86,-1
 216 220 l 2,87,88
 216 224 216 224 212 224 c 2,66,-1
253 126 m 2,89,-1
 317 218 l 2,90,91
 317 219 317 219 317 220 c 0,92,93
 317 224 317 224 314 224 c 2,94,-1
 295 224 l 2,95,96
 292 224 292 224 290 221 c 2,97,-1
 264 182 l 1,98,-1
 253 220 l 2,99,100
 251 224 251 224 247 224 c 2,101,-1
 229 224 l 2,102,103
 225 224 225 224 225 220 c 2,104,105
 225 220 225 220 230 205.5 c 128,-1,106
 235 191 235 191 240.5 175.5 c 128,-1,107
 246 160 246 160 247 158 c 0,108,109
 226 129 226 129 226 126 c 256,110,111
 226 123 226 123 229 123 c 2,112,-1
 248 123 l 2,113,114
 251 123 251 123 253 126 c 2,89,-1
412 233 m 0,115,116
 412 261 412 261 378 261 c 2,117,-1
 338 261 l 2,118,119
 333 261 333 261 332 256 c 2,120,-1
 316 154 l 2,121,122
 316 150 316 150 319 150 c 2,123,-1
 340 150 l 2,124,125
 343 150 343 150 344 153 c 2,126,-1
 348 182 l 2,127,128
 349 184 349 184 350.5 185.5 c 128,-1,129
 352 187 352 187 354 187 c 128,-1,130
 356 187 356 187 358 187 c 128,-1,131
 360 187 360 187 363 187 c 128,-1,132
 366 187 366 187 366 187 c 2,133,134
 388 187 388 187 400 199 c 128,-1,135
 412 211 412 211 412 233 c 0,115,116
496 224 m 2,136,-1
 478 224 l 2,137,138
 474 224 474 224 473 216 c 1,139,140
 467 226 467 226 450 226 c 0,141,142
 431 226 431 226 418.5 212.5 c 128,-1,143
 406 199 406 199 406 180 c 0,144,145
 406 166 406 166 414.5 157 c 128,-1,146
 423 148 423 148 438 148 c 0,147,148
 454 148 454 148 464 160 c 1,149,150
 464 155 464 155 464 154 c 0,151,152
 464 150 464 150 467 150 c 2,153,-1
 484 150 l 2,154,155
 488 150 488 150 490 156 c 2,156,-1
 500 220 l 2,157,158
 500 224 500 224 496 224 c 2,136,-1
544 257 m 2,159,160
 544 261 544 261 541 261 c 2,161,-1
 522 261 l 2,162,163
 519 261 519 261 519 258 c 2,164,-1
 503 154 l 1,165,-1
 503 153 l 2,166,167
 503 150 503 150 506 150 c 2,168,-1
 523 150 l 2,169,170
 527 150 527 150 528 156 c 2,171,-1
 544 257 l 2,159,160
454 205 m 0,172,173
 470 205 470 205 470 190 c 0,174,175
 470 181 470 181 464 174.5 c 128,-1,176
 458 168 458 168 448 168 c 0,177,178
 432 168 432 168 432 183 c 0,179,180
 432 193 432 193 438.5 199 c 128,-1,181
 445 205 445 205 454 205 c 0,172,173
EndSplineSet
Validated: 513
EndChar

StartChar: cc-stripe
Encoding: 61941 61941 71
Width: 576
GlyphClass: 3
Flags: W
LayerCount: 2
Fore
SplineSet
492 227 m 0,0,1
 500 227 500 227 505 221.5 c 128,-1,2
 510 216 510 216 510 204 c 1,3,-1
 474 204 l 1,4,5
 474 212 474 212 476.5 217.5 c 128,-1,6
 479 223 479 223 483.5 225 c 128,-1,7
 488 227 488 227 492 227 c 0,0,1
375 225 m 0,8,9
 381 225 381 225 386 220.5 c 128,-1,10
 391 216 391 216 394 208.5 c 128,-1,11
 397 201 397 201 397 192 c 0,12,13
 397 177 397 177 391 167.5 c 128,-1,14
 385 158 385 158 375 158 c 256,15,16
 365 158 365 158 358 165 c 1,17,-1
 358 218 l 1,18,19
 364 225 364 225 375 225 c 0,8,9
528 416 m 2,20,21
 548 416 548 416 562 402 c 128,-1,22
 576 388 576 388 576 368 c 2,23,-1
 576 16 l 2,24,25
 576 -4 576 -4 562 -18 c 128,-1,26
 548 -32 548 -32 528 -32 c 2,27,-1
 48 -32 l 2,28,29
 28 -32 28 -32 14 -18 c 128,-1,30
 0 -4 0 -4 0 16 c 2,31,-1
 0 368 l 2,32,33
 0 388 0 388 14 402 c 128,-1,34
 28 416 28 416 48 416 c 2,35,-1
 528 416 l 2,20,21
122 167 m 0,36,37
 122 185 122 185 108.5 194.5 c 128,-1,38
 95 204 95 204 81.5 208 c 128,-1,39
 68 212 68 212 68 218 c 0,40,41
 68 225 68 225 80 225 c 0,42,43
 98 225 98 225 115 216 c 1,44,-1
 115 250 l 1,45,46
 99 256 99 256 80 256 c 0,47,48
 66 256 66 256 55 251.5 c 128,-1,49
 44 247 44 247 38 237.5 c 128,-1,50
 32 228 32 228 32 216 c 0,51,52
 32 199 32 199 45.5 190 c 128,-1,53
 59 181 59 181 72.5 176.5 c 128,-1,54
 86 172 86 172 86 166 c 0,55,56
 86 157 86 157 72 157 c 0,57,58
 55 157 55 157 34 169 c 1,59,-1
 34 135 l 1,60,61
 52 127 52 127 72 127 c 0,62,63
 95 127 95 127 108.5 137.5 c 128,-1,64
 122 148 122 148 122 167 c 0,36,37
191 224 m 1,65,-1
 191 254 l 1,66,-1
 164 254 l 1,67,-1
 164 285 l 1,68,-1
 129 277 l 1,69,-1
 129 163 l 2,70,71
 129 148 129 148 139.5 137.5 c 128,-1,72
 150 127 150 127 166 127 c 0,73,74
 183 127 183 127 191 132 c 1,75,-1
 191 160 l 1,76,77
 188 157 188 157 176 158.5 c 128,-1,78
 164 160 164 160 164 173 c 2,79,-1
 164 224 l 1,80,-1
 191 224 l 1,65,-1
265 221 m 1,81,-1
 265 254 l 1,82,83
 245 261 245 261 235 243 c 1,84,-1
 233 254 l 1,85,-1
 202 254 l 1,86,-1
 202 129 l 1,87,-1
 238 129 l 1,88,-1
 238 214 l 1,89,90
 248 227 248 227 265 221 c 1,81,-1
309 129 m 1,91,-1
 309 254 l 1,92,-1
 273 254 l 1,93,-1
 273 129 l 1,94,-1
 309 129 l 1,91,-1
309 272 m 1,95,-1
 309 301 l 1,96,-1
 273 294 l 1,97,-1
 273 265 l 1,98,-1
 309 272 l 1,95,-1
383 127 m 0,99,100
 404 127 404 127 418 143.5 c 128,-1,101
 432 160 432 160 432 192 c 0,102,103
 432 222 432 222 417.5 239 c 128,-1,104
 403 256 403 256 383 256 c 0,105,106
 368 256 368 256 356 245 c 1,107,-1
 354 254 l 1,108,-1
 322 254 l 1,109,-1
 322 88 l 1,110,-1
 358 96 l 1,111,-1
 358 136 l 1,112,113
 371 127 371 127 383 127 c 0,99,100
544 178 m 1,114,115
 544 186 544 186 544 191 c 0,116,117
 544 220 544 220 530.5 238 c 128,-1,118
 517 256 517 256 493 256 c 0,119,120
 480 256 480 256 470 251 c 128,-1,121
 460 246 460 246 453 237.5 c 128,-1,122
 446 229 446 229 442 217 c 128,-1,123
 438 205 438 205 438 191 c 0,124,125
 438 170 438 170 446 155.5 c 128,-1,126
 454 141 454 141 467 134 c 128,-1,127
 480 127 480 127 497 127 c 0,128,129
 520 127 520 127 537 136 c 1,130,-1
 537 165 l 1,131,132
 521 157 521 157 502 157 c 0,133,134
 476 157 476 157 474 178 c 1,135,-1
 544 178 l 1,114,115
EndSplineSet
Validated: 545
EndChar

StartChar: lastfm
Encoding: 61954 61954 72
Width: 512
GlyphClass: 3
Flags: W
LayerCount: 2
Fore
SplineSet
226 81 m 2,0,1
 225 80 225 80 222 77.5 c 128,-1,2
 219 75 219 75 210 70 c 128,-1,3
 201 65 201 65 191 61 c 128,-1,4
 181 57 181 57 163.5 53.5 c 128,-1,5
 146 50 146 50 128 50 c 0,6,7
 66 50 66 50 33 85 c 128,-1,8
 0 120 0 120 0 187 c 0,9,10
 0 257 0 257 34 295.5 c 128,-1,11
 68 334 68 334 132 334 c 0,12,13
 155 334 155 334 173.5 330.5 c 128,-1,14
 192 327 192 327 205 321.5 c 128,-1,15
 218 316 218 316 229.5 304.5 c 128,-1,16
 241 293 241 293 248 284.5 c 128,-1,17
 255 276 255 276 263 257.5 c 128,-1,18
 271 239 271 239 274.5 228 c 128,-1,19
 278 217 278 217 286 193 c 0,20,21
 291 179 291 179 293 171 c 0,22,23
 301 148 301 148 311.5 132.5 c 128,-1,24
 322 117 322 117 342.5 107 c 128,-1,25
 363 97 363 97 391 97 c 0,26,27
 452 97 452 97 452 128 c 0,28,29
 452 134 452 134 450.5 139.5 c 128,-1,30
 449 145 449 145 444 149 c 128,-1,31
 439 153 439 153 435 155.5 c 128,-1,32
 431 158 431 158 422 161 c 128,-1,33
 413 164 413 164 408 165.5 c 128,-1,34
 403 167 403 167 390 169.5 c 128,-1,35
 377 172 377 172 372 174 c 0,36,37
 304 190 304 190 304 250 c 0,38,39
 304 295 304 295 334 314.5 c 128,-1,40
 364 334 364 334 409 334 c 0,41,42
 503 334 503 334 510 260 c 1,43,-1
 451 253 l 1,44,45
 448 288 448 288 405 288 c 0,46,47
 392 288 392 288 383 284.5 c 128,-1,48
 374 281 374 281 369 274 c 128,-1,49
 364 267 364 267 364 257 c 0,50,51
 364 243 364 243 371 235 c 128,-1,52
 378 227 378 227 397 223 c 0,53,54
 399 222 399 222 413 219 c 128,-1,55
 427 216 427 216 429.5 215.5 c 128,-1,56
 432 215 432 215 444.5 211.5 c 128,-1,57
 457 208 457 208 460.5 206 c 128,-1,58
 464 204 464 204 474 199.5 c 128,-1,59
 484 195 484 195 487 191 c 128,-1,60
 490 187 490 187 496.5 180.5 c 128,-1,61
 503 174 503 174 505.5 167 c 128,-1,62
 508 160 508 160 510 150.5 c 128,-1,63
 512 141 512 141 512 131 c 0,64,65
 512 50 512 50 390 50 c 0,66,67
 320 50 320 50 285.5 77 c 128,-1,68
 251 104 251 104 235 152 c 0,69,70
 232 161 232 161 225.5 181 c 128,-1,71
 219 201 219 201 217 208 c 128,-1,72
 215 215 215 215 209 230.5 c 128,-1,73
 203 246 203 246 199 251 c 128,-1,74
 195 256 195 256 188 265.5 c 128,-1,75
 181 275 181 275 173.5 278 c 128,-1,76
 166 281 166 281 156 284 c 128,-1,77
 146 287 146 287 134 287 c 0,78,79
 103 287 103 287 82.5 263.5 c 128,-1,80
 62 240 62 240 62 189 c 0,81,82
 62 162 62 162 70.5 141 c 128,-1,83
 79 120 79 120 95 109 c 128,-1,84
 111 98 111 98 131 98 c 128,-1,85
 151 98 151 98 170 106.5 c 128,-1,86
 189 115 189 115 198 123 c 2,87,-1
 207 132 l 1,88,-1
 226 81 l 2,0,1
EndSplineSet
Validated: 1
EndChar

StartChar: ioxhost
Encoding: 61960 61960 73
Width: 640
GlyphClass: 3
Flags: W
LayerCount: 2
Fore
SplineSet
616 288 m 2,0,1
 626 288 626 288 633 281 c 128,-1,2
 640 274 640 274 640 264 c 128,-1,3
 640 254 640 254 633 247 c 128,-1,4
 626 240 626 240 616 240 c 2,5,-1
 563 240 l 1,6,7
 568 217 568 217 568 192 c 0,8,9
 568 89 568 89 495.5 16.5 c 128,-1,10
 423 -56 423 -56 320 -56 c 0,11,12
 244 -56 244 -56 182 -14 c 128,-1,13
 120 28 120 28 91 96 c 1,14,-1
 24 96 l 2,15,16
 14 96 14 96 7 103 c 128,-1,17
 0 110 0 110 0 120 c 128,-1,18
 0 130 0 130 7 137 c 128,-1,19
 14 144 14 144 24 144 c 2,20,-1
 77 144 l 1,21,22
 72 167 72 167 72 192 c 0,23,24
 72 295 72 295 144.5 367.5 c 128,-1,25
 217 440 217 440 320 440 c 0,26,27
 396 440 396 440 458 398 c 128,-1,28
 520 356 520 356 549 288 c 1,29,-1
 616 288 l 2,0,1
520 192 m 0,30,31
 520 216 520 216 514 240 c 1,32,-1
 216 240 l 2,33,34
 206 240 206 240 199 247 c 128,-1,35
 192 254 192 254 192 264 c 128,-1,36
 192 274 192 274 199 281 c 128,-1,37
 206 288 206 288 216 288 c 2,38,-1
 496 288 l 1,39,40
 470 335 470 335 423 363.5 c 128,-1,41
 376 392 376 392 320 392 c 0,42,43
 237 392 237 392 178.5 333.5 c 128,-1,44
 120 275 120 275 120 192 c 0,45,46
 120 168 120 168 126 144 c 1,47,-1
 424 144 l 2,48,49
 434 144 434 144 441 137 c 128,-1,50
 448 130 448 130 448 120 c 128,-1,51
 448 110 448 110 441 103 c 128,-1,52
 434 96 434 96 424 96 c 2,53,-1
 144 96 l 1,54,55
 170 49 170 49 217 20.5 c 128,-1,56
 264 -8 264 -8 320 -8 c 0,57,58
 403 -8 403 -8 461.5 50.5 c 128,-1,59
 520 109 520 109 520 192 c 0,30,31
216 216 m 2,60,-1
 424 216 l 2,61,62
 434 216 434 216 441 209 c 128,-1,63
 448 202 448 202 448 192 c 128,-1,64
 448 182 448 182 441 175 c 128,-1,65
 434 168 434 168 424 168 c 2,66,-1
 216 168 l 2,67,68
 206 168 206 168 199 175 c 128,-1,69
 192 182 192 182 192 192 c 128,-1,70
 192 202 192 202 199 209 c 128,-1,71
 206 216 206 216 216 216 c 2,60,-1
EndSplineSet
Validated: 1
EndChar

StartChar: angellist
Encoding: 61961 61961 74
Width: 448
GlyphClass: 3
Flags: W
LayerCount: 2
Fore
SplineSet
347 233 m 1,0,1
 380 225 380 225 391 201 c 128,-1,2
 402 177 402 177 402 139 c 0,3,4
 402 51 402 51 349.5 -6.5 c 128,-1,5
 297 -64 297 -64 211 -64 c 0,6,7
 141 -64 141 -64 93.5 -18 c 128,-1,8
 46 28 46 28 46 85 c 256,9,10
 46 142 46 142 97 156 c 1,11,12
 89 178 89 178 89 186 c 0,13,14
 89 204 89 204 104.5 221.5 c 128,-1,15
 120 239 120 239 138 239 c 0,16,17
 146 239 146 239 158 234 c 1,18,19
 111 367 111 367 111 396 c 0,20,21
 111 407 111 407 114 416.5 c 128,-1,22
 117 426 117 426 122.5 433 c 128,-1,23
 128 440 128 440 136.5 444 c 128,-1,24
 145 448 145 448 157 448 c 0,25,26
 194 448 194 448 249 282 c 0,27,28
 251 277 251 277 252 276 c 1,29,30
 253 278 253 278 262 303.5 c 128,-1,31
 271 329 271 329 279 347.5 c 128,-1,32
 287 366 287 366 298.5 389.5 c 128,-1,33
 310 413 310 413 323 426 c 128,-1,34
 336 439 336 439 349 439 c 0,35,36
 369 439 369 439 380.5 425 c 128,-1,37
 392 411 392 411 392 390 c 0,38,39
 392 359 392 359 347 233 c 1,0,1
312 340 m 2,40,-1
 279 246 l 1,41,-1
 313 240 l 1,42,43
 360 370 360 370 360 388 c 0,44,45
 360 404 360 404 349 404 c 0,46,47
 333 404 333 404 312 340 c 2,40,-1
142 400 m 0,48,49
 142 371 142 371 188 251 c 1,50,51
 194 255 194 255 223 252 c 1,52,-1
 189 353 l 2,53,54
 166 420 166 420 150 415 c 0,55,56
 142 413 142 413 142 400 c 0,48,49
140 204 m 0,57,58
 136 204 136 204 131.5 200.5 c 128,-1,59
 127 197 127 197 123.5 192 c 128,-1,60
 120 187 120 187 120 183 c 0,61,62
 120 166 120 166 150.5 125.5 c 128,-1,63
 181 85 181 85 196 85 c 0,64,65
 201 85 201 85 204 89 c 128,-1,66
 207 93 207 93 207 97 c 0,67,68
 207 112 207 112 183 158 c 128,-1,69
 159 204 159 204 140 204 c 0,57,58
324 18 m 0,70,71
 350 46 350 46 360.5 86 c 128,-1,72
 371 126 371 126 368 155 c 128,-1,73
 365 184 365 184 355 192 c 0,74,75
 339 206 339 206 294.5 214 c 128,-1,76
 250 222 250 222 217 222 c 0,77,78
 209 222 209 222 205 219.5 c 128,-1,79
 201 217 201 217 200.5 215 c 128,-1,80
 200 213 200 213 200 208 c 0,81,82
 200 168 200 168 314 169 c 0,83,84
 318 169 318 169 320 169 c 0,85,86
 335 169 335 169 337 148 c 1,87,88
 329 140 329 140 310 132 c 0,89,90
 291 125 291 125 283 119 c 0,91,92
 264 106 264 106 251.5 86.5 c 128,-1,93
 239 67 239 67 239 47 c 0,94,95
 239 39 239 39 244.5 22.5 c 128,-1,96
 250 6 250 6 250 -3 c 2,97,98
 250 -3 250 -3 249 -6.5 c 128,-1,99
 248 -10 248 -10 248 -10 c 1,100,101
 208 -8 208 -8 206 51 c 0,102,103
 204 51 204 51 194 51 c 1,104,105
 198 37 198 37 186.5 23 c 128,-1,106
 175 9 175 9 156 9 c 0,107,108
 126 9 126 9 101.5 41.5 c 128,-1,109
 77 74 77 74 98 96 c 1,110,111
 104 87 104 87 112 76.5 c 128,-1,112
 120 66 120 66 123.5 61.5 c 128,-1,113
 127 57 127 57 132 52 c 128,-1,114
 137 47 137 47 140.5 45.5 c 128,-1,115
 144 44 144 44 149 44 c 0,116,117
 152 44 152 44 156.5 46.5 c 128,-1,118
 161 49 161 49 161 53 c 0,119,120
 161 63 161 63 138 94.5 c 128,-1,121
 115 126 115 126 106 126 c 0,122,123
 91 126 91 126 83 108 c 128,-1,124
 75 90 75 90 86 57 c 0,125,126
 103 16 103 16 136.5 -7.5 c 128,-1,127
 170 -31 170 -31 215 -31 c 0,128,129
 280 -31 280 -31 324 18 c 0,70,71
226 144 m 1,130,131
 233 124 233 124 235 119 c 1,132,133
 246 131 246 131 255 138 c 1,134,135
 226 144 226 144 226 144 c 1,130,131
EndSplineSet
Validated: 33
EndChar

StartChar: buysellads
Encoding: 61965 61965 75
Width: 448
GlyphClass: 3
Flags: W
LayerCount: 2
Fore
SplineSet
224 297 m 1,0,-1
 267 137 l 1,1,-1
 181 137 l 1,2,-1
 224 297 l 1,0,-1
448 368 m 2,3,-1
 448 16 l 2,4,5
 448 -4 448 -4 434 -18 c 128,-1,6
 420 -32 420 -32 400 -32 c 2,7,-1
 48 -32 l 2,8,9
 28 -32 28 -32 14 -18 c 128,-1,10
 0 -4 0 -4 0 16 c 2,11,-1
 0 368 l 2,12,13
 0 388 0 388 14 402 c 128,-1,14
 28 416 28 416 48 416 c 2,15,-1
 400 416 l 2,16,17
 420 416 420 416 434 402 c 128,-1,18
 448 388 448 388 448 368 c 2,3,-1
383 43 m 1,19,-1
 288 341 l 1,20,-1
 160 341 l 1,21,-1
 65 43 l 1,22,-1
 156 43 l 1,23,-1
 268 134 l 1,24,-1
 292 43 l 1,25,-1
 383 43 l 1,19,-1
EndSplineSet
Validated: 1
EndChar

StartChar: connectdevelop
Encoding: 61966 61966 76
Width: 576
GlyphClass: 3
Flags: W
LayerCount: 2
Fore
SplineSet
550 207 m 1,0,1
 562 205 562 205 562 192 c 0,2,3
 562 180 562 180 550 177 c 1,4,-1
 495 82 l 2,5,6
 496 79 496 79 496 77 c 0,7,8
 496 65 496 65 484 62 c 1,9,-1
 432 -28 l 2,10,11
 433 -30 433 -30 433 -32 c 0,12,13
 433 -36 433 -36 431 -39.5 c 128,-1,14
 429 -43 429 -43 425.5 -45 c 128,-1,15
 422 -47 422 -47 418 -47 c 0,16,17
 411 -47 411 -47 407 -43 c 1,18,-1
 300 -43 l 1,19,20
 295 -48 295 -48 288 -48 c 128,-1,21
 281 -48 281 -48 276 -43 c 1,22,-1
 170 -43 l 1,23,24
 165 -48 165 -48 158 -48 c 0,25,26
 152 -48 152 -48 147.5 -43.5 c 128,-1,27
 143 -39 143 -39 143 -33 c 0,28,29
 143 -31 143 -31 144 -27 c 2,30,-1
 92 62 l 1,31,32
 80 65 80 65 80 77 c 0,33,34
 80 79 80 79 81 82 c 2,35,-1
 26 177 l 1,36,37
 14 180 14 180 14 192 c 0,38,39
 14 205 14 205 26 207 c 1,40,-1
 80 299 l 2,41,42
 80 300 80 300 79.5 300.5 c 128,-1,43
 79 301 79 301 79 301 c 1,44,45
 79 311 79 311 88 315 c 1,46,-1
 144 412 l 2,47,48
 143 415 143 415 143 417 c 0,49,50
 143 421 143 421 145.5 424.5 c 128,-1,51
 148 428 148 428 151.5 430 c 128,-1,52
 155 432 155 432 159 432 c 0,53,54
 166 432 166 432 170 426 c 1,55,-1
 276 426 l 1,56,57
 281 432 281 432 288 432 c 128,-1,58
 295 432 295 432 300 426 c 1,59,-1
 406 426 l 1,60,61
 411 432 411 432 418 432 c 0,62,63
 422 432 422 432 425.5 430 c 128,-1,64
 429 428 429 428 431 424.5 c 128,-1,65
 433 421 433 421 433 417 c 0,66,67
 433 415 433 415 432 412 c 2,68,-1
 488 316 l 1,69,70
 494 316 494 316 498 311.5 c 128,-1,71
 502 307 502 307 502 301 c 0,72,73
 502 298 502 298 500 294 c 2,74,-1
 550 207 l 1,0,1
154 -3 m 1,75,-1
 154 73 l 1,76,-1
 110 73 l 1,77,-1
 154 -3 l 1,75,-1
154 81 m 1,78,-1
 154 132 l 1,79,-1
 109 84 l 2,80,81
 110 82 110 82 110 81 c 1,82,-1
 154 81 l 1,78,-1
154 144 m 1,83,-1
 154 236 l 1,84,-1
 103 288 l 2,85,86
 100 286 100 286 96 286 c 2,87,-1
 44 196 l 2,88,89
 44 195 44 195 44 192 c 0,90,91
 44 190 44 190 43 188 c 2,92,-1
 99 92 l 1,93,94
 99 92 99 92 103 90 c 1,95,-1
 154 144 l 1,83,-1
154 246 m 1,96,-1
 154 318 l 1,97,-1
 110 302 l 2,98,99
 110 301 110 301 110 301 c 2,100,101
 110 297 110 297 108 293 c 1,102,-1
 154 246 l 1,96,-1
154 326 m 1,103,-1
 154 386 l 1,104,-1
 110 311 l 1,105,-1
 154 326 l 1,103,-1
480 287 m 1,106,-1
 480 288 l 1,107,-1
 382 186 l 1,108,-1
 446 119 l 1,109,-1
 481 286 l 1,110,-1
 480 287 l 1,106,-1
292 93 m 1,111,-1
 280 81 l 1,112,-1
 303 81 l 1,113,-1
 292 93 l 1,111,-1
291 104 m 1,114,-1
 371 186 l 1,115,-1
 288 274 l 1,116,-1
 208 190 l 1,117,-1
 291 104 l 1,114,-1
297 98 m 1,118,-1
 314 81 l 1,119,-1
 438 81 l 1,120,-1
 444 109 l 1,121,-1
 376 180 l 1,122,-1
 297 98 l 1,118,-1
410 404 m 2,123,-1
 293 280 l 1,124,-1
 376 192 l 1,125,-1
 474 293 l 1,126,127
 472 297 472 297 472 301 c 2,128,-1
 472 302 l 1,129,-1
 414 402 l 2,130,131
 413 403 413 403 410 404 c 2,123,-1
401 406 m 1,132,-1
 397 406 l 1,133,-1
 231 346 l 1,134,-1
 288 285 l 1,135,-1
 401 406 l 1,132,-1
278 406 m 1,136,-1
 174 406 l 1,137,-1
 225 352 l 1,138,-1
 373 406 l 1,139,-1
 298 406 l 1,140,141
 294 401 294 401 288 401 c 128,-1,142
 282 401 282 401 278 406 c 1,136,-1
162 400 m 1,143,-1
 162 329 l 1,144,-1
 216 349 l 1,145,-1
 165 403 l 2,146,147
 164 403 164 403 163 402 c 2,148,-1
 162 400 l 1,143,-1
162 321 m 1,149,-1
 162 238 l 1,150,-1
 203 195 l 1,151,-1
 282 280 l 1,152,-1
 222 343 l 1,153,-1
 162 321 l 1,149,-1
162 228 m 1,154,-1
 162 152 l 1,155,-1
 198 190 l 1,156,-1
 162 228 l 1,154,-1
162 140 m 1,157,-1
 162 81 l 1,158,-1
 269 81 l 1,159,-1
 286 99 l 1,160,-1
 204 185 l 1,161,-1
 162 140 l 1,157,-1
169 -22 m 2,162,-1
 170 -22 l 1,163,-1
 261 73 l 1,164,-1
 162 73 l 1,165,-1
 162 -17 l 1,166,-1
 163 -18 l 2,167,168
 166 -19 166 -19 169 -22 c 2,162,-1
298 -22 m 1,169,-1
 403 -22 l 1,170,-1
 311 73 l 1,171,-1
 273 73 l 1,172,-1
 181 -22 l 1,173,-1
 278 -22 l 1,174,175
 282 -17 282 -17 288 -17 c 128,-1,176
 294 -17 294 -17 298 -22 c 1,169,-1
418 -10 m 1,177,-1
 436 73 l 1,178,-1
 321 73 l 1,179,-1
 411 -19 l 2,180,181
 413 -18 413 -18 414 -17 c 2,182,-1
 418 -10 l 1,177,-1
431 12 m 1,183,-1
 466 73 l 1,184,-1
 444 73 l 1,185,-1
 431 12 l 1,183,-1
466 81 m 1,186,187
 466 83 466 83 467 84 c 2,188,-1
 450 102 l 1,189,-1
 446 81 l 1,190,-1
 466 81 l 1,186,187
532 189 m 2,191,192
 532 191 532 191 532 192 c 256,193,194
 532 193 532 193 533 197 c 2,195,-1
 487 276 l 1,196,-1
 452 112 l 1,197,-1
 473 90 l 1,198,199
 474 91 474 91 477 92 c 2,200,-1
 532 189 l 2,191,192
EndSplineSet
Validated: 1
EndChar

StartChar: forumbee
Encoding: 61969 61969 77
Width: 448
GlyphClass: 3
Flags: W
LayerCount: 2
Fore
SplineSet
6 138 m 1,0,1
 0 164 0 164 0 190 c 0,2,3
 0 282 0 282 65.5 347.5 c 128,-1,4
 131 413 131 413 223 413 c 0,5,6
 247 413 247 413 272 408 c 1,7,8
 180 372 180 372 110 301.5 c 128,-1,9
 40 231 40 231 6 138 c 1,0,1
399 328 m 1,10,11
 286 295 286 295 202.5 210.5 c 128,-1,12
 119 126 119 126 86 12 c 1,13,14
 62 31 62 31 41 61 c 1,15,16
 74 173 74 173 156.5 256.5 c 128,-1,17
 239 340 239 340 351 373 c 1,18,19
 378 354 378 354 399 328 c 1,10,11
414 75 m 1,20,21
 432 27 432 27 448 -35 c 1,22,23
 393 -21 393 -21 341 -1 c 1,24,25
 301 -26 301 -26 256 -33 c 1,26,27
 323 92 323 92 444 158 c 1,28,29
 438 113 438 113 414 75 c 1,20,21
444 220 m 1,30,31
 359 185 359 185 294 119 c 128,-1,32
 229 53 229 53 194 -33 c 1,33,34
 163 -29 163 -29 137 -18 c 1,35,36
 171 86 171 86 248 164.5 c 128,-1,37
 325 243 325 243 428 277 c 1,38,39
 440 250 440 250 444 220 c 1,30,31
EndSplineSet
Validated: 1
EndChar

StartChar: leanpub
Encoding: 61970 61970 78
Width: 576
GlyphClass: 3
Flags: W
LayerCount: 2
Fore
SplineSet
387 337 m 1,0,-1
 402 88 l 1,1,-1
 391 88 l 2,2,3
 335 89 335 89 288 60 c 1,4,5
 243 88 243 88 185 88 c 0,6,7
 129 88 129 88 62 60 c 1,8,-1
 93 318 l 1,9,10
 137 337 137 337 185 337 c 0,11,12
 246 337 246 337 288 294 c 1,13,14
 329 335 329 335 387 337 c 1,0,-1
569 0 m 1,15,16
 533 0 533 0 499 16 c 0,17,18
 444 41 444 41 391 41 c 0,19,20
 329 41 329 41 288 0 c 1,21,22
 247 41 247 41 185 41 c 0,23,24
 132 41 132 41 77 16 c 0,25,26
 42 0 42 0 8 0 c 2,27,-1
 7 0 l 1,28,-1
 49 349 l 1,29,30
 111 384 111 384 182 384 c 0,31,32
 246 384 246 384 288 355 c 1,33,34
 330 384 330 384 394 384 c 0,35,36
 465 384 465 384 527 349 c 1,37,-1
 569 0 l 1,15,16
526 45 m 1,38,-1
 492 325 l 1,39,40
 445 346 445 346 391 346 c 0,41,42
 329 346 329 346 288 308 c 1,43,44
 247 346 247 346 185 346 c 0,45,46
 131 346 131 346 84 325 c 1,47,-1
 50 45 l 1,48,49
 79 57 79 57 95.5 63 c 128,-1,50
 112 69 112 69 136.5 73.5 c 128,-1,51
 161 78 161 78 185 78 c 0,52,53
 241 78 241 78 288 49 c 1,54,55
 335 78 335 78 391 78 c 0,56,57
 426 78 426 78 454.5 70 c 128,-1,58
 483 62 483 62 526 45 c 1,38,-1
EndSplineSet
Validated: 33
EndChar

StartChar: sellsy
Encoding: 61971 61971 79
Width: 640
GlyphClass: 3
Flags: W
LayerCount: 2
Fore
SplineSet
540 211 m 1,0,1
 581 201 581 201 607.5 167.5 c 128,-1,2
 634 134 634 134 634 91 c 0,3,4
 634 40 634 40 597.5 4 c 128,-1,5
 561 -32 561 -32 511 -32 c 2,6,-1
 129 -32 l 2,7,8
 79 -32 79 -32 42.5 4 c 128,-1,9
 6 40 6 40 6 91 c 0,10,11
 6 127 6 127 25.5 157 c 128,-1,12
 45 187 45 187 77 202 c 1,13,14
 74 213 74 213 74 225 c 0,15,16
 74 248 74 248 85 267 c 128,-1,17
 96 286 96 286 115.5 297.5 c 128,-1,18
 135 309 135 309 158 309 c 0,19,20
 189 309 189 309 213 288 c 1,21,22
 227 344 227 344 272.5 380 c 128,-1,23
 318 416 318 416 376 416 c 0,24,25
 445 416 445 416 494.5 366.5 c 128,-1,26
 544 317 544 317 544 248 c 0,27,28
 544 228 544 228 540 211 c 1,0,1
200 46 m 2,29,-1
 200 157 l 2,30,31
 200 164 200 164 195.5 168.5 c 128,-1,32
 191 173 191 173 185 173 c 2,33,-1
 154 173 l 2,34,35
 147 173 147 173 142.5 168.5 c 128,-1,36
 138 164 138 164 138 157 c 2,37,-1
 138 46 l 2,38,39
 138 40 138 40 142.5 35.5 c 128,-1,40
 147 31 147 31 154 31 c 2,41,-1
 185 31 l 2,42,43
 191 31 191 31 195.5 35.5 c 128,-1,44
 200 40 200 40 200 46 c 2,29,-1
289 46 m 2,45,-1
 289 178 l 2,46,47
 289 184 289 184 284.5 188.5 c 128,-1,48
 280 193 280 193 274 193 c 2,49,-1
 243 193 l 2,50,51
 237 193 237 193 232.5 188.5 c 128,-1,52
 228 184 228 184 228 178 c 2,53,-1
 228 46 l 2,54,55
 228 40 228 40 232.5 35.5 c 128,-1,56
 237 31 237 31 243 31 c 2,57,-1
 274 31 l 2,58,59
 280 31 280 31 284.5 35.5 c 128,-1,60
 289 40 289 40 289 46 c 2,45,-1
379 46 m 2,61,-1
 379 209 l 2,62,63
 379 213 379 213 377 216.5 c 128,-1,64
 375 220 375 220 371.5 222 c 128,-1,65
 368 224 368 224 364 224 c 2,66,-1
 333 224 l 2,67,68
 326 224 326 224 321.5 219.5 c 128,-1,69
 317 215 317 215 317 209 c 2,70,-1
 317 46 l 2,71,72
 317 40 317 40 321.5 35.5 c 128,-1,73
 326 31 326 31 333 31 c 2,74,-1
 364 31 l 2,75,76
 370 31 370 31 374.5 35.5 c 128,-1,77
 379 40 379 40 379 46 c 2,61,-1
466 46 m 2,78,-1
 466 271 l 2,79,80
 466 277 466 277 461.5 282 c 128,-1,81
 457 287 457 287 451 287 c 2,82,-1
 422 287 l 2,83,84
 416 287 416 287 411.5 282 c 128,-1,85
 407 277 407 277 407 271 c 2,86,-1
 407 46 l 2,87,88
 407 40 407 40 411.5 35.5 c 128,-1,89
 416 31 416 31 422 31 c 2,90,-1
 451 31 l 2,91,92
 457 31 457 31 461.5 35.5 c 128,-1,93
 466 40 466 40 466 46 c 2,78,-1
EndSplineSet
Validated: 1
EndChar

StartChar: simplybuilt
Encoding: 61973 61973 80
Width: 512
GlyphClass: 3
Flags: W
LayerCount: 2
Fore
SplineSet
481 384 m 2,0,1
 492 384 492 384 500 376.5 c 128,-1,2
 508 369 508 369 508 358 c 2,3,-1
 508 26 l 2,4,5
 508 15 508 15 500 7.5 c 128,-1,6
 492 0 492 0 481 0 c 2,7,-1
 31 0 l 2,8,9
 20 0 20 0 12 7.5 c 128,-1,10
 4 15 4 15 4 26 c 2,11,-1
 4 358 l 2,12,13
 4 369 4 369 12 376.5 c 128,-1,14
 20 384 20 384 31 384 c 2,15,-1
 137 384 l 2,16,17
 144 384 144 384 150 380.5 c 128,-1,18
 156 377 156 377 159.5 371 c 128,-1,19
 163 365 163 365 163 358 c 2,20,-1
 163 318 l 1,21,-1
 349 318 l 1,22,-1
 349 358 l 2,23,24
 349 369 349 369 356.5 376.5 c 128,-1,25
 364 384 364 384 375 384 c 2,26,-1
 481 384 l 2,0,1
149.5 92 m 128,-1,28
 177 92 177 92 196.5 111.5 c 128,-1,29
 216 131 216 131 216 158.5 c 128,-1,30
 216 186 216 186 196.5 205.5 c 128,-1,31
 177 225 177 225 149.5 225 c 128,-1,32
 122 225 122 225 102.5 205.5 c 128,-1,33
 83 186 83 186 83 158.5 c 128,-1,34
 83 131 83 131 102.5 111.5 c 128,-1,27
 122 92 122 92 149.5 92 c 128,-1,28
362.5 92 m 128,-1,36
 390 92 390 92 409.5 111.5 c 128,-1,37
 429 131 429 131 429 158.5 c 128,-1,38
 429 186 429 186 409.5 205.5 c 128,-1,39
 390 225 390 225 362.5 225 c 128,-1,40
 335 225 335 225 315.5 205.5 c 128,-1,41
 296 186 296 186 296 158.5 c 128,-1,42
 296 131 296 131 315.5 111.5 c 128,-1,35
 335 92 335 92 362.5 92 c 128,-1,36
EndSplineSet
Validated: 1
EndChar

StartChar: pinterest-p
Encoding: 62001 62001 81
Width: 384
GlyphClass: 3
Flags: W
LayerCount: 2
Fore
SplineSet
204 442 m 0,0,1
 277 442 277 442 330.5 396 c 128,-1,2
 384 350 384 350 384 277 c 0,3,4
 384 241 384 241 374.5 207 c 128,-1,5
 365 173 365 173 347 144 c 128,-1,6
 329 115 329 115 298.5 98 c 128,-1,7
 268 81 268 81 230 81 c 0,8,9
 210 81 210 81 190 90.5 c 128,-1,10
 170 100 170 100 161 117 c 1,11,12
 158 105 158 105 152.5 83 c 128,-1,13
 147 61 147 61 145.5 54.5 c 128,-1,14
 144 48 144 48 139.5 33 c 128,-1,15
 135 18 135 18 131.5 11.5 c 128,-1,16
 128 5 128 5 121.5 -7 c 128,-1,17
 115 -19 115 -19 107.5 -30 c 128,-1,18
 100 -41 100 -41 89 -56 c 0,19,20
 86 -58 86 -58 85.5 -58 c 128,-1,21
 85 -58 85 -58 82 -55 c 0,22,23
 78 -7 78 -7 78 2 c 0,24,25
 78 29 78 29 84.5 63.5 c 128,-1,26
 91 98 91 98 104.5 150 c 128,-1,27
 118 202 118 202 120 211 c 1,28,29
 110 230 110 230 110 262 c 0,30,31
 110 310 110 310 147 326 c 0,32,33
 177 339 177 339 195 317 c 0,34,35
 204 305 204 305 204 287 c 0,36,37
 204 268 204 268 191 230.5 c 128,-1,38
 178 193 178 193 178 174 c 256,39,40
 178 155 178 155 191.5 142.5 c 128,-1,41
 205 130 205 130 224 130 c 0,42,43
 248 130 248 130 267 146 c 128,-1,44
 286 162 286 162 295.5 187 c 128,-1,45
 305 212 305 212 309.5 236.5 c 128,-1,46
 314 261 314 261 314 283 c 0,47,48
 314 335 314 335 281.5 364 c 128,-1,49
 249 393 249 393 196 393 c 0,50,51
 136 393 136 393 96 354 c 128,-1,52
 56 315 56 315 56 255 c 0,53,54
 56 232 56 232 67.5 210 c 128,-1,55
 79 188 79 188 79 187 c 0,56,57
 79 179 79 179 74.5 165.5 c 128,-1,58
 70 152 70 152 64 152 c 0,59,60
 43 152 43 152 21.5 183 c 128,-1,61
 0 214 0 214 0 262 c 0,62,63
 0 342 0 342 61.5 392 c 128,-1,64
 123 442 123 442 204 442 c 0,0,1
EndSplineSet
Validated: 545
EndChar

StartChar: whatsapp
Encoding: 62002 62002 82
Width: 448
GlyphClass: 3
Flags: W
LayerCount: 2
Fore
SplineSet
381 351 m 0,0,1
 448 284 448 284 448 194 c 0,2,3
 448 102 448 102 382 37 c 128,-1,4
 316 -28 316 -28 224 -28 c 0,5,6
 167 -28 167 -28 118 -1 c 1,7,-1
 0 -32 l 1,8,-1
 32 83 l 1,9,10
 2 134 2 134 2 194 c 0,11,12
 2 286 2 286 67 351 c 128,-1,13
 132 416 132 416 224 416 c 256,14,15
 316 416 316 416 381 351 c 0,0,1
224 9 m 0,16,17
 300 9 300 9 355 63.5 c 128,-1,18
 410 118 410 118 410 194 c 0,19,20
 411 268 411 268 354 324 c 0,21,22
 300 378 300 378 224 378 c 128,-1,23
 148 378 148 378 93.5 324 c 128,-1,24
 39 270 39 270 39 194 c 0,25,26
 39 141 39 141 68 96 c 2,27,-1
 72 89 l 1,28,-1
 53 21 l 1,29,-1
 123 39 l 1,30,-1
 130 35 l 2,31,32
 173 9 173 9 224 9 c 0,16,17
325 148 m 0,33,34
 335 143 335 143 336 141 c 0,35,36
 339 135 339 135 332 114 c 0,37,38
 329 106 329 106 316.5 97.5 c 128,-1,39
 304 89 304 89 295 88 c 0,40,41
 269 84 269 84 228 102 c 0,42,43
 179 123 179 123 134 186 c 0,44,45
 111 217 111 217 111 243 c 0,46,47
 111 268 111 268 130 290 c 0,48,49
 137 296 137 296 145 296 c 256,50,51
 153 296 153 296 156 296 c 0,52,53
 165 296 165 296 168 287 c 0,54,55
 185 246 185 246 185 246 c 2,56,57
 188 240 188 240 186 236 c 0,58,59
 182 227 182 227 176 220.5 c 128,-1,60
 170 214 170 214 169 213 c 128,-1,61
 168 212 168 212 170 206 c 0,62,63
 184 180 184 180 200.5 167 c 128,-1,64
 217 154 217 154 245 140 c 0,65,66
 253 136 253 136 257 141 c 0,67,68
 270 156 270 156 275 163 c 0,69,70
 279 169 279 169 287 166 c 256,71,72
 295 163 295 163 325 148 c 0,33,34
EndSplineSet
Validated: 33
EndChar

StartChar: viacoin
Encoding: 62007 62007 83
Width: 384
GlyphClass: 3
Flags: W
LayerCount: 2
Fore
SplineSet
384 416 m 1,0,-1
 336 304 l 1,1,-1
 384 304 l 1,2,-1
 384 256 l 1,3,-1
 316 256 l 1,4,-1
 302 224 l 1,5,-1
 384 224 l 1,6,-1
 384 176 l 1,7,-1
 281 176 l 1,8,-1
 192 -32 l 1,9,-1
 103 176 l 1,10,-1
 0 176 l 1,11,-1
 0 224 l 1,12,-1
 82 224 l 1,13,-1
 68 256 l 1,14,-1
 0 256 l 1,15,-1
 0 304 l 1,16,-1
 48 304 l 1,17,-1
 0 416 l 1,18,-1
 64 416 l 1,19,-1
 145 224 l 1,20,-1
 239 224 l 1,21,-1
 320 416 l 1,22,-1
 384 416 l 1,0,-1
192 112 m 1,23,-1
 219 176 l 1,24,-1
 165 176 l 1,25,-1
 192 112 l 1,23,-1
EndSplineSet
Validated: 1
EndChar

StartChar: medium
Encoding: 62010 62010 84
Width: 448
GlyphClass: 3
Flags: W
LayerCount: 2
Fore
SplineSet
0 416 m 1,0,-1
 448 416 l 1,1,-1
 448 -32 l 1,2,-1
 0 -32 l 1,3,-1
 0 416 l 1,0,-1
372 310 m 1,4,-1
 372 315 l 1,5,-1
 289 315 l 1,6,-1
 230 167 l 1,7,-1
 162 315 l 1,8,-1
 75 315 l 1,9,-1
 75 310 l 1,10,-1
 103 276 l 2,11,12
 108 272 108 272 107 266 c 2,13,-1
 107 133 l 2,14,15
 108 126 108 126 103 120 c 2,16,-1
 71 82 l 1,17,-1
 71 77 l 1,18,-1
 161 77 l 1,19,-1
 161 82 l 1,20,-1
 129 120 l 2,21,22
 124 126 124 126 125 133 c 2,23,-1
 125 248 l 1,24,-1
 204 77 l 1,25,-1
 213 77 l 1,26,-1
 280 248 l 1,27,-1
 280 111 l 2,28,29
 280 107 280 107 278 105 c 2,30,-1
 254 81 l 1,31,-1
 254 76 l 1,32,-1
 372 76 l 1,33,-1
 372 81 l 1,34,-1
 348 104 l 2,35,36
 345 107 345 107 346 111 c 2,37,-1
 346 280 l 2,38,39
 345 284 345 284 348 287 c 2,40,-1
 372 310 l 1,4,-1
EndSplineSet
Validated: 1
EndChar

StartChar: y-combinator
Encoding: 62011 62011 85
Width: 448
GlyphClass: 3
Flags: W
LayerCount: 2
Fore
SplineSet
448 416 m 1,0,-1
 448 -32 l 1,1,-1
 0 -32 l 1,2,-1
 0 416 l 1,3,-1
 448 416 l 1,0,-1
236 160 m 1,4,-1
 314 306 l 1,5,-1
 281 306 l 1,6,-1
 235 215 l 2,7,8
 228 201 228 201 222 188 c 1,9,-1
 210 215 l 1,10,-1
 165 306 l 1,11,-1
 130 306 l 1,12,-1
 206 162 l 1,13,-1
 206 68 l 1,14,-1
 236 68 l 1,15,-1
 236 160 l 1,4,-1
EndSplineSet
Validated: 513
EndChar

StartChar: opencart
Encoding: 62013 62013 86
Width: 640
GlyphClass: 3
Flags: W
LayerCount: 2
Fore
SplineSet
423 7 m 128,-1,1
 423 -12 423 -12 410 -25 c 128,-1,2
 397 -38 397 -38 378 -38 c 128,-1,3
 359 -38 359 -38 345.5 -25 c 128,-1,4
 332 -12 332 -12 332 7 c 128,-1,5
 332 26 332 26 345.5 39.5 c 128,-1,6
 359 53 359 53 378 53 c 128,-1,7
 397 53 397 53 410 39.5 c 128,-1,0
 423 26 423 26 423 7 c 128,-1,1
169 53 m 128,-1,9
 188 53 188 53 201.5 39.5 c 128,-1,10
 215 26 215 26 215 7 c 128,-1,11
 215 -12 215 -12 201.5 -25 c 128,-1,12
 188 -38 188 -38 169 -38 c 128,-1,13
 150 -38 150 -38 137 -25 c 128,-1,14
 124 -12 124 -12 124 7 c 128,-1,15
 124 26 124 26 137 39.5 c 128,-1,8
 150 53 150 53 169 53 c 128,-1,9
461 323 m 0,16,17
 500 323 500 323 529.5 322 c 128,-1,18
 559 321 559 321 579 317 c 128,-1,19
 599 313 599 313 614 310 c 128,-1,20
 629 307 629 307 633 298.5 c 128,-1,21
 637 290 637 290 640 284.5 c 128,-1,22
 643 279 643 279 634 266 c 128,-1,23
 625 253 625 253 619 245 c 128,-1,24
 613 237 613 237 593.5 219.5 c 128,-1,25
 574 202 574 202 562 191.5 c 128,-1,26
 550 181 550 181 523 158 c 0,27,28
 472 114 472 114 444 89 c 1,29,30
 456 111 456 111 481.5 139 c 128,-1,31
 507 167 507 167 526 185.5 c 128,-1,32
 545 204 545 204 555 223.5 c 128,-1,33
 565 243 565 243 553.5 254.5 c 128,-1,34
 542 266 542 266 498 272.5 c 128,-1,35
 454 279 454 279 373 278 c 0,36,37
 315 277 315 277 266.5 281 c 128,-1,38
 218 285 218 285 185 291 c 128,-1,39
 152 297 152 297 123.5 308.5 c 128,-1,40
 95 320 95 320 79.5 329 c 128,-1,41
 64 338 64 338 49 353 c 128,-1,42
 34 368 34 368 28 376.5 c 128,-1,43
 22 385 22 385 12.5 401 c 128,-1,44
 3 417 3 417 0 422 c 1,45,46
 42 378 42 378 92.5 357.5 c 128,-1,47
 143 337 143 337 222 330 c 128,-1,48
 301 323 301 323 461 323 c 0,16,17
EndSplineSet
Validated: 33
EndChar

StartChar: expeditedssl
Encoding: 62014 62014 87
Width: 496
GlyphClass: 3
Flags: W
LayerCount: 2
Fore
SplineSet
248 405 m 128,-1,1
 336 405 336 405 398.5 342.5 c 128,-1,2
 461 280 461 280 461 192 c 128,-1,3
 461 104 461 104 398.5 41.5 c 128,-1,4
 336 -21 336 -21 248 -21 c 128,-1,5
 160 -21 160 -21 97.5 41.5 c 128,-1,6
 35 104 35 104 35 192 c 128,-1,7
 35 280 35 280 97.5 342.5 c 128,-1,0
 160 405 160 405 248 405 c 128,-1,1
151 272 m 1,8,-1
 150 272 l 1,9,-1
 150 245 l 2,10,11
 150 236 150 236 159 236 c 2,12,-1
 177 236 l 2,13,14
 186 236 186 236 186 245 c 2,15,-1
 186 272 l 2,16,17
 186 295 186 295 198.5 311 c 128,-1,18
 211 327 211 327 229.5 331 c 128,-1,19
 248 335 248 335 266 331 c 128,-1,20
 284 327 284 327 297 311 c 128,-1,21
 310 295 310 295 310 272 c 2,22,-1
 310 245 l 2,23,24
 310 236 310 236 319 236 c 2,25,-1
 336 236 l 2,26,27
 345 236 345 236 345 245 c 2,28,-1
 345 272 l 2,29,30
 345 312 345 312 316.5 340.5 c 128,-1,31
 288 369 288 369 248 369 c 0,32,33
 222 369 222 369 199.5 356 c 128,-1,34
 177 343 177 343 164 320.5 c 128,-1,35
 151 298 151 298 151 272 c 1,8,-1
390 68 m 2,36,-1
 390 210 l 2,37,38
 390 217 390 217 384.5 222 c 128,-1,39
 379 227 379 227 372 227 c 2,40,-1
 124 227 l 2,41,42
 117 227 117 227 111.5 222 c 128,-1,43
 106 217 106 217 106 210 c 2,44,-1
 106 68 l 2,45,46
 106 61 106 61 111.5 55.5 c 128,-1,47
 117 50 117 50 124 50 c 2,48,-1
 372 50 l 2,49,50
 379 50 379 50 384.5 55.5 c 128,-1,51
 390 61 390 61 390 68 c 2,36,-1
142 205 m 2,52,-1
 142 72 l 2,53,54
 142 68 142 68 137 68 c 2,55,-1
 128 68 l 2,56,57
 124 68 124 68 124 72 c 2,58,-1
 124 205 l 2,59,60
 124 210 124 210 128 210 c 2,61,-1
 137 210 l 2,62,63
 142 210 142 210 142 205 c 2,52,-1
283 157 m 0,64,65
 283 136 283 136 266 126 c 1,66,-1
 266 95 l 2,67,68
 266 86 266 86 257 86 c 2,69,-1
 239 86 l 2,70,71
 230 86 230 86 230 95 c 2,72,-1
 230 126 l 1,73,74
 212 136 212 136 212 157 c 0,75,76
 212 171 212 171 222.5 181.5 c 128,-1,77
 233 192 233 192 248 192 c 128,-1,78
 263 192 263 192 273 181.5 c 128,-1,79
 283 171 283 171 283 157 c 0,64,65
248 440 m 128,-1,81
 351 440 351 440 423.5 367.5 c 128,-1,82
 496 295 496 295 496 192 c 128,-1,83
 496 89 496 89 423.5 16.5 c 128,-1,84
 351 -56 351 -56 248 -56 c 128,-1,85
 145 -56 145 -56 72.5 16.5 c 128,-1,86
 0 89 0 89 0 192 c 128,-1,87
 0 295 0 295 72.5 367.5 c 128,-1,80
 145 440 145 440 248 440 c 128,-1,81
248 -38 m 128,-1,89
 343 -38 343 -38 410.5 29.5 c 128,-1,90
 478 97 478 97 478 192 c 128,-1,91
 478 287 478 287 410.5 354.5 c 128,-1,92
 343 422 343 422 248 422 c 128,-1,93
 153 422 153 422 85.5 354.5 c 128,-1,94
 18 287 18 287 18 192 c 128,-1,95
 18 97 18 97 85.5 29.5 c 128,-1,88
 153 -38 153 -38 248 -38 c 128,-1,89
EndSplineSet
Validated: 33
EndChar

StartChar: cc-jcb
Encoding: 62027 62027 88
Width: 576
GlyphClass: 3
Flags: W
LayerCount: 2
Fore
SplineSet
432 204 m 1,0,-1
 432 236 l 1,1,-1
 470 236 l 1,2,-1
 470 236 l 1,3,4
 483 233 483 233 483 220 c 0,5,6
 483 206 483 206 470 204 c 0,7,8
 469 204 469 204 432 204 c 1,0,-1
474 184 m 0,9,10
 488 181 488 181 488 166.5 c 128,-1,11
 488 152 488 152 474 150 c 0,12,13
 472 149 472 149 432 149 c 1,14,-1
 432 184 l 1,15,16
 472 184 472 184 474 184 c 0,9,10
576 368 m 2,17,-1
 576 16 l 2,18,19
 576 -4 576 -4 562 -18 c 128,-1,20
 548 -32 548 -32 528 -32 c 2,21,-1
 48 -32 l 2,22,23
 28 -32 28 -32 14 -18 c 128,-1,24
 0 -4 0 -4 0 16 c 2,25,-1
 0 368 l 2,26,27
 0 388 0 388 14 402 c 128,-1,28
 28 416 28 416 48 416 c 2,29,-1
 528 416 l 2,30,31
 548 416 548 416 562 402 c 128,-1,32
 576 388 576 388 576 368 c 2,17,-1
182 256 m 1,33,-1
 125 256 l 1,34,35
 125 245 125 245 125.5 229 c 128,-1,36
 126 213 126 213 126 204.5 c 128,-1,37
 126 196 126 196 125.5 184.5 c 128,-1,38
 125 173 125 173 123 167.5 c 128,-1,39
 121 162 121 162 117 156.5 c 128,-1,40
 113 151 113 151 106 148.5 c 128,-1,41
 99 146 99 146 89 146 c 0,42,43
 62 146 62 146 32 161 c 1,44,-1
 32 133 l 1,45,46
 40 130 40 130 50.5 128.5 c 128,-1,47
 61 127 61 127 69 126 c 128,-1,48
 77 125 77 125 84.5 125 c 128,-1,49
 92 125 92 125 96 125 c 2,50,-1
 100 124 l 1,51,52
 118 124 118 124 131.5 127 c 128,-1,53
 145 130 145 130 154 133 c 128,-1,54
 163 136 163 136 169 144 c 128,-1,55
 175 152 175 152 178 158 c 128,-1,56
 181 164 181 164 182 177.5 c 128,-1,57
 183 191 183 191 183 199.5 c 128,-1,58
 183 208 183 208 182.5 226.5 c 128,-1,59
 182 245 182 245 182 256 c 1,33,-1
360 251 m 1,60,61
 335 258 335 258 307.5 259 c 128,-1,62
 280 260 280 260 254.5 255.5 c 128,-1,63
 229 251 229 251 212.5 234.5 c 128,-1,64
 196 218 196 218 196 192 c 0,65,66
 196 165 196 165 213 148.5 c 128,-1,67
 230 132 230 132 257 128 c 128,-1,68
 284 124 284 124 310.5 125.5 c 128,-1,69
 337 127 337 127 360 133 c 1,70,-1
 360 161 l 1,71,72
 336 148 336 148 311.5 146 c 128,-1,73
 287 144 287 144 270 155.5 c 128,-1,74
 253 167 253 167 253 192 c 128,-1,75
 253 217 253 217 270 228.5 c 128,-1,76
 287 240 287 240 311.5 238 c 128,-1,77
 336 236 336 236 360 223 c 1,78,-1
 360 251 l 1,60,61
544 162 m 0,79,80
 544 166 544 166 542.5 170 c 128,-1,81
 541 174 541 174 539 177.5 c 128,-1,82
 537 181 537 181 533.5 184 c 128,-1,83
 530 187 530 187 525.5 189 c 128,-1,84
 521 191 521 191 516 192 c 128,-1,85
 511 193 511 193 506 194 c 1,86,87
 520 196 520 196 528 204.5 c 128,-1,88
 536 213 536 213 536 224 c 0,89,90
 536 234 536 234 531.5 241 c 128,-1,91
 527 248 527 248 518.5 251.5 c 128,-1,92
 510 255 510 255 499 256 c 2,93,-1
 382 256 l 1,94,-1
 379 256 l 1,95,-1
 379 128 l 1,96,-1
 502 128 l 2,97,98
 520 128 520 128 532 137 c 128,-1,99
 544 146 544 146 544 162 c 0,79,80
EndSplineSet
Validated: 549
EndChar

StartChar: cc-diners-club
Encoding: 62028 62028 89
Width: 576
GlyphClass: 3
Flags: W
LayerCount: 2
Fore
SplineSet
240 368 m 128,-1,1
 313 368 313 368 364.5 316.5 c 128,-1,2
 416 265 416 265 416 192.5 c 128,-1,3
 416 120 416 120 364.5 68 c 128,-1,4
 313 16 313 16 240 16 c 128,-1,5
 167 16 167 16 115.5 68 c 128,-1,6
 64 120 64 120 64 192.5 c 128,-1,7
 64 265 64 265 115.5 316.5 c 128,-1,0
 167 368 167 368 240 368 c 128,-1,1
200 88 m 1,8,-1
 200 296 l 1,9,10
 168 284 168 284 148 255.5 c 128,-1,11
 128 227 128 227 128 192 c 128,-1,12
 128 157 128 157 148 129 c 128,-1,13
 168 101 168 101 200 88 c 1,8,-1
280 88 m 1,14,15
 311 101 311 101 331 129 c 128,-1,16
 351 157 351 157 351 192 c 0,17,18
 351 206 351 206 347.5 219.5 c 128,-1,19
 344 233 344 233 338 244.5 c 128,-1,20
 332 256 332 256 323 266 c 128,-1,21
 314 276 314 276 303 284 c 128,-1,22
 292 292 292 292 280 296 c 1,23,-1
 280 88 l 1,14,15
528 416 m 2,24,25
 548 416 548 416 562 402 c 128,-1,26
 576 388 576 388 576 368 c 2,27,-1
 576 16 l 2,28,29
 576 -4 576 -4 562 -18 c 128,-1,30
 548 -32 548 -32 528 -32 c 2,31,-1
 48 -32 l 2,32,33
 28 -32 28 -32 14 -18 c 128,-1,34
 0 -4 0 -4 0 16 c 2,35,-1
 0 368 l 2,36,37
 0 388 0 388 14 402 c 128,-1,38
 28 416 28 416 48 416 c 2,39,-1
 528 416 l 2,24,25
330 0 m 2,40,41
 409 0 409 0 469.5 56.5 c 128,-1,42
 530 113 530 113 530 190 c 0,43,44
 530 274 530 274 470.5 329 c 128,-1,45
 411 384 411 384 330 384 c 2,46,-1
 239 384 l 2,47,48
 186 384 186 384 142 360 c 128,-1,49
 98 336 98 336 72 291 c 128,-1,50
 46 246 46 246 46 190 c 0,51,52
 46 112 46 112 103 56 c 128,-1,53
 160 0 160 0 239 0 c 2,54,-1
 330 0 l 2,40,41
EndSplineSet
Validated: 513
EndChar

StartChar: gg
Encoding: 62048 62048 90
Width: 512
GlyphClass: 3
Flags: W
LayerCount: 2
Fore
SplineSet
179 218 m 1,0,-1
 282 115 l 1,1,-1
 179 13 l 1,2,-1
 0 192 l 1,3,-1
 179 371 l 1,4,-1
 224 326 l 1,5,-1
 198 301 l 1,6,-1
 179 320 l 1,7,-1
 51 192 l 1,8,-1
 179 64 l 1,9,-1
 231 116 l 1,10,-1
 154 192 l 1,11,-1
 179 218 l 1,0,-1
333 371 m 1,12,-1
 512 192 l 1,13,-1
 333 13 l 1,14,-1
 288 58 l 1,15,-1
 314 83 l 1,16,-1
 333 64 l 1,17,-1
 461 192 l 1,18,-1
 333 320 l 1,19,-1
 281 268 l 1,20,-1
 358 192 l 1,21,-1
 333 166 l 1,22,-1
 230 269 l 1,23,-1
 333 371 l 1,12,-1
EndSplineSet
Validated: 1
EndChar

StartChar: gg-circle
Encoding: 62049 62049 91
Width: 512
GlyphClass: 3
Flags: W
LayerCount: 2
Fore
SplineSet
257 440 m 128,-1,1
 360 440 360 440 432.5 367.5 c 128,-1,2
 505 295 505 295 505 192 c 128,-1,3
 505 89 505 89 432.5 16.5 c 128,-1,4
 360 -56 360 -56 257 -56 c 128,-1,5
 154 -56 154 -56 81.5 16.5 c 128,-1,6
 9 89 9 89 9 192 c 128,-1,7
 9 295 9 295 81.5 367.5 c 128,-1,0
 154 440 154 440 257 440 c 128,-1,1
208 65 m 1,8,-1
 282 140 l 1,9,-1
 205 218 l 1,10,-1
 181 193 l 1,11,-1
 234 140 l 1,12,-1
 207 114 l 1,13,-1
 130 191 l 1,14,-1
 207 268 l 1,15,-1
 218 257 l 1,16,-1
 243 281 l 1,17,-1
 208 317 l 1,18,-1
 82 191 l 1,19,-1
 208 65 l 1,8,-1
306 67 m 1,20,-1
 432 193 l 1,21,-1
 306 319 l 1,22,-1
 232 244 l 1,23,-1
 309 166 l 1,24,-1
 333 191 l 1,25,-1
 280 244 l 1,26,-1
 306 270 l 1,27,-1
 384 193 l 1,28,-1
 306 116 l 1,29,-1
 295 127 l 1,30,-1
 271 103 l 1,31,-1
 306 67 l 1,20,-1
EndSplineSet
Validated: 513
EndChar

StartChar: tripadvisor
Encoding: 62050 62050 92
Width: 576
GlyphClass: 3
Flags: W
LayerCount: 2
Fore
SplineSet
166 167 m 0,0,1
 166 161 166 161 163 155.5 c 128,-1,2
 160 150 160 150 154.5 147 c 128,-1,3
 149 144 149 144 142 144 c 0,4,5
 133 144 133 144 125.5 151 c 128,-1,6
 118 158 118 158 118 167.5 c 128,-1,7
 118 177 118 177 125.5 184 c 128,-1,8
 133 191 133 191 142.5 191 c 128,-1,9
 152 191 152 191 159 184 c 128,-1,10
 166 177 166 177 166 167 c 0,0,1
431 191 m 0,11,12
 438 191 438 191 443.5 188 c 128,-1,13
 449 185 449 185 452 179.5 c 128,-1,14
 455 174 455 174 455 167 c 0,15,16
 455 158 455 158 448 151 c 128,-1,17
 441 144 441 144 431 144 c 128,-1,18
 421 144 421 144 414 151 c 128,-1,19
 407 158 407 158 407 167.5 c 128,-1,20
 407 177 407 177 414 184 c 128,-1,21
 421 191 421 191 431 191 c 0,11,12
521 52 m 0,22,23
 474 15 474 15 414.5 22.5 c 128,-1,24
 355 30 355 30 318 77 c 1,25,-1
 287 30 l 1,26,-1
 257 76 l 1,27,28
 221 31 221 31 163.5 23.5 c 128,-1,29
 106 16 106 16 59 50 c 0,30,31
 11 85 11 85 2 144 c 128,-1,32
 -7 203 -7 203 28 251 c 1,33,34
 19 282 19 282 0 309 c 1,35,-1
 90 309 l 1,36,37
 126 331 126 331 181.5 347 c 128,-1,38
 237 363 237 363 280 363 c 0,39,40
 283 363 283 363 287 363 c 256,41,42
 291 363 291 363 294 363 c 0,43,44
 335 363 335 363 389.5 347 c 128,-1,45
 444 331 444 331 480 309 c 1,46,-1
 576 309 l 1,47,48
 557 283 557 283 547 252 c 1,49,50
 582 205 582 205 574.5 146.5 c 128,-1,51
 567 88 567 88 521 52 c 0,22,23
259 166.5 m 128,-1,53
 259 214 259 214 225.5 247.5 c 128,-1,54
 192 281 192 281 144.5 281 c 128,-1,55
 97 281 97 281 63 247.5 c 128,-1,56
 29 214 29 214 29 166.5 c 128,-1,57
 29 119 29 119 63 85 c 128,-1,58
 97 51 97 51 144.5 51 c 128,-1,59
 192 51 192 51 225.5 85 c 128,-1,52
 259 119 259 119 259 166.5 c 128,-1,53
288 177 m 1,60,61
 292 232 292 232 332 270 c 128,-1,62
 372 308 372 308 427 310 c 1,63,64
 400 321 400 321 361 329.5 c 128,-1,65
 322 338 322 338 292 338 c 0,66,67
 290 338 290 338 287 338 c 0,68,69
 286 338 286 338 284 338 c 0,70,71
 254 338 254 338 214 330 c 128,-1,72
 174 322 174 322 147 310 c 1,73,74
 175 310 175 310 200 299 c 128,-1,75
 225 288 225 288 243.5 270.5 c 128,-1,76
 262 253 262 253 274 228.5 c 128,-1,77
 286 204 286 204 288 177 c 1,60,61
539.5 205.5 m 128,-1,79
 523 250 523 250 480 270 c 128,-1,80
 437 290 437 290 392 273.5 c 128,-1,81
 347 257 347 257 327 214 c 128,-1,82
 307 171 307 171 323.5 126 c 128,-1,83
 340 81 340 81 383.5 61 c 128,-1,84
 427 41 427 41 471.5 57.5 c 128,-1,85
 516 74 516 74 536 117.5 c 128,-1,78
 556 161 556 161 539.5 205.5 c 128,-1,79
214 167.5 m 128,-1,87
 214 138 214 138 193 117 c 128,-1,88
 172 96 172 96 142.5 96 c 128,-1,89
 113 96 113 96 92 117 c 128,-1,90
 71 138 71 138 71 167.5 c 128,-1,91
 71 197 71 197 92 218 c 128,-1,92
 113 239 113 239 142.5 239 c 128,-1,93
 172 239 172 239 193 218 c 128,-1,86
 214 197 214 197 214 167.5 c 128,-1,87
189 167 m 2,94,-1
 189 168 l 2,95,96
 189 187 189 187 175.5 200.5 c 128,-1,97
 162 214 162 214 142 214 c 0,98,99
 130 214 130 214 119 208 c 128,-1,100
 108 202 108 202 102 191 c 128,-1,101
 96 180 96 180 96 167 c 0,102,103
 96 148 96 148 109.5 134.5 c 128,-1,104
 123 121 123 121 142.5 121 c 128,-1,105
 162 121 162 121 175.5 134.5 c 128,-1,106
 189 148 189 148 189 167 c 2,94,-1
503 167 m 0,107,108
 503 148 503 148 493 131.5 c 128,-1,109
 483 115 483 115 467 105.5 c 128,-1,110
 451 96 451 96 431 96 c 0,111,112
 402 96 402 96 381 117 c 128,-1,113
 360 138 360 138 360 167.5 c 128,-1,114
 360 197 360 197 381 218 c 128,-1,115
 402 239 402 239 431.5 239 c 128,-1,116
 461 239 461 239 481.5 218 c 128,-1,117
 502 197 502 197 503 167 c 0,107,108
478 167.5 m 128,-1,119
 478 187 478 187 464.5 200.5 c 128,-1,120
 451 214 451 214 431.5 214 c 128,-1,121
 412 214 412 214 398.5 200.5 c 128,-1,122
 385 187 385 187 385 167.5 c 128,-1,123
 385 148 385 148 398.5 134.5 c 128,-1,124
 412 121 412 121 431.5 121 c 128,-1,125
 451 121 451 121 464.5 134.5 c 128,-1,118
 478 148 478 148 478 167.5 c 128,-1,119
EndSplineSet
Validated: 33
EndChar

StartChar: odnoklassniki
Encoding: 62051 62051 93
Width: 320
GlyphClass: 3
Flags: W
LayerCount: 2
Fore
SplineSet
275 114 m 0,0,1
 242 93 242 93 185 87 c 1,2,-1
 206 66 l 1,3,-1
 282 -10 l 2,4,5
 295 -23 295 -23 289 -40.5 c 128,-1,6
 283 -58 283 -58 267.5 -62.5 c 128,-1,7
 252 -67 252 -67 237 -56 c 0,8,9
 217 -36 217 -36 160 21 c 1,10,-1
 84 -55 l 2,11,12
 71 -68 71 -68 53.5 -62 c 128,-1,13
 36 -56 36 -56 31.5 -40.5 c 128,-1,14
 27 -25 27 -25 39 -10 c 0,15,16
 115 67 115 67 115 67 c 1,17,-1
 136 87 l 1,18,19
 77 93 77 93 45 114 c 0,20,21
 18 132 18 132 10 143.5 c 128,-1,22
 2 155 2 155 11 173 c 0,23,24
 17 186 17 186 30.5 189.5 c 128,-1,25
 44 193 44 193 65 179 c 0,26,27
 69 176 69 176 77 171 c 128,-1,28
 85 166 85 166 109.5 158 c 128,-1,29
 134 150 134 150 160 150 c 128,-1,30
 186 150 186 150 210 157 c 128,-1,31
 234 164 234 164 244 172 c 2,32,-1
 255 179 l 2,33,34
 276 193 276 193 289.5 189.5 c 128,-1,35
 303 186 303 186 310 173 c 0,36,37
 313 162 313 162 314 156 c 128,-1,38
 315 150 315 150 309 142 c 128,-1,39
 303 134 303 134 296 128.5 c 128,-1,40
 289 123 289 123 275 114 c 0,0,1
30 318 m 0,41,42
 30 372 30 372 68 410 c 128,-1,43
 106 448 106 448 160 448 c 0,44,45
 195 448 195 448 225 430.5 c 128,-1,46
 255 413 255 413 272.5 383.5 c 128,-1,47
 290 354 290 354 290 318 c 0,48,49
 290 265 290 265 252 227 c 128,-1,50
 214 189 214 189 160 189 c 128,-1,51
 106 189 106 189 68 227 c 128,-1,52
 30 265 30 265 30 318 c 0,41,42
96 318 m 0,53,54
 96 292 96 292 115 273.5 c 128,-1,55
 134 255 134 255 160 255 c 128,-1,56
 186 255 186 255 205 273.5 c 128,-1,57
 224 292 224 292 224 318 c 0,58,59
 224 345 224 345 205 363.5 c 128,-1,60
 186 382 186 382 160 382 c 0,61,62
 143 382 143 382 128 373.5 c 128,-1,63
 113 365 113 365 104.5 350.5 c 128,-1,64
 96 336 96 336 96 318 c 0,53,54
EndSplineSet
Validated: 33
EndChar

StartChar: odnoklassniki-square
Encoding: 62052 62052 94
Width: 448
GlyphClass: 3
Flags: W
LayerCount: 2
Fore
SplineSet
184 270.5 m 128,-1,1
 184 287 184 287 196 299 c 128,-1,2
 208 311 208 311 224 311 c 128,-1,3
 240 311 240 311 252 299 c 128,-1,4
 264 287 264 287 264 270.5 c 128,-1,5
 264 254 264 254 252 242.5 c 128,-1,6
 240 231 240 231 224 231 c 128,-1,7
 208 231 208 231 196 242.5 c 128,-1,0
 184 254 184 254 184 270.5 c 128,-1,1
448 368 m 2,8,-1
 448 16 l 2,9,10
 448 -4 448 -4 434 -18 c 128,-1,11
 420 -32 420 -32 400 -32 c 2,12,-1
 48 -32 l 2,13,14
 28 -32 28 -32 14 -18 c 128,-1,15
 0 -4 0 -4 0 16 c 2,16,-1
 0 368 l 2,17,18
 0 388 0 388 14 402 c 128,-1,19
 28 416 28 416 48 416 c 2,20,-1
 400 416 l 2,21,22
 420 416 420 416 434 402 c 128,-1,23
 448 388 448 388 448 368 c 2,8,-1
143 271 m 128,-1,25
 143 237 143 237 166.5 213.5 c 128,-1,26
 190 190 190 190 224 190 c 128,-1,27
 258 190 258 190 281.5 213.5 c 128,-1,28
 305 237 305 237 305 270.5 c 128,-1,29
 305 304 305 304 281.5 328 c 128,-1,30
 258 352 258 352 224 352 c 128,-1,31
 190 352 190 352 166.5 328.5 c 128,-1,24
 143 305 143 305 143 271 c 128,-1,25
317 180 m 0,32,33
 313 188 313 188 305 190 c 128,-1,34
 297 192 297 192 283 184 c 0,35,36
 261 166 261 166 224 166 c 0,37,38
 208 166 208 166 193 170.5 c 128,-1,39
 178 175 178 175 171 179 c 2,40,-1
 165 184 l 2,41,42
 151 192 151 192 143 190 c 128,-1,43
 135 188 135 188 131 180 c 0,44,45
 125 173 125 173 128 166 c 128,-1,46
 131 159 131 159 135.5 155 c 128,-1,47
 140 151 140 151 152 143 c 0,48,49
 172 130 172 130 209 126 c 1,50,-1
 196 114 l 2,51,52
 196 113 196 113 148 66 c 0,53,54
 135 53 135 53 149 38.5 c 128,-1,55
 163 24 163 24 176 37 c 2,56,-1
 224 85 l 1,57,58
 260 49 260 49 272 37 c 0,59,60
 285 24 285 24 299 38 c 128,-1,61
 313 52 313 52 300 66 c 2,62,-1
 253 114 l 1,63,-1
 240 126 l 1,64,65
 275 130 275 130 296 143 c 0,66,67
 313 154 313 154 318 161.5 c 128,-1,68
 323 169 323 169 317 180 c 0,32,33
EndSplineSet
Validated: 545
EndChar

StartChar: get-pocket
Encoding: 62053 62053 95
Width: 448
GlyphClass: 3
Flags: W
LayerCount: 2
Fore
SplineSet
408 384 m 2,0,1
 425 384 425 384 436.5 372 c 128,-1,2
 448 360 448 360 448 343 c 2,3,-1
 448 208 l 2,4,5
 448 115 448 115 382.5 49.5 c 128,-1,6
 317 -16 317 -16 224 -16 c 256,7,8
 131 -16 131 -16 65.5 49.5 c 128,-1,9
 0 115 0 115 0 208 c 2,10,-1
 0 343 l 2,11,12
 0 360 0 360 12 372 c 128,-1,13
 24 384 24 384 41 384 c 2,14,-1
 408 384 l 2,0,1
246 116 m 0,15,16
 270 139 270 139 304 171 c 0,17,18
 345 210 345 210 352.5 219 c 128,-1,19
 360 228 360 228 360 239 c 0,20,21
 360 251 360 251 351 260 c 128,-1,22
 342 269 342 269 330 269 c 0,23,24
 320 269 320 269 312 263 c 128,-1,25
 304 257 304 257 270 224 c 0,26,27
 243 198 243 198 224 180 c 1,28,29
 205 199 205 199 177 226 c 0,30,31
 145 257 145 257 137 263 c 128,-1,32
 129 269 129 269 119 269 c 0,33,34
 106 269 106 269 97 260 c 128,-1,35
 88 251 88 251 88 239 c 0,36,37
 88 228 88 228 95.5 219.5 c 128,-1,38
 103 211 103 211 145 171 c 0,39,40
 179 139 179 139 203 116 c 0,41,42
 212 107 212 107 224 107 c 128,-1,43
 236 107 236 107 246 116 c 0,15,16
EndSplineSet
Validated: 513
EndChar

StartChar: wikipedia-w
Encoding: 62054 62054 96
Width: 640
GlyphClass: 3
Flags: W
LayerCount: 2
Fore
SplineSet
640 397 m 1,0,-1
 640 385 l 1,1,2
 601 384 601 384 584 344 c 0,3,4
 578 331 578 331 556.5 281.5 c 128,-1,5
 535 232 535 232 516 187 c 128,-1,6
 497 142 497 142 472 84.5 c 128,-1,7
 447 27 447 27 429 -14 c 1,8,-1
 415 -14 l 1,9,-1
 333 179 l 1,10,11
 326 165 326 165 289 94 c 128,-1,12
 252 23 252 23 234 -14 c 0,13,14
 234 -15 234 -15 226.5 -14.5 c 128,-1,15
 219 -14 219 -14 219 -14 c 1,16,17
 196 41 196 41 147.5 150 c 128,-1,18
 99 259 99 259 76 315 c 0,19,20
 66 337 66 337 42 361 c 128,-1,21
 18 385 18 385 0 384 c 1,22,23
 0 386 0 386 0 391 c 128,-1,24
 0 396 0 396 0 398 c 1,25,-1
 162 398 l 1,26,-1
 162 385 l 1,27,28
 144 384 144 384 128 374 c 128,-1,29
 112 364 112 364 118 350 c 0,30,31
 125 336 125 336 178 213 c 128,-1,32
 231 90 231 90 244 62 c 1,33,34
 251 75 251 75 265.5 103 c 128,-1,35
 280 131 280 131 296.5 161.5 c 128,-1,36
 313 192 313 192 319 205 c 1,37,38
 314 215 314 215 284.5 282.5 c 128,-1,39
 255 350 255 350 247 365 c 0,40,41
 236 384 236 384 191 384 c 1,42,-1
 191 398 l 1,43,-1
 333 398 l 1,44,-1
 333 385 l 1,45,46
 317 384 317 384 307.5 377.5 c 128,-1,47
 298 371 298 371 304 359 c 0,48,49
 313 339 313 339 328 306 c 128,-1,50
 343 273 343 273 352 254 c 1,51,52
 381 309 381 309 400 355 c 0,53,54
 405 365 405 365 402 371.5 c 128,-1,55
 399 378 399 378 389 381 c 128,-1,56
 379 384 379 384 362 384 c 1,57,58
 362 386 362 386 362 391 c 128,-1,59
 362 396 362 396 362 398 c 1,60,61
 379 398 379 398 409 398 c 128,-1,62
 439 398 439 398 459.5 398 c 128,-1,63
 480 398 480 398 485 398 c 1,64,-1
 485 385 l 1,65,66
 447 383 447 383 427 353 c 1,67,-1
 368 230 l 1,68,69
 371 221 371 221 403 149.5 c 128,-1,70
 435 78 435 78 437 74 c 1,71,-1
 559 356 l 1,72,73
 554 371 554 371 539 377.5 c 128,-1,74
 524 384 524 384 512 384 c 1,75,-1
 512 398 l 1,76,-1
 640 397 l 1,0,-1
EndSplineSet
Validated: 545
EndChar

StartChar: safari
Encoding: 62055 62055 97
Width: 512
GlyphClass: 3
Flags: W
LayerCount: 2
Fore
SplineSet
237 191 m 0,0,1
 237 195 237 195 238 198 c 128,-1,2
 239 201 239 201 241 203.5 c 128,-1,3
 243 206 243 206 246.5 207.5 c 128,-1,4
 250 209 250 209 253 209 c 0,5,6
 260 209 260 209 265.5 204.5 c 128,-1,7
 271 200 271 200 271 193 c 0,8,9
 271 188 271 188 269 184 c 128,-1,10
 267 180 267 180 263 177.5 c 128,-1,11
 259 175 259 175 254 175 c 0,12,13
 248 175 248 175 242.5 179.5 c 128,-1,14
 237 184 237 184 237 191 c 0,0,1
504 192 m 128,-1,16
 504 89 504 89 431.5 16.5 c 128,-1,17
 359 -56 359 -56 256 -56 c 128,-1,18
 153 -56 153 -56 80.5 16.5 c 128,-1,19
 8 89 8 89 8 192 c 128,-1,20
 8 295 8 295 80.5 367.5 c 128,-1,21
 153 440 153 440 256 440 c 128,-1,22
 359 440 359 440 431.5 367.5 c 128,-1,15
 504 295 504 295 504 192 c 128,-1,16
477 192 m 128,-1,24
 477 284 477 284 412.5 348.5 c 128,-1,25
 348 413 348 413 256 413 c 128,-1,26
 164 413 164 413 99.5 348.5 c 128,-1,27
 35 284 35 284 35 192 c 128,-1,28
 35 100 35 100 99.5 35.5 c 128,-1,29
 164 -29 164 -29 256 -29 c 128,-1,30
 348 -29 348 -29 412.5 35.5 c 128,-1,23
 477 100 477 100 477 192 c 128,-1,24
405 95 m 0,31,32
 405 93 405 93 421 83 c 1,33,34
 378 18 378 18 303 0 c 1,35,-1
 299 18 l 2,36,37
 299 21 299 21 295 21 c 256,38,39
 291 21 291 21 292 17 c 2,40,-1
 296 -2 l 1,41,42
 276 -6 276 -6 256 -6 c 0,43,44
 201 -6 201 -6 153 23 c 1,45,46
 165 43 165 43 165 43 c 2,47,48
 165 47 165 47 162 47 c 0,49,50
 160 47 160 47 157 43 c 128,-1,51
 154 39 154 39 150.5 33.5 c 128,-1,52
 147 28 147 28 147 27 c 1,53,54
 81 70 81 70 63 147 c 1,55,-1
 82 151 l 2,56,57
 85 152 85 152 85 155 c 128,-1,58
 85 158 85 158 81 158 c 2,59,-1
 62 154 l 1,60,61
 58 173 58 173 58 192 c 0,62,63
 58 249 58 249 88 297 c 1,64,65
 106 286 106 286 107 286 c 0,66,67
 110 286 110 286 110 289 c 0,68,69
 110 291 110 291 106.5 294 c 128,-1,70
 103 297 103 297 98 300 c 128,-1,71
 93 303 93 303 92 303 c 1,72,73
 137 368 137 368 212 385 c 1,74,-1
 216 366 l 2,75,76
 217 364 217 364 220.5 364 c 128,-1,77
 224 364 224 364 223 368 c 2,78,-1
 219 386 l 1,79,80
 239 390 239 390 256 390 c 0,81,82
 313 390 313 390 361 360 c 1,83,84
 350 344 350 344 350 342 c 0,85,86
 350 338 350 338 354 338 c 0,87,88
 356 338 356 338 367 356 c 1,89,90
 431 313 431 313 448 238 c 1,91,-1
 433 234 l 2,92,93
 430 234 430 234 430 230 c 0,94,95
 430 227 430 227 434 227 c 2,96,-1
 450 231 l 1,97,98
 454 211 454 211 454 192 c 0,99,100
 454 136 454 136 425 89 c 1,101,102
 424 90 424 90 420.5 92.5 c 128,-1,103
 417 95 417 95 413.5 97 c 128,-1,104
 410 99 410 99 409 99 c 0,105,106
 405 99 405 99 405 95 c 0,31,32
372 338 m 1,107,108
 235 209 235 209 234 208 c 2,109,-1
 138 48 l 1,110,111
 274 175 274 175 275 177 c 2,112,-1
 372 338 l 1,107,108
EndSplineSet
Validated: 1
EndChar

StartChar: chrome
Encoding: 62056 62056 98
Width: 496
GlyphClass: 3
Flags: W
LayerCount: 2
Fore
SplineSet
132 230 m 1,0,-1
 55 348 l 1,1,2
 90 392 90 392 141 416 c 128,-1,3
 192 440 192 440 247 440 c 0,4,5
 314 440 314 440 372 407 c 0,6,7
 436 370 436 370 469 304 c 1,8,-1
 264 315 l 2,9,10
 242 316 242 316 221.5 310.5 c 128,-1,11
 201 305 201 305 183.5 294.5 c 128,-1,12
 166 284 166 284 152.5 267.5 c 128,-1,13
 139 251 139 251 132 230 c 1,0,-1
164 192 m 0,14,15
 164 215 164 215 175.5 234 c 128,-1,16
 187 253 187 253 206 264.5 c 128,-1,17
 225 276 225 276 248 276 c 0,18,19
 283 276 283 276 307.5 251.5 c 128,-1,20
 332 227 332 227 332 192 c 128,-1,21
 332 157 332 157 307.5 132.5 c 128,-1,22
 283 108 283 108 248 108 c 128,-1,23
 213 108 213 108 188.5 132.5 c 128,-1,24
 164 157 164 157 164 192 c 0,14,15
479 281 m 1,25,26
 512 198 512 198 482 110.5 c 128,-1,27
 452 23 452 23 372 -23 c 0,28,29
 308 -60 308 -60 234 -56 c 1,30,-1
 346 117 l 2,31,32
 371 153 371 153 369.5 197 c 128,-1,33
 368 241 368 241 340 274 c 1,34,-1
 479 281 l 1,25,26
134 144 m 2,35,36
 154 105 154 105 192.5 84.5 c 128,-1,37
 231 64 231 64 273 72 c 1,38,-1
 210 -53 l 1,39,40
 120 -39 120 -39 60 30.5 c 128,-1,41
 0 100 0 100 0 192 c 0,42,43
 0 266 0 266 40 328 c 1,44,-1
 134 144 l 2,35,36
EndSplineSet
Validated: 33
EndChar

StartChar: opera
Encoding: 62058 62058 99
Width: 496
GlyphClass: 3
Flags: W
LayerCount: 2
Fore
SplineSet
314 415 m 0,0,1
 253 415 253 415 205 378 c 128,-1,2
 157 341 157 341 136 287.5 c 128,-1,3
 115 234 115 234 121.5 171 c 128,-1,4
 128 108 128 108 166 60 c 0,5,6
 227 -15 227 -15 314 -15 c 0,7,8
 367 -15 367 -15 413 15 c 1,9,10
 343 -48 343 -48 248 -48 c 0,11,12
 240 -48 240 -48 236 -48 c 0,13,14
 137 -43 137 -43 68.5 28.5 c 128,-1,15
 0 100 0 100 0 200 c 0,16,17
 0 303 0 303 72.5 375.5 c 128,-1,18
 145 448 145 448 248 448 c 2,19,-1
 249 448 l 2,20,21
 343 448 343 448 413 385 c 1,22,23
 368 415 368 415 314 415 c 0,0,1
416 18 m 1,24,25
 385 -1 385 -1 349.5 0.5 c 128,-1,26
 314 2 314 2 284 23 c 1,27,28
 326 39 326 39 353.5 88 c 128,-1,29
 381 137 381 137 381 200 c 128,-1,30
 381 263 381 263 354 312 c 128,-1,31
 327 361 327 361 284 377 c 1,32,33
 315 398 315 398 350.5 399.5 c 128,-1,34
 386 401 386 401 417 382 c 1,35,36
 496 308 496 308 496 199.5 c 128,-1,37
 496 91 496 91 416 18 c 1,24,25
EndSplineSet
Validated: 33
EndChar

StartChar: internet-explorer
Encoding: 62059 62059 100
Width: 512
GlyphClass: 3
Flags: W
LayerCount: 2
Fore
SplineSet
483 288 m 1,0,1
 521 220 521 220 510 147 c 1,2,-1
 181 147 l 1,3,4
 181 111 181 111 204.5 85.5 c 128,-1,5
 228 60 228 60 259.5 52 c 128,-1,6
 291 44 291 44 325 56 c 128,-1,7
 359 68 359 68 378 100 c 1,8,-1
 499 100 l 1,9,10
 475 32 475 32 415.5 -7 c 128,-1,11
 356 -46 356 -46 282 -46 c 0,12,13
 212 -46 212 -46 180 -31 c 1,14,15
 146 -48 146 -48 115 -56.5 c 128,-1,16
 84 -65 84 -65 57.5 -63.5 c 128,-1,17
 31 -62 31 -62 15.5 -43 c 128,-1,18
 0 -24 0 -24 0 11 c 0,19,20
 0 43 0 43 13 83.5 c 128,-1,21
 26 124 26 124 44 156 c 0,22,23
 101 259 101 259 180 329 c 1,24,25
 127 307 127 307 58 228 c 1,26,27
 77 313 77 313 145.5 366.5 c 128,-1,28
 214 420 214 420 295 415 c 1,29,30
 392 458 392 458 448 445.5 c 128,-1,31
 504 433 504 433 504 376 c 0,32,33
 504 337 504 337 483 288 c 1,0,1
65 101 m 1,34,35
 47 64 47 64 40.5 35.5 c 128,-1,36
 34 7 34 7 38.5 -9.5 c 128,-1,37
 43 -26 43 -26 54.5 -35.5 c 128,-1,38
 66 -45 66 -45 83.5 -46 c 128,-1,39
 101 -47 101 -47 121.5 -41 c 128,-1,40
 142 -35 142 -35 165 -22 c 1,41,42
 92 20 92 20 65 101 c 1,34,35
181 210 m 1,43,-1
 388 210 l 1,44,45
 388 237 388 237 373 259 c 128,-1,46
 358 281 358 281 334.5 293 c 128,-1,47
 311 305 311 305 285 305 c 0,48,49
 243 305 243 305 212.5 278 c 128,-1,50
 182 251 182 251 181 210 c 1,43,-1
365 398 m 1,51,52
 432 372 432 372 477 298 c 1,53,54
 492 336 492 336 492 366 c 0,55,56
 492 382 492 382 485 394 c 128,-1,57
 478 406 478 406 465.5 413 c 128,-1,58
 453 420 453 420 438 420 c 0,59,60
 411 420 411 420 365 398 c 1,51,52
EndSplineSet
Validated: 545
EndChar

StartChar: contao
Encoding: 62061 62061 101
Width: 512
GlyphClass: 3
Flags: W
LayerCount: 2
Fore
SplineSet
45 143 m 0,0,1
 56 96 56 96 61 75 c 128,-1,2
 66 54 66 54 80 21.5 c 128,-1,3
 94 -11 94 -11 114 -32 c 1,4,-1
 34 -32 l 2,5,6
 20 -32 20 -32 10 -22 c 128,-1,7
 0 -12 0 -12 0 2 c 2,8,-1
 0 382 l 2,9,10
 0 396 0 396 10 406 c 128,-1,11
 20 416 20 416 34 416 c 2,12,-1
 92 416 l 1,13,14
 71 397 71 397 55 372 c 0,15,16
 42 352 42 352 35 328 c 128,-1,17
 28 304 28 304 26.5 286.5 c 128,-1,18
 25 269 25 269 28.5 238 c 128,-1,19
 32 207 32 207 35 193.5 c 128,-1,20
 38 180 38 180 45 143 c 0,0,1
478 416 m 2,21,22
 492 416 492 416 502 406 c 128,-1,23
 512 396 512 396 512 382 c 2,24,-1
 512 2 l 2,25,26
 512 -12 512 -12 502 -22 c 128,-1,27
 492 -32 492 -32 478 -32 c 2,28,-1
 426 -32 l 1,29,30
 488 29 488 29 483 132 c 1,31,-1
 346 102 l 1,32,33
 343 40 343 40 288 29 c 0,34,35
 253 21 253 21 230 40 c 0,36,37
 216 52 216 52 205.5 77.5 c 128,-1,38
 195 103 195 103 181 172 c 0,39,40
 171 219 171 219 167.5 248.5 c 128,-1,41
 164 278 164 278 165.5 289.5 c 128,-1,42
 167 301 167 301 172 312 c 0,43,44
 185 339 185 339 221 346 c 0,45,46
 275 358 275 358 303 303 c 1,47,-1
 440 332 l 1,48,49
 420 383 420 383 388 416 c 1,50,-1
 478 416 l 2,21,22
EndSplineSet
Validated: 33
EndChar

StartChar: 500px
Encoding: 62062 62062 102
Width: 448
GlyphClass: 3
Flags: W
LayerCount: 2
Fore
SplineSet
103 104 m 0,0,1
 98 114 98 114 99 118.5 c 128,-1,2
 100 123 100 123 111 127 c 0,3,4
 122 130 122 130 124.5 127 c 128,-1,5
 127 124 127 124 133.5 109 c 128,-1,6
 140 94 140 94 154 78 c 1,7,-1
 154 172 l 2,8,9
 155 209 155 209 183.5 236.5 c 128,-1,10
 212 264 212 264 252 264 c 256,11,12
 292 264 292 264 321 235.5 c 128,-1,13
 350 207 350 207 350 167 c 0,14,15
 350 118 350 118 310.5 88.5 c 128,-1,16
 271 59 271 59 221 74 c 0,17,18
 213 77 213 77 217.5 91 c 128,-1,19
 222 105 222 105 230 102 c 0,20,21
 259 102 259 102 277 106.5 c 128,-1,22
 295 111 295 111 307 126 c 128,-1,23
 319 141 319 141 319 167 c 0,24,25
 319 196 319 196 298 215 c 128,-1,26
 277 234 277 234 249 233.5 c 128,-1,27
 221 233 221 233 202 211 c 0,28,29
 197 205 197 205 194 200.5 c 128,-1,30
 191 196 191 196 188.5 188.5 c 128,-1,31
 186 181 186 181 185 175 c 128,-1,32
 184 169 184 169 184 155.5 c 128,-1,33
 184 142 184 142 184 131 c 128,-1,34
 184 120 184 120 184 96.5 c 128,-1,35
 184 73 184 73 184 54 c 1,36,37
 223 30 223 30 268 36 c 128,-1,38
 313 42 313 42 345 74 c 0,39,40
 383 112 383 112 383 166.5 c 128,-1,41
 383 221 383 221 345 260 c 0,42,43
 306 298 306 298 251 298 c 256,44,45
 196 298 196 298 158 260 c 0,46,47
 143 245 143 245 137 236 c 1,48,-1
 136 236 l 1,49,50
 130 226 130 226 116 229 c 0,51,52
 102 233 102 233 102 241 c 2,53,-1
 102 428 l 2,54,55
 102 438 102 438 112 438 c 2,56,-1
 354 438 l 2,57,58
 362 438 362 438 362 423 c 128,-1,59
 362 408 362 408 354 408 c 2,60,-1
 130 408 l 1,61,-1
 130 275 l 1,62,-1
 131 275 l 1,63,64
 168 315 168 315 218.5 324.5 c 128,-1,65
 269 334 269 334 311.5 317 c 128,-1,66
 354 300 354 300 383.5 259.5 c 128,-1,67
 413 219 413 219 413 166 c 0,68,69
 413 124 413 124 394.5 89.5 c 128,-1,70
 376 55 376 55 347.5 35.5 c 128,-1,71
 319 16 319 16 283 9.5 c 128,-1,72
 247 3 247 3 213 10 c 128,-1,73
 179 17 179 17 149 41.5 c 128,-1,74
 119 66 119 66 103 104 c 0,0,1
167 364 m 0,75,76
 167 369 167 369 176 373 c 128,-1,77
 185 377 185 377 199.5 380.5 c 128,-1,78
 214 384 214 384 232.5 385.5 c 128,-1,79
 251 387 251 387 273 384.5 c 128,-1,80
 295 382 295 382 317.5 376 c 128,-1,81
 340 370 340 370 363 357.5 c 128,-1,82
 386 345 386 345 405 326 c 0,83,84
 409 322 409 322 406 317 c 128,-1,85
 403 312 403 312 398 308 c 128,-1,86
 393 304 393 304 391 304 c 0,87,88
 390 304 390 304 379 312.5 c 128,-1,89
 368 321 368 321 349.5 331.5 c 128,-1,90
 331 342 331 342 307 350.5 c 128,-1,91
 283 359 283 359 249.5 358 c 128,-1,92
 216 357 216 357 181 344 c 0,93,94
 175 341 175 341 170.5 350 c 128,-1,95
 166 359 166 359 167 364 c 0,75,76
393 33 m 0,96,97
 399 39 399 39 409 29 c 128,-1,98
 419 19 419 19 414 13 c 0,99,100
 365 -36 365 -36 300.5 -49 c 128,-1,101
 236 -62 236 -62 180.5 -43 c 128,-1,102
 125 -24 125 -24 83 23.5 c 128,-1,103
 41 71 41 71 32 134 c 0,104,105
 31 139 31 139 38.5 142.5 c 128,-1,106
 46 146 46 146 53.5 144.5 c 128,-1,107
 61 143 61 143 61 138 c 0,108,109
 71 90 71 90 97.5 53 c 128,-1,110
 124 16 124 16 160.5 -2.5 c 128,-1,111
 197 -21 197 -21 238 -25 c 128,-1,112
 279 -29 279 -29 320 -14 c 128,-1,113
 361 1 361 1 393 33 c 0,96,97
214 141 m 256,114,115
 214 144 214 144 234 164 c 1,116,-1
 216 182 l 2,117,118
 213 185 213 185 215 189 c 128,-1,119
 217 193 217 193 221.5 196.5 c 128,-1,120
 226 200 226 200 228 200 c 256,121,122
 230 200 230 200 250 180 c 1,123,-1
 268 198 l 2,124,125
 272 203 272 203 280 195 c 128,-1,126
 288 187 288 187 284 182 c 2,127,-1
 266 164 l 1,128,-1
 283 147 l 2,129,130
 288 141 288 141 282.5 134.5 c 128,-1,131
 277 128 277 128 272 128 c 0,132,133
 270 128 270 128 250 148 c 1,134,135
 246 144 246 144 240 138 c 0,136,137
 231 128 231 128 228 128 c 0,138,139
 224 128 224 128 219 133 c 256,140,141
 214 138 214 138 214 141 c 256,114,115
EndSplineSet
Validated: 33
EndChar

StartChar: amazon
Encoding: 62064 62064 103
Width: 448
GlyphClass: 3
Flags: W
LayerCount: 2
Fore
SplineSet
257 285 m 1,0,1
 257 289 257 289 257 296.5 c 128,-1,2
 257 304 257 304 257 307.5 c 128,-1,3
 257 311 257 311 257 317.5 c 128,-1,4
 257 324 257 324 256.5 327 c 128,-1,5
 256 330 256 330 255 334.5 c 128,-1,6
 254 339 254 339 252 341.5 c 128,-1,7
 250 344 250 344 247.5 347 c 128,-1,8
 245 350 245 350 241 351 c 128,-1,9
 237 352 237 352 232.5 353 c 128,-1,10
 228 354 228 354 222 354 c 0,11,12
 220 354 220 354 217.5 354 c 128,-1,13
 215 354 215 354 207.5 351 c 128,-1,14
 200 348 200 348 193.5 343.5 c 128,-1,15
 187 339 187 339 179.5 329 c 128,-1,16
 172 319 172 319 168 305 c 1,17,-1
 94 312 l 1,18,19
 94 352 94 352 130.5 384 c 128,-1,20
 167 416 167 416 229 416 c 0,21,22
 260 416 260 416 283 407 c 128,-1,23
 306 398 306 398 318 384 c 128,-1,24
 330 370 330 370 335.5 357.5 c 128,-1,25
 341 345 341 345 341 334 c 2,26,-1
 341 187 l 2,27,28
 341 174 341 174 349 161 c 128,-1,29
 357 148 357 148 365 141 c 2,30,-1
 373 134 l 1,31,-1
 316 78 l 1,32,33
 278 114 278 114 271 125 c 1,34,35
 258 104 258 104 235 91.5 c 128,-1,36
 212 79 212 79 187 78 c 128,-1,37
 162 77 162 77 139.5 85 c 128,-1,38
 117 93 117 93 102.5 114.5 c 128,-1,39
 88 136 88 136 88 168 c 0,40,41
 88 197 88 197 101 219 c 128,-1,42
 114 241 114 241 132.5 253 c 128,-1,43
 151 265 151 265 176.5 272.5 c 128,-1,44
 202 280 202 280 220.5 282.5 c 128,-1,45
 239 285 239 285 257 285 c 1,0,1
257 198 m 2,46,-1
 257 239 l 1,47,48
 173 236 173 236 173 181 c 0,49,50
 173 152 173 152 201 143 c 0,51,52
 230 133 230 133 247 159 c 0,53,54
 257 174 257 174 257 198 c 2,46,-1
393 35 m 0,55,56
 386 26 386 26 368 12.5 c 128,-1,57
 350 -1 350 -1 308 -16.5 c 128,-1,58
 266 -32 266 -32 219 -32 c 0,59,60
 171 -32 171 -32 124 -11.5 c 128,-1,61
 77 9 77 9 51.5 29.5 c 128,-1,62
 26 50 26 50 10 69 c 0,63,64
 7 73 7 73 7.5 75.5 c 128,-1,65
 8 78 8 78 10.5 78 c 128,-1,66
 13 78 13 78 15 77 c 0,67,68
 39 63 39 63 50 56.5 c 128,-1,69
 61 50 61 50 88.5 37 c 128,-1,70
 116 24 116 24 135 19 c 128,-1,71
 154 14 154 14 186 8.5 c 128,-1,72
 218 3 218 3 246.5 6.5 c 128,-1,73
 275 10 275 10 312 19.5 c 128,-1,74
 349 29 349 29 388 47 c 0,75,76
 391 48 391 48 394 47.5 c 128,-1,77
 397 47 397 47 397 43.5 c 128,-1,78
 397 40 397 40 393 35 c 0,55,56
433 33 m 0,79,80
 424 12 424 12 412 2 c 0,81,82
 408 -2 408 -2 405.5 -0.5 c 128,-1,83
 403 1 403 1 405 6 c 0,84,85
 411 17 411 17 416.5 36 c 128,-1,86
 422 55 422 55 418 61 c 0,87,88
 412 68 412 68 370 64 c 0,89,90
 357 63 357 63 356 64.5 c 128,-1,91
 355 66 355 66 357.5 68 c 128,-1,92
 360 70 360 70 364 72 c 128,-1,93
 368 74 368 74 373 76 c 128,-1,94
 378 78 378 78 383.5 79.5 c 128,-1,95
 389 81 389 81 394 82 c 0,96,97
 432 86 432 86 440 76 c 0,98,99
 442 72 442 72 440 58.5 c 128,-1,100
 438 45 438 45 433 33 c 0,79,80
EndSplineSet
Validated: 33
EndChar

StartChar: vimeo-v
Encoding: 62077 62077 104
Width: 448
GlyphClass: 3
Flags: W
LayerCount: 2
Fore
SplineSet
448 294 m 0,0,1
 445 229 445 229 356 115 c 0,2,3
 265 -4 265 -4 202 -4 c 0,4,5
 163 -4 163 -4 136 69 c 0,6,7
 130 88 130 88 121 123 c 0,8,9
 109 168 109 168 103 188.5 c 128,-1,10
 97 209 97 209 88.5 233 c 128,-1,11
 80 257 80 257 72.5 265.5 c 128,-1,12
 65 274 65 274 56 274 c 0,13,14
 51 274 51 274 21 253 c 1,15,-1
 0 280 l 1,16,17
 10 288 10 288 30 306.5 c 128,-1,18
 50 325 50 325 60.5 334 c 128,-1,19
 71 343 71 343 86 355 c 128,-1,20
 101 367 101 367 112 372 c 128,-1,21
 123 377 123 377 132 378 c 0,22,23
 184 383 184 383 196 307 c 0,24,25
 220 156 220 156 238 140 c 0,26,27
 254 125 254 125 288 178 c 1,28,-1
 290 180 l 1,29,30
 318 225 318 225 320 248 c 0,31,32
 322 269 322 269 311.5 278.5 c 128,-1,33
 301 288 301 288 286.5 286.5 c 128,-1,34
 272 285 272 285 257 279 c 1,35,36
 290 387 290 387 383 384 c 0,37,38
 452 382 452 382 448 294 c 0,0,1
EndSplineSet
Validated: 545
EndChar

StartChar: black-tie
Encoding: 62078 62078 105
Width: 448
GlyphClass: 3
Flags: W
LayerCount: 2
Fore
SplineSet
0 416 m 1,0,-1
 448 416 l 1,1,-1
 448 -32 l 1,2,-1
 0 -32 l 1,3,-1
 0 416 l 1,0,-1
316 91 m 1,4,-1
 252 275 l 1,5,-1
 316 361 l 1,6,-1
 132 361 l 1,7,-1
 196 275 l 1,8,-1
 132 91 l 1,9,-1
 224 2 l 1,10,-1
 316 91 l 1,4,-1
EndSplineSet
Validated: 513
EndChar

StartChar: fonticons
Encoding: 62080 62080 106
Width: 448
GlyphClass: 3
Flags: W
LayerCount: 2
Fore
SplineSet
0 416 m 1,0,-1
 448 416 l 1,1,-1
 448 -32 l 1,2,-1
 0 -32 l 1,3,-1
 0 416 l 1,0,-1
187 275 m 0,4,5
 193 275 193 275 196.5 273 c 128,-1,6
 200 271 200 271 201.5 266 c 128,-1,7
 203 261 203 261 203 252 c 1,8,-1
 254 258 l 1,9,10
 254 289 254 289 236.5 300 c 128,-1,11
 219 311 219 311 189 311 c 0,12,13
 163 311 163 311 146.5 304 c 128,-1,14
 130 297 130 297 121 281.5 c 128,-1,15
 112 266 112 266 112 241 c 2,16,-1
 112 220 l 1,17,-1
 84 220 l 1,18,-1
 84 183 l 1,19,-1
 106 183 l 2,20,21
 112 183 112 183 112 180 c 2,22,-1
 112 69 l 2,23,24
 112 62 112 62 105 61 c 2,25,-1
 84 59 l 1,26,-1
 84 33 l 1,27,-1
 215 33 l 1,28,-1
 215 58 l 1,29,-1
 171 62 l 2,30,31
 167 63 167 63 168 66 c 0,32,33
 168 68 168 68 168 70 c 2,34,-1
 168 183 l 1,35,-1
 224 183 l 1,36,-1
 235 220 l 1,37,-1
 167 220 l 1,38,39
 167 222 167 222 168 224 c 2,40,-1
 168 248 l 2,41,42
 168 258 168 258 169 263 c 128,-1,43
 170 268 170 268 174 271.5 c 128,-1,44
 178 275 178 275 187 275 c 0,4,5
261 33 m 1,45,-1
 364 33 l 1,46,-1
 364 58 l 1,47,-1
 348 61 l 2,48,49
 345 61 345 61 345 62 c 128,-1,50
 345 63 345 63 345 64 c 0,51,52
 345 67 345 67 345 68 c 2,53,-1
 345 220 l 1,54,-1
 265 220 l 1,55,-1
 258 190 l 1,56,-1
 283 184 l 2,57,58
 289 182 289 182 289 176 c 2,59,-1
 289 68 l 2,60,61
 289 62 289 62 282 61 c 2,62,-1
 261 58 l 1,63,-1
 261 33 l 1,45,-1
342 289 m 1,64,-1
 364 313 l 1,65,-1
 360 323 l 1,66,-1
 333 323 l 1,67,-1
 317 351 l 1,68,-1
 308 351 l 1,69,-1
 292 323 l 1,70,-1
 265 323 l 1,71,-1
 261 313 l 1,72,-1
 283 289 l 1,73,-1
 274 256 l 1,74,-1
 281 248 l 1,75,-1
 313 265 l 1,76,-1
 344 248 l 1,77,-1
 351 256 l 1,78,-1
 342 289 l 1,64,-1
EndSplineSet
Validated: 1
EndChar

